<?xml version="1.0" standalone="no"?>
<!DOCTYPE svg PUBLIC "-//W3C//DTD SVG 1.1//EN" "http://www.w3.org/Graphics/SVG/1.1/DTD/svg11.dtd" >
<svg>
<defs>
<font id="graviathi" horiz-adv-x="560" >
<missing-glyph horiz-adv-x="1000"
 />
    <glyph glyph-name=".notdef" horiz-adv-x="1000"
 />
    <glyph glyph-name=".null" horiz-adv-x="0"
 />
    <glyph glyph-name="nonmarkingreturn" horiz-adv-x="382"
 />
    <glyph glyph-name="space" unicode=" " horiz-adv-x="382"
 />
    <glyph glyph-name="exclam" unicode="!" horiz-adv-x="259"
d="M140 186q0 -10 -11 -10q-10 0 -10 10v504q0 10 10 10q11 0 11 -10v-504zM140 8q0 -11 -10 -11q-11 0 -11 11v39q0 10 10 10q11 0 11 -10v-39z" />
    <glyph glyph-name="quotedbl" unicode="&#x22;" horiz-adv-x="350"
d="M245 497q0 -5 -3.5 -8t-7.5 -3q-10 0 -10 11v192q0 11 10 11q4 0 7.5 -3t3.5 -8v-192zM127 497q0 -11 -11 -11q-10 0 -10 11v192q0 11 10 11q11 0 11 -11v-192z" />
    <glyph glyph-name="numbersign" unicode="#" horiz-adv-x="649"
d="M596 466q0 -10 -11 -10h-153l-34 -189h152q11 0 11 -10q0 -11 -11 -11h-155l-43 -240q-2 -9 -11 -9h-2q-8 2 -8 10v2l43 237h-145l-43 -240q-2 -9 -10 -9h-2q-9 2 -9 10q0 2 1 2l42 237h-144q-11 0 -11 11q0 10 11 10h148l34 189h-148q-10 0 -10 10q0 11 10 11h152
l38 214q1 5 4 7t6 2h2q9 -2 9 -10v-2l-38 -211h144l39 214q1 9 10 9h2q8 -2 8 -10v-2l-38 -211h149q11 0 11 -11zM267 456l-34 -189h144l34 189h-144z" />
    <glyph glyph-name="dollar" unicode="$" horiz-adv-x="500"
d="M434 162q0 -37 -13.5 -67t-37.5 -51.5t-56 -33.5t-69 -13v-71q0 -5 -3.5 -8t-7.5 -3q-10 0 -10 11v71q-35 1 -66.5 13.5t-54.5 35t-36.5 54.5t-13.5 72q0 11 10.5 11t10.5 -11q0 -36 12 -65t33 -48.5t49.5 -30t60.5 -10.5h11q34 0 63 10t50.5 28.5t34 45t12.5 60.5
q0 57 -25 93t-63 61t-82 44.5t-82 42.5t-63 55t-25 83q0 36 13 64.5t35 49.5t52 32.5t64 12.5v79q0 11 10 11q4 0 7.5 -3t3.5 -8v-79q34 -1 63.5 -12t52 -30.5t35.5 -46.5t13 -60q0 -11 -10.5 -11t-10.5 10q0 29 -11.5 52.5t-31.5 40.5t-47 26.5t-58 9.5h-10q-31 0 -58 -9.5
t-47.5 -27.5t-32 -44t-11.5 -58q0 -46 25 -75.5t63 -51t82 -41t82 -46t63 -65.5t25 -99z" />
    <glyph glyph-name="percent" unicode="%" horiz-adv-x="736"
d="M657 93q0 -20 -7 -37t-20 -30.5t-30 -21t-36 -7.5t-36 7.5t-29.5 21t-19.5 30.5t-7 37v184q0 19 7 36.5t19.5 31t29.5 21t36 7.5t36 -7.5t30 -21t20 -31t7 -36.5v-184zM233 3q-3 -6 -9 -6q-4 0 -7.5 2.5t-3.5 7.5q0 1 0.5 2t0.5 2l282 683q3 6 10 6q10 0 10 -10v-4z
M264 420q0 -20 -7 -37t-19.5 -30.5t-29.5 -21t-36 -7.5q-20 0 -36.5 7.5t-29.5 21t-20 30.5t-7 37v184q0 19 7 36.5t20 31t29.5 21t36.5 7.5q19 0 36 -7.5t29.5 -21t19.5 -31t7 -36.5v-184zM636 277q0 32 -21 53.5t-51 21.5q-29 0 -50.5 -21.5t-21.5 -53.5v-184
q0 -32 21.5 -53.5t50.5 -21.5q30 0 51 21.5t21 53.5v184zM243 604q0 32 -21 53.5t-50 21.5q-30 0 -51 -21.5t-21 -53.5v-184q0 -32 21 -53.5t51 -21.5q29 0 50 21.5t21 53.5v184z" />
    <glyph glyph-name="ampersand" unicode="&#x26;" horiz-adv-x="553"
d="M509 -3q-27 0 -51.5 20t-47.5 55q-35 -35 -78 -55t-86 -20h-11q-36 0 -68 14t-56 38t-38 56t-14 68q0 37 13.5 68t36 57t51 48t57.5 42q-10 16 -22 35t-22 39t-17 40.5t-7 39.5q0 26 9.5 46.5t25 34.5t36 21.5t42.5 7.5h5q20 0 41 -7t38 -21t27.5 -35t10.5 -49
q0 -26 -11.5 -47.5t-31 -40t-44.5 -35.5t-52 -35l168 -277q14 17 24.5 35t18.5 38q2 5 6 6t8 -0.5t6 -5t0 -8.5q-8 -23 -21.5 -43.5t-30.5 -39.5q46 -69 85 -69q11 0 11 -10.5t-11 -10.5zM363 540q0 39 -27.5 65t-68.5 26h-5q-17 0 -33.5 -6.5t-29.5 -18t-21 -28t-8 -36.5
q0 -17 6.5 -36t16.5 -38t21 -36.5t20 -32.5q25 17 48.5 33t41.5 32.5t28.5 35t10.5 40.5zM228 370q-28 -19 -54.5 -39.5t-47.5 -44.5t-33.5 -52t-12.5 -61q0 -32 12.5 -60.5t33.5 -49.5t49 -33t60 -12h11q39 0 79.5 19.5t72.5 52.5z" />
    <glyph glyph-name="quotesingle" unicode="'" horiz-adv-x="232"
d="M127 489q0 -11 -11 -11q-10 0 -10 11v200q0 11 10 11q11 0 11 -11v-200v0z" />
    <glyph glyph-name="parenleft" unicode="(" horiz-adv-x="319"
d="M279 -103q4 -2 0 -6q-11 -8 -20 -1q-40 31 -75 76.5t-61.5 102t-41.5 122.5t-15 138q0 70 15 135t40.5 121t60 101.5t73.5 77.5q10 7 20 0q3 -4 0 -7q-38 -30 -72 -74t-60 -99.5t-41 -120t-15 -134.5q0 -71 16 -136.5t42.5 -121t61 -100t72.5 -74.5z" />
    <glyph glyph-name="parenright" unicode=")" horiz-adv-x="357"
d="M252 329q0 -72 -15 -138t-41.5 -122.5t-61.5 -102t-74 -76.5q-10 -7 -20 1q-4 4 0 6q38 30 73 74.5t61.5 100t42.5 121t16 136.5q0 70 -15.5 134t-41.5 119.5t-60.5 100t-71.5 74.5q-4 3 0 7q9 8 19 0q39 -32 73.5 -77.5t60 -101.5t40.5 -121t15 -135z" />
    <glyph glyph-name="asterisk" unicode="*" horiz-adv-x="393"
d="M382 515q0 -11 -11 -11l-102 2h-57l29 -50l52 -87q2 -4 1 -8.5t-5 -6.5q-9 -5 -14 4l-50 89l-29 50l-28 -50l-50 -89q-5 -9 -14 -4q-4 2 -5 6.5t1 8.5l52 87l29 50h-58l-102 -2q-10 0 -10 11q0 10 10 10l102 -1h58l-29 50l-52 87q-2 4 -1 8t5 6q9 5 14 -3l50 -89l28 -50
l29 50l50 89q5 8 14 3q4 -2 5 -6t-1 -8l-52 -87l-29 -50h57l102 1q11 0 11 -10z" />
    <glyph glyph-name="plus" unicode="+" horiz-adv-x="481"
d="M421 343q0 -4 -3 -7.5t-8 -3.5h-160v-159q0 -11 -10 -11q-4 0 -7.5 3t-3.5 8v159h-159q-5 0 -8 3.5t-3 7.5q0 10 11 10h159v160q0 5 3.5 8t7.5 3q10 0 10 -11v-160h160q11 0 11 -10z" />
    <glyph glyph-name="comma" unicode="," horiz-adv-x="196"
d="M110 50q0 -32 -4.5 -55t-13.5 -42.5t-22.5 -36.5t-30.5 -36l-20 -22q-4 -4 -9 -4q-10 0 -10 10q0 5 4 9l20 21q16 17 28 32.5t20 33t12.5 39t4.5 51.5v40q0 6 3.5 9t7.5 3q10 0 10 -12v-40v0z" />
    <glyph glyph-name="hyphen" unicode="-" horiz-adv-x="425"
d="M365 342q0 -4 -2.5 -7.5t-7.5 -3.5h-284q-5 0 -8.5 3.5t-3.5 7.5q0 10 12 10h284q10 0 10 -10z" />
    <glyph glyph-name="period" unicode="." horiz-adv-x="153"
d="M87 9q0 -12 -11 -12q-10 0 -10 12v42q0 11 10 11q11 0 11 -11v-42v0z" />
    <glyph glyph-name="slash" unicode="/" horiz-adv-x="334"
d="M343 758q0 -3 -1 -5l-349 -859q-3 -7 -10 -7q-4 0 -7.5 2.5t-3.5 7.5q0 3 1 5l349 858q3 8 10 8q4 0 7.5 -2.5t3.5 -7.5z" />
    <glyph glyph-name="zero" unicode="0" horiz-adv-x="537"
d="M419 142q0 -30 -11.5 -56.5t-31 -46t-45.5 -31t-56 -11.5h-12q-30 0 -56.5 11.5t-46 31t-31 46t-11.5 56.5v413q0 30 11.5 56.5t31 46t46 31t56.5 11.5h12q30 0 56 -11.5t45.5 -31t31 -46t11.5 -56.5v-413zM399 555q0 26 -10 48.5t-26.5 39.5t-39.5 26.5t-48 9.5h-12
q-26 0 -48.5 -9.5t-39.5 -26.5t-26.5 -39.5t-9.5 -48.5v-413q0 -26 9.5 -48.5t26.5 -39t39.5 -26.5t48.5 -10h12q25 0 48 10t39.5 26.5t26.5 39t10 48.5v413z" />
    <glyph glyph-name="one" unicode="1" horiz-adv-x="588"
d="M339 7q0 -10 -10 -10q-11 0 -11 10v663l-102 -135q-3 -5 -8 -5q-11 0 -11 10q0 3 2 7l111 148q5 5 9 5h10q10 0 10 -11v-682v0z" />
    <glyph glyph-name="two" unicode="2" horiz-adv-x="530"
d="M114 0q-10 0 -10 10v8q0 4 2 8q1 2 2 2l261 429q18 30 21.5 53.5t3.5 31.5v15q0 25 -10.5 47.5t-28 39t-40.5 26t-49 9.5h-8q-26 0 -48.5 -9.5t-39 -26t-26.5 -39t-10 -48.5v-11q0 -11 -10 -11t-10 11v11q0 30 11 56.5t30.5 46t46 30.5t56.5 11h8q30 0 57 -11t47.5 -30.5
t32.5 -46t12 -56.5v-14q0 -18 -4.5 -41t-23.5 -55l-259 -425h288q11 0 11 -10.5t-11 -10.5h-302z" />
    <glyph glyph-name="three" unicode="3" horiz-adv-x="534"
d="M422 142q0 -30 -11.5 -56.5t-31 -46t-46 -31t-56.5 -11.5h-20q-30 0 -56.5 11.5t-46 31t-31 46t-11.5 56.5q0 11 10.5 11t10.5 -11q0 -26 9.5 -48.5t26.5 -39t39.5 -26.5t48.5 -10h20q25 0 48 10t39.5 26.5t26.5 39t10 48.5v74q0 46 -10 75.5t-30 46t-49 22.5t-67 6
q-11 0 -11 10.5t11 10.5q22 0 49 3t51 17t40 43t16 82v25q0 52 -34 87t-89 35h-9q-26 0 -49 -7.5t-40 -22.5t-27 -37.5t-10 -53.5q0 -11 -10.5 -11t-10.5 11q0 35 12.5 61.5t33 44.5t47 27t54.5 9h8q27 0 53.5 -9.5t46.5 -27.5t32.5 -44.5t12.5 -61.5v-25q0 -37 -7.5 -63.5
t-20.5 -44.5t-29.5 -29t-34.5 -17q27 -9 44.5 -25.5t28 -38t15 -47t4.5 -51.5v-74v0z" />
    <glyph glyph-name="four" unicode="4" horiz-adv-x="527"
d="M430 182q0 -10 -10 -10h-73v-165q0 -10 -10 -10t-10 10v165h-220q-10 0 -10 10v8q0 4 0.5 5.5t2.5 4.5l220 493q4 7 10 7q10 0 10 -11q0 -3 -1 -4l-221 -492h209v125q0 10 10 10t10 -10v-125h73q5 0 7.5 -3.5t2.5 -7.5z" />
    <glyph glyph-name="five" unicode="5" horiz-adv-x="540"
d="M417 142q0 -30 -11.5 -56.5t-31 -46t-46 -31t-56.5 -11.5h-12q-60 0 -98.5 38t-38.5 115q0 11 10.5 11t10.5 -11q0 -69 32.5 -100.5t83.5 -31.5h12q26 0 48.5 9.5t39.5 26.5t26.5 39.5t9.5 48.5v173q0 25 -9.5 48t-26.5 39.5t-39.5 26.5t-48.5 10h-12q-34 0 -62 -17
t-44 -44q-6 -10 -15.5 -8.5t-9.5 12.5v305q0 10 10 10h244q11 0 11 -10.5t-11 -10.5h-233v-269q19 24 48 38.5t62 14.5h12q30 0 56.5 -11.5t46 -31t31 -46t11.5 -56.5v-173v0z" />
    <glyph glyph-name="six" unicode="6" horiz-adv-x="537"
d="M419 142q0 -30 -11.5 -56.5t-31 -46t-45.5 -31t-56 -11.5h-12q-30 0 -56.5 11.5t-46 31t-31 46t-11.5 56.5v413q0 30 11.5 56.5t31 46t46 31t56.5 11.5h12q27 0 50.5 -9t42 -24.5t30.5 -37.5t17 -47q2 -11 -8 -13t-12 9q-8 44 -41 72.5t-79 28.5h-12q-26 0 -48.5 -10
t-39.5 -26.5t-26.5 -39.5t-9.5 -48v-203q19 32 51.5 51t72.5 19h12q30 0 56 -11.5t45.5 -31t31 -46t11.5 -56.5v-135zM398 277q0 26 -9.5 48.5t-26.5 39.5t-39.5 26.5t-47.5 9.5h-12q-26 0 -48.5 -9.5t-39.5 -26.5t-26.5 -39.5t-9.5 -48.5v-135q0 -26 9.5 -48.5t26.5 -39
t39.5 -26.5t48.5 -10h12q25 0 47.5 10t39.5 26.5t26.5 39t9.5 48.5v135z" />
    <glyph glyph-name="seven" unicode="7" horiz-adv-x="535"
d="M421 679q0 -2 -0.5 -4t-1.5 -5l-209 -666q-1 -4 -4 -5.5t-6 -1.5q-4 0 -7.5 2.5t-3.5 7.5q0 1 0.5 1.5t0.5 1.5l207 666h-262v-90q0 -11 -11 -11q-10 0 -10 11v101q0 10 10 10h286q11 0 11 -10v-8v0z" />
    <glyph glyph-name="eight" unicode="8" horiz-adv-x="537"
d="M419 142q0 -30 -11.5 -56.5t-31 -46t-45.5 -31t-56 -11.5h-12q-30 0 -56.5 11.5t-46 31t-31 46t-11.5 56.5v98q0 46 25 82t65 52q-40 17 -65 53t-25 82v47q0 30 11.5 56t31 45.5t46 31t56.5 11.5h12q30 0 56 -11.5t45.5 -31t31 -45.5t11.5 -56v-47q0 -46 -25 -82t-65 -53
q40 -16 65 -52t25 -82v-98zM398 556q0 25 -9.5 47.5t-26.5 39.5t-39.5 26.5t-47.5 9.5h-12q-26 0 -48.5 -9.5t-39.5 -26.5t-26.5 -39.5t-9.5 -47.5v-47q0 -26 9.5 -49t26.5 -39.5t39.5 -26t48.5 -9.5h12q25 0 47.5 9.5t39.5 26t26.5 39.5t9.5 49v47zM398 240q0 26 -9.5 49
t-26.5 39.5t-39.5 26t-47.5 9.5h-12q-26 0 -48.5 -9.5t-39.5 -26t-26.5 -39.5t-9.5 -49v-98q0 -26 9.5 -48.5t26.5 -39t39.5 -26.5t48.5 -10h12q25 0 47.5 10t39.5 26.5t26.5 39t9.5 48.5v98z" />
    <glyph glyph-name="nine" unicode="9" horiz-adv-x="537"
d="M419 142q0 -30 -11.5 -56.5t-31 -46t-45.5 -31t-56 -11.5h-12q-27 0 -50.5 9t-42 24.5t-31.5 37t-17 47.5q-1 5 2 8.5t6.5 4t7 -1.5t4.5 -7q8 -44 41 -72.5t80 -28.5h12q25 0 47.5 10t39.5 26.5t26.5 39t9.5 48.5v219q-19 -32 -51.5 -51t-71.5 -19h-12q-30 0 -56.5 11.5
t-46 31t-31 46t-11.5 56.5v119q0 30 11.5 56.5t31 46t46 31t56.5 11.5h12q30 0 56 -11.5t45.5 -31t31 -46t11.5 -56.5v-413zM398 555q0 25 -9.5 48t-26.5 39.5t-39.5 26.5t-47.5 10h-12q-26 0 -48.5 -10t-39.5 -26.5t-26.5 -39.5t-9.5 -48v-119q0 -26 9.5 -48.5t26.5 -39.5
t39.5 -26.5t48.5 -9.5h12q25 0 47.5 9.5t39.5 26.5t26.5 39.5t9.5 48.5v119z" />
    <glyph glyph-name="colon" unicode=":" horiz-adv-x="153"
d="M87 328q0 -12 -11 -12q-10 0 -10 12v42q0 12 10 12q11 0 11 -12v-42zM87 9q0 -12 -11 -12q-10 0 -10 12v42q0 11 10 11q11 0 11 -11v-42z" />
    <glyph glyph-name="semicolon" unicode=";" horiz-adv-x="196"
d="M110 328q0 -12 -10 -12q-4 0 -7.5 3t-3.5 9v42q0 6 3.5 9t7.5 3q10 0 10 -12v-42zM110 50q0 -32 -4.5 -55t-13.5 -42.5t-22.5 -36.5t-30.5 -36l-20 -22q-4 -4 -9 -4q-10 0 -10 10q0 5 4 9l20 21q16 17 28 32.5t20 33t12.5 39t4.5 51.5v40q0 6 3.5 9t7.5 3q10 0 10 -12
v-40z" />
    <glyph glyph-name="less" unicode="&#x3c;" horiz-adv-x="332"
d="M279 8q0 -11 -10 -11q-5 0 -9 5l-185 222q-2 3 -5.5 7.5t-3.5 12.5t3.5 12.5t5.5 7.5l185 222q4 5 9 5q10 0 10 -11q0 -4 -3 -8l-186 -228l186 -228q3 -5 3 -8z" />
    <glyph glyph-name="equal" unicode="=" horiz-adv-x="528"
d="M435 404q0 -10 -11 -10h-321q-11 0 -11 10t11 10h321q11 0 11 -10zM435 282q0 -10 -11 -10h-321q-11 0 -11 10q0 11 11 11h321q11 0 11 -11z" />
    <glyph glyph-name="greater" unicode="&#x3e;" horiz-adv-x="332"
d="M266 244q0 -8 -3.5 -12.5t-5.5 -7.5l-185 -222q-3 -5 -9 -5q-10 0 -10 11q0 3 3 8l187 228l-187 228q-3 4 -3 8q0 11 10 11q6 0 9 -5l185 -222q2 -3 5.5 -7.5t3.5 -12.5z" />
    <glyph glyph-name="question" unicode="?" horiz-adv-x="388"
d="M322 519q0 -37 -19 -62.5t-37 -41.5q-20 -17 -35.5 -30t-26.5 -28t-17 -34t-6 -48v-78q0 -10 -11 -10q-10 0 -10 10v78q0 33 6.5 54.5t18.5 37.5t29 30t38 32q17 14 33 36t16 54v37q0 25 -9.5 47.5t-26.5 39.5t-39.5 26.5t-48.5 9.5h-6q-26 0 -48.5 -9.5t-39.5 -26.5
t-26.5 -39.5t-9.5 -47.5v-14q0 -11 -11 -11q-10 0 -10 11v14q0 30 11.5 56t31 45.5t46 31t56.5 11.5h6q30 0 56.5 -11.5t46 -31t31 -45.5t11.5 -56v-37zM181 9q0 -12 -11 -12q-10 0 -10 12v42q0 11 10 11q11 0 11 -11v-42z" />
    <glyph glyph-name="at" unicode="@" horiz-adv-x="938"
d="M826 124q0 -65 -31.5 -96t-73.5 -31h-22q-33 0 -61 23t-40 64q-18 -39 -54.5 -63t-81.5 -24h-11q-31 0 -58 9t-47.5 26.5t-32 43.5t-11.5 59v5q0 44 25 70t61 40.5t76 21.5t69 13q38 7 48 25t10 36q0 26 -10 48.5t-26.5 39.5t-38.5 26.5t-48 9.5h-8q-35 0 -68.5 -15.5
t-51.5 -57.5q-2 -5 -6.5 -6t-8 0.5t-5.5 5.5t0 9q10 24 26 40.5t34.5 26.5t39 14t40.5 4h8q30 0 56 -10.5t45.5 -29.5t31 -44t11.5 -54v-217q0 -29 7.5 -51t20 -36.5t28 -22t31.5 -7.5h22q16 0 31 5.5t26.5 18.5t18.5 32.5t7 48.5v215q0 64 -24 120t-66 98t-98 66t-120 24
h-54q-64 0 -120.5 -24t-98.5 -66t-66 -98t-24 -120v-194q0 -64 24 -120.5t66 -98.5t98.5 -66t120.5 -24h54q32 0 61.5 6.5t57.5 17.5q5 2 8.5 0t5 -5.5t0.5 -8t-6 -6.5q-61 -25 -127 -25h-54q-68 0 -128 26t-105 70.5t-71 104.5t-26 129v194q0 69 26 129t71 104.5t105 70.5
t128 26h54q68 0 128 -26t105 -71t71 -105t26 -128v-215zM591 289q-8 -8 -21 -14.5t-33 -10.5q-24 -5 -60 -10.5t-70.5 -18t-59 -35t-24.5 -60.5v-5q0 -56 36.5 -86t91.5 -30h11q27 0 50.5 10t41 27.5t27.5 40.5t10 50v142z" />
    <glyph glyph-name="A" unicode="A" horiz-adv-x="548"
d="M509 7q0 -10 -11 -10q-8 0 -9 7l-62 190h-305l-62 -190q-1 -7 -9 -7q-11 0 -11 10q0 2 1 3l221 683q3 7 13 7t12 -7l221 -683q1 -1 1 -3zM275 664l-146 -449h291z" />
    <glyph glyph-name="B" unicode="B" horiz-adv-x="552"
d="M473 175q0 -36 -14 -68t-38 -56t-56 -37.5t-68 -13.5h-168q-10 0 -10 10v677q0 10 10 10h168q36 0 67 -13t53 -35.5t34.5 -53.5t12.5 -67v-4q0 -57 -29.5 -101t-79.5 -62q26 -10 47.5 -27t37.5 -39.5t24.5 -49.5t8.5 -56v-14zM443 528q0 32 -10.5 59.5t-30 47t-46.5 30.5
t-59 11h-157v-305h157q32 0 58.5 11.5t46 32t30.5 48.5t11 61v4zM452 189q0 32 -12 61.5t-33 51.5t-49.5 35t-60.5 13h-157v-329h157q32 0 60.5 12t49.5 33t33 49t12 60v14z" />
    <glyph glyph-name="C" unicode="C" horiz-adv-x="512"
d="M459 147q-5 -32 -20 -59.5t-38 -47.5t-53 -31.5t-63 -11.5h-10q-36 0 -68 14t-56 38t-38 56t-14 68v352q0 36 14 68t38 56t56 37.5t68 13.5h10q33 0 63 -11.5t53 -31.5t38 -47.5t20 -59.5q1 -5 -2 -8t-6.5 -4t-7 1.5t-4.5 7.5q-4 28 -17.5 52t-34 42t-46.5 28t-56 10h-10
q-32 0 -60.5 -12t-49.5 -33t-33 -49t-12 -60v-352q0 -32 12 -60.5t33 -49.5t49.5 -33t60.5 -12h10q29 0 55.5 10t47 28t34 42t17.5 52q1 5 4.5 7.5t7 1.5t6.5 -4t2 -8z" />
    <glyph glyph-name="D" unicode="D" horiz-adv-x="580"
d="M481 176q0 -36 -13.5 -68t-37.5 -56t-56 -38t-68 -14h-177q-10 0 -10 10v677q0 10 10 10h177q36 0 68 -13.5t56 -37.5t37.5 -56t13.5 -68v-346zM460 522q0 32 -12 60t-33 49t-49 33t-60 12h-166v-655h166q32 0 60 12t49 33t33 49.5t12 60.5v346z" />
    <glyph glyph-name="E" unicode="E" horiz-adv-x="520"
d="M481 10q0 -10 -11 -10h-341q-10 0 -10 10v677q0 10 10 10h341q11 0 11 -10q0 -11 -11 -11h-330v-305h238q11 0 11 -10q0 -4 -3 -7.5t-8 -3.5h-238v-329h330q11 0 11 -11z" />
    <glyph glyph-name="F" unicode="F" horiz-adv-x="481"
d="M481 687q0 -11 -11 -11h-330v-305h238q11 0 11 -10q0 -4 -3 -7.5t-8 -3.5h-238v-343q0 -10 -11 -10q-10 0 -10 10v679q0 11 10 11h341q11 0 11 -10z" />
    <glyph glyph-name="G" unicode="G"
d="M461 173q0 -36 -14 -68t-38 -56t-56 -38t-68 -14h-10q-36 0 -68 14t-56 38t-38 56t-14 68v352q0 36 14 68t38 56t56 37.5t68 13.5h10q37 0 69 -13.5t56 -37.5t37.5 -56t13.5 -68q0 -11 -10 -11q-11 0 -11 11q0 32 -12 60t-33 49t-49 33t-61 12h-10q-32 0 -60.5 -12
t-49.5 -33t-33 -49t-12 -60v-352q0 -32 12 -60.5t33 -49.5t49.5 -33t60.5 -12h10q32 0 60.5 12t49.5 33t33 49.5t12 60.5v158h-170q-11 0 -11 10q0 11 11 11h180q11 0 11 -11v-168v0z" />
    <glyph glyph-name="H" unicode="H" horiz-adv-x="600"
d="M481 7q0 -10 -10.5 -10t-10.5 10v343h-320v-343q0 -11 -10.5 -11t-10.5 11v683q0 10 10.5 10t10.5 -10v-319h320v319q0 10 10.5 10t10.5 -10v-683v0z" />
    <glyph glyph-name="I" unicode="I" horiz-adv-x="285"
d="M153 8q0 -11 -11 -11q-10 0 -10 11v681q0 11 10 11q11 0 11 -11v-681v0z" />
    <glyph glyph-name="J" unicode="J" horiz-adv-x="477"
d="M358 172q0 -36 -14 -68t-38 -56t-56 -37.5t-68 -13.5h-10q-32 0 -60 10.5t-50.5 29t-38.5 43.5t-23 54v3q0 10 11 10q7 0 9 -8q12 -53 53.5 -87t98.5 -34h10q32 0 60.5 12t49.5 33t33 49t12 60v518q0 10 10 10q11 0 11 -10v-518v0z" />
    <glyph glyph-name="K" unicode="K" horiz-adv-x="520"
d="M481 7q0 -5 -3.5 -7.5t-7.5 -2.5q-6 0 -9 6l-192 396l-129 -191v-201q0 -10 -11 -10q-10 0 -10 10v683q0 10 10 10q11 0 11 -10v-445l305 450q4 5 9 5q10 0 10 -10q0 -4 -2 -6l-180 -266l198 -406q1 -2 1 -5z" />
    <glyph glyph-name="L" unicode="L" horiz-adv-x="476"
d="M129 0q-10 0 -10 10v680q0 10 10.5 10t10.5 -10v-669h286q11 0 11 -10.5t-11 -10.5h-297z" />
    <glyph glyph-name="M" unicode="M" horiz-adv-x="704"
d="M585 7q0 -5 -3.5 -7.5t-7.5 -2.5q-10 0 -10 10v651l-197 -435q-2 -4 -4.5 -6t-10.5 -2t-10.5 2t-4.5 6l-197 435v-651q0 -10 -11 -10q-10 0 -10 10v683q0 10 10 10h9q2 0 5.5 -2t4.5 -4l204 -453l204 453q1 2 4 4t5 2h9q11 0 11 -10v-683v0z" />
    <glyph glyph-name="N" unicode="N" horiz-adv-x="575"
d="M456 7q0 -10 -10 -10h-9q-2 0 -5 2t-4 4l-288 655v-651q0 -10 -11 -10q-10 0 -10 10v683q0 10 10 10h9q2 0 5.5 -2t4.5 -4l287 -655v651q0 5 3.5 7.5t7.5 2.5q10 0 10 -10v-683v0z" />
    <glyph glyph-name="O" unicode="O"
d="M461 173q0 -36 -14 -68t-38 -56t-56 -38t-68 -14h-11q-36 0 -68 14t-56 38t-37.5 56t-13.5 68v352q0 36 13.5 68t37.5 56t56 37.5t68 13.5h11q36 0 68 -13.5t56 -37.5t38 -56t14 -68v-352zM440 525q0 32 -12 60t-33 49t-49.5 33t-60.5 12h-11q-32 0 -60 -12t-49 -33
t-33 -49t-12 -60v-352q0 -32 12 -60.5t33 -49.5t49 -33t60 -12h11q32 0 60.5 12t49.5 33t33 49.5t12 60.5v352z" />
    <glyph glyph-name="P" unicode="P" horiz-adv-x="513"
d="M480 522q0 -36 -13.5 -68t-37.5 -56t-56 -37.5t-68 -13.5h-165v-340q0 -10 -11 -10q-10 0 -10 10v680q0 10 10 10h176q36 0 68 -13.5t56 -37.5t37.5 -56t13.5 -68zM459 522q0 32 -12 60t-33 49t-49 33t-60 12h-165v-308h165q32 0 60 12t49 33t33 49t12 60z" />
    <glyph glyph-name="Q" unicode="Q" horiz-adv-x="571"
d="M472 7q0 -10 -11 -10q-4 0 -7 3l-46 47q-24 -23 -55.5 -36.5t-67.5 -13.5h-11q-36 0 -68 14t-56 38t-37.5 56t-13.5 68v352q0 36 13.5 68t37.5 56t56 37.5t68 13.5h11q36 0 68 -13.5t56 -37.5t38 -56t14 -68v-352q0 -32 -10.5 -60t-28.5 -51l47 -47q3 -5 3 -8zM440 525
q0 32 -12 60t-33 49t-49.5 33t-60.5 12h-11q-32 0 -60 -12t-49 -33t-33 -49t-12 -60v-352q0 -32 12 -60.5t33 -49.5t49 -33t60 -12h11q32 0 59.5 12t48.5 32l-44 44q-3 4 -3 7q0 11 11 11q4 0 7 -3l43 -44q33 42 33 96v352z" />
    <glyph glyph-name="R" unicode="R" horiz-adv-x="554"
d="M488 511q0 -35 -12.5 -66.5t-35 -55t-52.5 -38t-65 -16.5l154 -323q1 -2 1 -5q0 -5 -3.5 -7.5t-7.5 -2.5q-6 0 -9 6l-158 332h-160v-328q0 -10 -11 -10q-10 0 -10 10v680q0 10 10 10h183q36 0 68 -13.5t56 -37.5t38 -56t14 -68v-11zM467 522q0 32 -12 60t-32.5 49
t-48.5 33t-60 12h-174v-320h174q32 0 60 12t48.5 33t32.5 49.5t12 60.5v11z" />
    <glyph glyph-name="S" unicode="S" horiz-adv-x="500"
d="M434 162q0 -38 -14 -68.5t-38.5 -52t-57.5 -33t-71 -11.5h-11q-36 0 -68 12t-56 34.5t-38 55t-14 73.5q0 11 10.5 11t10.5 -11q0 -36 12 -65t33 -48.5t49.5 -30t60.5 -10.5h11q34 0 63 10t50.5 28.5t34 45t12.5 60.5q0 57 -25 93t-63 61t-82 44.5t-82 42.5t-63 55t-25 83
q0 36 13.5 65.5t36.5 50.5t54 32t66 11h10q35 0 65.5 -11t53.5 -30.5t36.5 -47t13.5 -60.5q0 -11 -10.5 -11t-10.5 10q0 29 -11.5 52.5t-31.5 40.5t-47 26.5t-58 9.5h-10q-31 0 -58 -9.5t-47.5 -27.5t-32 -44t-11.5 -58q0 -46 25 -75.5t63 -51t82 -41t82 -46t63 -65.5
t25 -99z" />
    <glyph glyph-name="T" unicode="T" horiz-adv-x="383"
d="M202 676v-669q0 -11 -10.5 -11t-10.5 11v669h-151q-11 0 -11 10.5t11 10.5h323q10 0 10 -10.5t-10 -10.5h-151z" />
    <glyph glyph-name="U" unicode="U" horiz-adv-x="600"
d="M481 173q0 -36 -14 -68t-38 -56t-56 -38t-68 -14h-10q-36 0 -68 14t-56 38t-38 56t-14 68v517q0 10 10 10q11 0 11 -10v-517q0 -32 12 -60t33 -49t49.5 -33.5t60.5 -12.5h10q32 0 60.5 12.5t49.5 33.5t33 49t12 60v517q0 10 10 10q11 0 11 -10v-517v0z" />
    <glyph glyph-name="V" unicode="V" horiz-adv-x="464"
d="M249 9q-2 -6 -7 -9t-10 -3t-10 3t-7 9l-162 678v3q0 10 11 10q6 0 9 -8l159 -661l159 661q1 8 9 8q11 0 11 -10v-3z" />
    <glyph glyph-name="W" unicode="W" horiz-adv-x="766"
d="M713 690q0 -1 -0.5 -1.5t-0.5 -1.5l-143 -678q-2 -6 -6.5 -9t-9.5 -3t-10 3t-7 9l-152 657l-152 -657q-2 -6 -8 -9t-11 -3t-10 3t-7 9l-143 678v3q0 10 11 10q8 0 9 -8l140 -661l157 657q2 9 5.5 10.5t8.5 1.5q4 0 8 -1.5t6 -10.5l155 -657l139 661q1 5 4 6.5t6 1.5
q4 0 7.5 -2.5t3.5 -7.5z" />
    <glyph glyph-name="X" unicode="X" horiz-adv-x="504"
d="M438 7q0 -10 -11 -10q-5 0 -9 6l-166 335l-166 -335q-3 -6 -9 -6q-11 0 -11 10q0 3 1 5l174 349l-162 324q0 2 -0.5 2.5t-0.5 2.5q0 5 3.5 7.5t7.5 2.5q6 0 9 -6l154 -310l154 310q3 6 9 6q11 0 11 -10q0 -3 -1 -5l-161 -324l173 -349q1 -2 1 -5z" />
    <glyph glyph-name="Y" unicode="Y" horiz-adv-x="475"
d="M422 690q0 -3 -1 -4l-173 -417v-262q0 -10 -10 -10q-11 0 -11 10v262l-173 417q-1 1 -1 4q0 10 11 10q6 0 9 -6l165 -396l164 396q3 6 9 6q11 0 11 -10z" />
    <glyph glyph-name="Z" unicode="Z" horiz-adv-x="456"
d="M403 10q0 -10 -10 -10h-330q-10 0 -10 10v8q0 4 2 8q1 2 2 2l318 648h-293q-11 0 -11 11q0 10 11 10h306q11 0 11 -10v-8q0 -3 -2 -7q-1 -2 -1 -4l-317 -647h314q10 0 10 -11z" />
    <glyph glyph-name="bracketleft" unicode="[" horiz-adv-x="322"
d="M263 -104q0 -4 -3 -7.5t-8 -3.5h-89q-11 0 -11 11v793q0 11 11 11h89q11 0 11 -10q0 -11 -11 -11h-79v-773h79q11 0 11 -10z" />
    <glyph glyph-name="backslash" unicode="\" horiz-adv-x="334"
d="M343 -103q0 -5 -3.5 -7.5t-7.5 -2.5q-7 0 -10 7l-349 858q-1 3 -1 5q0 5 3.5 8t7.5 3q6 0 10 -7l349 -859q1 -2 1 -5z" />
    <glyph glyph-name="bracketright" unicode="]" horiz-adv-x="322"
d="M170 -104q0 -11 -11 -11h-89q-5 0 -8 3.5t-3 7.5q0 10 11 10h79v773h-79q-11 0 -11 11q0 10 11 10h89q11 0 11 -11v-793v0z" />
    <glyph glyph-name="asciicircum" unicode="^" horiz-adv-x="494"
d="M494 473q0 -4 -3 -7.5t-8 -3.5q-4 0 -7 3l-229 248l-228 -247q-4 -4 -8 -4q-5 0 -8 3.5t-3 7.5t3 7l229 251q6 6 15 6t14 -6l230 -251q3 -3 3 -7z" />
    <glyph glyph-name="underscore" unicode="_" horiz-adv-x="582"
d="M536 10q0 -10 -11 -10h-468q-11 0 -11 10q0 11 11 11h468q11 0 11 -11z" />
    <glyph glyph-name="grave" unicode="`" horiz-adv-x="518"
d="M377 561q0 -2 -2 -6q-3 -5 -8 -5q-4 0 -6 1l-215 129q-5 3 -5 9q0 2 2 6q3 5 8 5q2 0 6 -2l215 -129q5 -3 5 -8z" />
    <glyph glyph-name="a" unicode="a" horiz-adv-x="484"
d="M438 7q0 -10 -10 -10q-32 0 -48.5 22.5t-22.5 55.5q-17 -35 -52 -56.5t-78 -21.5h-12q-30 0 -57.5 9t-47.5 26.5t-32 43.5t-12 59v5q0 44 25 70t61 40.5t76 21.5t69 13q38 8 48.5 25t10.5 35q0 27 -9.5 50t-26.5 39.5t-39.5 26t-48.5 9.5h-8q-35 0 -68 -15.5t-51 -57.5
q-3 -7 -10 -7q-11 0 -11 11q0 3 1 4q11 25 26.5 41.5t34 26.5t38.5 14t40 4h8q30 0 56 -11t45.5 -29.5t31 -44t11.5 -54.5v-246q0 -12 2.5 -27.5t8.5 -29t16 -22.5t25 -9q5 0 7.5 -3.5t2.5 -7.5zM356 289q-9 -8 -22 -14.5t-32 -10.5q-24 -5 -60.5 -11t-71 -18t-59 -34.5
t-24.5 -60.5v-6q0 -55 37 -85.5t91 -30.5h12q27 0 50.5 10t41 27.5t27.5 41t10 50.5v142z" />
    <glyph glyph-name="b" unicode="b" horiz-adv-x="516"
d="M430 148q0 -31 -12 -58.5t-32.5 -48t-48 -32.5t-58.5 -12h-10q-41 0 -75 20.5t-54 52.5v-62q0 -11 -11 -11q-10 0 -10 11v681q0 11 10 11q11 0 11 -11v-271q20 34 54 53.5t75 19.5h10q31 0 58.5 -11.5t48 -32t32.5 -47.5t12 -58v-194zM409 342q0 27 -10.5 50t-28 40.5
t-41 27.5t-50.5 10h-10q-26 0 -49 -9.5t-41 -26t-28.5 -38t-10.5 -46.5v-210q0 -24 10.5 -46t28.5 -39t41 -27t49 -10h10q27 0 50.5 10.5t41 28t28 41t10.5 50.5v194z" />
    <glyph glyph-name="c" unicode="c" horiz-adv-x="463"
d="M397 147q0 -31 -12 -58.5t-32 -47.5t-47.5 -32t-58.5 -12h-11q-31 0 -58.5 12t-47.5 32t-32 47.5t-12 58.5v194q0 31 12 58.5t32 47.5t47.5 32t58.5 12h11q31 0 58 -12t47.5 -32t32.5 -47.5t12 -58.5q0 -5 -3.5 -8t-7.5 -3t-7.5 3t-3.5 8q0 27 -10 50.5t-27.5 41
t-40.5 27.5t-50 10h-11q-27 0 -50.5 -10t-41 -27.5t-27.5 -41t-10 -50.5v-194q0 -27 10 -50.5t27.5 -41t41 -27.5t50.5 -10h11q27 0 50 10t40.5 27.5t27.5 41t10 50.5q0 5 3.5 8t7.5 3t7.5 -3t3.5 -8z" />
    <glyph glyph-name="d" unicode="d" horiz-adv-x="514"
d="M395 8q0 -5 -3.5 -8t-7.5 -3q-10 0 -10 11v62q-20 -32 -54 -52.5t-75 -20.5h-11q-31 0 -58.5 12t-47.5 32.5t-32 48t-12 58.5v194q0 31 12 58t32 47.5t47.5 32t58.5 11.5h11q41 0 75 -19.5t54 -53.5v271q0 11 10 11q4 0 7.5 -3t3.5 -8v-681zM374 350q0 25 -10.5 46.5
t-28.5 38t-41.5 26t-48.5 9.5h-11q-27 0 -50.5 -10t-41 -27.5t-27.5 -40.5t-10 -50v-194q0 -27 10 -50.5t27.5 -41t41 -28t50.5 -10.5h11q25 0 48.5 10t41.5 27t28.5 39t10.5 46v210z" />
    <glyph glyph-name="e" unicode="e" horiz-adv-x="469"
d="M397 246q0 -11 -11 -11h-279v-88q0 -27 10 -50.5t27.5 -41t41 -27.5t50.5 -10h11q42 0 75 25t47 63q1 7 9 7q5 0 8.5 -2.5t3.5 -7.5q0 -1 -0.5 -2t-0.5 -2q-15 -45 -53.5 -73.5t-88.5 -28.5h-11q-31 0 -58.5 12t-47.5 32t-32 47.5t-12 58.5v194q0 31 12 58.5t32.5 47.5
t48 32t58.5 12h8q31 0 58.5 -11t48.5 -31t33 -47.5t12 -60.5v-95zM376 341q0 27 -10 50.5t-27.5 41t-41 27.5t-50.5 10h-10q-27 0 -50.5 -10t-41 -27.5t-28 -41t-10.5 -50.5v-85h269v85z" />
    <glyph glyph-name="f" unicode="f" horiz-adv-x="284"
d="M251 690q0 -11 -11 -11q-41 0 -67 -27.5t-26 -67.5v-116h87q11 0 11 -10q0 -11 -11 -11h-87v-440q0 -10 -10 -10q-11 0 -11 10v440h-56q-11 0 -11 11q0 10 11 10h56v116q0 24 8.5 45.5t23.5 37t36 24.5t46 9q11 0 11 -10z" />
    <glyph glyph-name="g" unicode="g" horiz-adv-x="499"
d="M400 -63q0 -31 -12 -58.5t-32 -47.5t-47.5 -32t-58.5 -12h-11q-26 0 -51 7t-47 19.5t-38 31.5t-23 43q-1 1 -1 4q0 5 3.5 7.5t7.5 2.5q7 0 10 -8q6 -20 19.5 -35.5t32.5 -27t41 -17.5t46 -6h11q27 0 50.5 10t41 27.5t27.5 41t10 50.5v133q-20 -32 -54 -52.5t-75 -20.5
h-11q-31 0 -58.5 12t-47.5 32.5t-32 48t-12 58.5v194q0 31 12 58t32 47.5t47.5 32t58.5 11.5h11q41 0 75 -19.5t54 -53.5v62q0 11 10 11q4 0 7.5 -3t3.5 -8v-543zM379 350q0 25 -10.5 46.5t-28.5 38t-41.5 26t-48.5 9.5h-11q-27 0 -50.5 -10t-41 -27.5t-27.5 -40.5t-10 -50
v-194q0 -27 10 -50.5t27.5 -41t41 -28t50.5 -10.5h11q25 0 48.5 10t41.5 27t28.5 39t10.5 46v210z" />
    <glyph glyph-name="h" unicode="h" horiz-adv-x="509"
d="M430 8q0 -5 -3.5 -8t-7.5 -3q-10 0 -10 11v334q0 27 -10.5 50t-28 40.5t-41 27.5t-50.5 10h-10q-26 0 -49 -9.5t-41 -26t-28.5 -38t-10.5 -46.5v-342q0 -11 -11 -11q-10 0 -10 11v681q0 11 10 11q11 0 11 -11v-271q20 34 54 53.5t75 19.5h10q31 0 58.5 -11.5t48 -32
t32.5 -47.5t12 -58v-334v0z" />
    <glyph glyph-name="i" unicode="i" horiz-adv-x="245"
d="M133 646q0 -11 -11 -11q-10 0 -10 11v42q0 12 10 12q11 0 11 -12v-42zM133 8q0 -11 -11 -11q-10 0 -10 11v472q0 11 10 11q11 0 11 -11v-472z" />
    <glyph glyph-name="j" unicode="j" horiz-adv-x="228"
d="M116 646q0 -11 -11 -11q-10 0 -10 11v42q0 12 10 12q11 0 11 -12v-42zM116 -107q0 -42 -23.5 -74t-68.5 -32h-6q-11 0 -11 10.5t11 10.5h6q24 0 39 11t25 34q7 17 7 40v581q0 11 10.5 11t10.5 -11v-581z" />
    <glyph glyph-name="k" unicode="k" horiz-adv-x="489"
d="M443 480q0 -4 -3 -7l-170 -181l161 -279q2 -4 2 -6q0 -4 -3.5 -7t-7.5 -3q-6 0 -9 5l-159 274l-114 -122v-147q0 -10 -11 -10q-10 0 -10 10v683q0 10 10 10q11 0 11 -10v-505l284 302q3 4 8 4q4 0 7.5 -3t3.5 -8z" />
    <glyph glyph-name="l" unicode="l" horiz-adv-x="292"
d="M239 7q0 -10 -11 -10q-24 0 -45.5 9t-37 25t-24.5 37.5t-9 45.5v575q0 11 10 11q11 0 11 -11v-575q0 -40 27.5 -68t67.5 -28q11 0 11 -11z" />
    <glyph glyph-name="m" unicode="m" horiz-adv-x="786"
d="M700 8q0 -11 -10 -11t-10 11v332q0 27 -10.5 50.5t-28 41.5t-41 28t-50.5 10h-10q-27 0 -50.5 -10.5t-41 -28t-28 -41t-10.5 -50.5v-332q0 -11 -10 -11q-11 0 -11 11v332q0 27 -10 50.5t-27.5 41.5t-41 28t-50.5 10h-10q-27 0 -50.5 -9.5t-41 -26t-28 -38t-10.5 -46.5
v-342q0 -11 -11 -11q-10 0 -10 11v472q0 10 10 10q11 0 11 -10v-62q7 16 20.5 29.5t31 23t37.5 15t41 5.5h10q48 0 85.5 -26.5t54.5 -68.5q17 42 54.5 68.5t85.5 26.5h10q31 0 58.5 -12t47.5 -32t32 -48t12 -59v-332v0z" />
    <glyph glyph-name="n" unicode="n" horiz-adv-x="497"
d="M411 8q0 -5 -3.5 -8t-7.5 -3q-10 0 -10 11v332q0 27 -10.5 50.5t-28 41.5t-41 28t-50.5 10h-10q-27 0 -50.5 -9.5t-41 -26t-28 -38t-10.5 -46.5v-342q0 -11 -11 -11q-10 0 -10 11v472q0 10 10 10q11 0 11 -10v-62q7 16 20.5 29.5t31 23t37.5 15t41 5.5h10q31 0 58.5 -12
t48 -32t32.5 -48t12 -59v-332v0z" />
    <glyph glyph-name="o" unicode="o" horiz-adv-x="483"
d="M397 147q0 -31 -12 -58.5t-32 -47.5t-47.5 -32t-58.5 -12h-11q-31 0 -58.5 12t-47.5 32t-32 47.5t-12 58.5v194q0 31 12 58.5t32 47.5t47.5 32t58.5 12h11q31 0 58 -12t47.5 -32t32.5 -47.5t12 -58.5v-194zM376 341q0 27 -10 50.5t-27.5 41t-41 27.5t-50.5 10h-11
q-27 0 -50.5 -10t-41 -27.5t-27.5 -41t-10 -50.5v-194q0 -27 10 -50.5t27.5 -41t41 -27.5t50.5 -10h11q27 0 50.5 10t41 27.5t27.5 41t10 50.5v194z" />
    <glyph glyph-name="p" unicode="p" horiz-adv-x="496"
d="M410 146q0 -31 -12 -58t-32.5 -47.5t-48 -32t-58.5 -11.5h-10q-41 0 -75 19.5t-54 53.5v-272q0 -11 -11 -11q-10 0 -10 11v682q0 11 10 11q11 0 11 -11v-62q20 32 54 52.5t75 20.5h10q31 0 58.5 -12t48 -32.5t32.5 -48t12 -58.5v-194zM389 340q0 27 -10.5 50.5t-28 41
t-41 28t-50.5 10.5h-10q-26 0 -49 -10t-41 -27t-28.5 -39t-10.5 -46v-210q0 -25 10.5 -46.5t28.5 -38t41 -26t49 -9.5h10q27 0 50.5 10t41 27.5t28 40.5t10.5 50v194z" />
    <glyph glyph-name="q" unicode="q" horiz-adv-x="496"
d="M397 -202q0 -5 -3.5 -8t-7.5 -3q-10 0 -10 11v272q-20 -34 -54 -53.5t-75 -19.5h-11q-31 0 -58.5 11.5t-47.5 32t-32 47.5t-12 58v194q0 31 12 58.5t32 48t47.5 32.5t58.5 12h11q41 0 75 -20.5t54 -52.5v62q0 11 10 11q4 0 7.5 -3t3.5 -8v-682zM376 348q0 24 -10.5 46
t-28.5 39t-41.5 27t-48.5 10h-11q-27 0 -50.5 -10.5t-41 -28t-27.5 -41t-10 -50.5v-194q0 -27 10 -50t27.5 -40.5t41 -27.5t50.5 -10h11q25 0 48.5 9.5t41.5 26t28.5 38t10.5 46.5v210z" />
    <glyph glyph-name="r" unicode="r" horiz-adv-x="334"
d="M308 440q0 -10 -11 -10q-5 0 -8 5q-18 20 -36.5 27.5t-44.5 7.5q-20 0 -36 -8t-27.5 -21t-18 -29t-6.5 -32v-372q0 -11 -11 -11q-10 0 -10 11v472q0 11 10 11q11 0 11 -11v-39q11 22 36.5 36t51.5 14q34 0 57 -11t40 -33q3 -3 3 -7z" />
    <glyph glyph-name="s" unicode="s" horiz-adv-x="451"
d="M392 131q0 -36 -14 -61t-36.5 -41.5t-51 -24t-58.5 -7.5h-9q-22 0 -46.5 7t-47 20t-40.5 31t-28 40q-5 10 5 14.5t15 -5.5q9 -19 25 -34.5t35.5 -27t41 -18t40.5 -6.5h9q28 0 53.5 7t44.5 21t30 35t11 50q0 33 -12.5 54t-33.5 34.5t-47.5 21t-53.5 12.5q-21 4 -47 11.5
t-48 20t-37 32t-15 48.5v9q0 31 13 53t33.5 36t46.5 21t52 7h6q46 0 78.5 -17t55.5 -37q4 -4 4 -8.5t-2.5 -7.5t-7 -3.5t-8.5 3.5q-23 20 -52 34.5t-68 14.5h-6q-21 0 -43.5 -5.5t-40.5 -17t-29.5 -29.5t-11.5 -44v-9q0 -20 11.5 -35t30.5 -26.5t42 -19t46 -12.5
q31 -6 60.5 -14.5t53 -23.5t37.5 -39.5t14 -63.5z" />
    <glyph glyph-name="t" unicode="t" horiz-adv-x="297"
d="M234 -3q-25 0 -46 9t-36.5 25t-24.5 37.5t-9 45.5v354h-54q-11 0 -11 10.5t11 10.5h54v201q0 11 10.5 11t10.5 -11v-201h89q11 0 11 -10.5t-11 -10.5h-89v-354q0 -40 27 -68t68 -28q11 0 11 -10.5t-11 -10.5z" />
    <glyph glyph-name="u" unicode="u" horiz-adv-x="497"
d="M398 8q0 -5 -3.5 -8t-7.5 -3q-10 0 -10 11v62q-7 -16 -20.5 -29.5t-31 -23t-37.5 -15t-41 -5.5h-11q-31 0 -58.5 12t-47.5 32t-32 47.5t-12 59.5v332q0 11 10 11q11 0 11 -11v-332q0 -27 10 -50.5t27.5 -41.5t41 -28t50.5 -10h11q27 0 50.5 9.5t41 26t28 38t10.5 46.5
v342q0 11 10 11q4 0 7.5 -3t3.5 -8v-472v0z" />
    <glyph glyph-name="v" unicode="v" horiz-adv-x="459"
d="M248 11q-3 -10 -9 -12t-10 -2t-9 2t-9 12l-151 466q-1 1 -1 4q0 5 3.5 7.5t7.5 2.5q3 0 6 -1.5t4 -5.5l149 -458l149 458q3 7 10 7q11 0 11 -10v-4z" />
    <glyph glyph-name="w" unicode="w" horiz-adv-x="684"
d="M492 11q-2 -10 -8 -12t-10 -2t-9 2t-8 12l-115 440l-115 -440q-2 -10 -8 -12t-10 -2t-9 2t-8 12l-132 466q-1 1 -1 4q0 5 3.5 7.5t7.5 2.5q3 0 6 -1.5t4 -5.5l129 -457l118 451q3 9 6.5 11t8.5 2q4 0 8.5 -2t6.5 -11l117 -451l129 457q3 7 10 7q11 0 11 -10v-4z" />
    <glyph glyph-name="x" unicode="x" horiz-adv-x="445"
d="M385 8q0 -5 -3.5 -8t-8.5 -3t-8 5l-143 230l-143 -230q-3 -5 -9 -5q-4 0 -7.5 3t-3.5 8q0 2 2 6l148 238l-138 222q-1 2 -1 6q0 11 11 11q4 0 9 -5l132 -214l132 214q3 5 9 5q11 0 11 -11q0 -4 -2 -6l-138 -222l149 -238q2 -4 2 -6z" />
    <glyph glyph-name="y" unicode="y" horiz-adv-x="410"
d="M364 477q-11 -34 -25 -76.5t-29 -90t-31 -96.5t-31 -95q-35 -108 -72 -224q-19 -59 -46.5 -83.5t-72.5 -24.5q-11 0 -11 10t11 10q34 0 57.5 22t40.5 73l49 147l-149 428q-1 1 -1 4q0 5 3.5 7.5t7.5 2.5q7 0 10 -7l140 -401l128 400q3 8 10 8q11 0 11 -10v-4v0z" />
    <glyph glyph-name="z" unicode="z" horiz-adv-x="424"
d="M371 10q0 -10 -11 -10h-297q-4 0 -7 3.5t-3 7.5v6q0 4 2 8q1 2 2 3l283 439h-263q-10 0 -10 11q0 10 10 10h276q5 0 7.5 -3.5t2.5 -7.5v-6q0 -4 -2 -8q-1 -2 -1 -4l-281 -438h281q11 0 11 -11z" />
    <glyph glyph-name="braceleft" unicode="{" horiz-adv-x="337"
d="M285 -93q0 -10 -11 -10q-38 0 -60.5 9.5t-33.5 26.5t-14 40t-3 49v235q0 25 -10.5 36.5t-25.5 26.5q-10 10 -15.5 14.5t-5.5 13.5q0 10 5.5 14.5t15.5 14.5q15 15 25.5 26.5t10.5 36.5v195q0 26 3 49t14 40t33.5 26.5t60.5 9.5q11 0 11 -10q0 -11 -11 -11q-31 0 -49 -7
t-27 -20t-11.5 -32.5t-2.5 -44.5v-195q0 -19 -5.5 -32.5t-14 -24t-18 -18.5t-18.5 -17q9 -8 18.5 -16.5t18 -18.5t14 -23.5t5.5 -32.5v-235q0 -25 2.5 -44.5t11.5 -32.5t27 -20t49 -7q11 0 11 -11z" />
    <glyph glyph-name="bar" unicode="|" horiz-adv-x="443"
d="M232 -146q0 -11 -11 -11q-10 0 -10 11v903q0 11 10 11q11 0 11 -11v-903v0z" />
    <glyph glyph-name="braceright" unicode="}" horiz-adv-x="337"
d="M232 348q0 -9 -5.5 -13.5t-15.5 -14.5q-15 -15 -25.5 -26.5t-10.5 -36.5v-235q0 -26 -3 -49t-14.5 -40t-33.5 -26.5t-60 -9.5q-11 0 -11 10q0 11 11 11q31 0 49 7t27 20t11.5 32.5t2.5 44.5v235q0 19 5.5 32.5t14 23.5t18 18.5t18.5 16.5q-9 9 -18.5 17t-18 18.5t-14 24
t-5.5 32.5v190q0 25 -2.5 44.5t-11.5 32.5t-27 20t-49 7q-11 0 -11 11q0 10 11 10q38 0 60 -9.5t33.5 -26.5t14.5 -40t3 -49v-190q0 -25 10.5 -36.5t25.5 -26.5q10 -10 15.5 -14.5t5.5 -14.5z" />
    <glyph glyph-name="asciitilde" unicode="~" horiz-adv-x="494"
d="M397 547q-15 -11 -32.5 -19t-49.5 -8q-19 0 -38 5t-37 10.5t-34.5 10.5t-31.5 5q-19 0 -35.5 -10t-26.5 -21q-10 -10 -18.5 -3t0.5 17q18 20 40 29t43 9q16 0 33 -5t34.5 -10.5t35.5 -10.5t35 -5q26 0 43.5 8.5t25.5 15.5q5 4 10 3.5t7.5 -4t2 -8.5t-6.5 -9z" />
    <glyph glyph-name="nonbreakingspace" unicode="&#xa0;" horiz-adv-x="382"
 />
    <glyph glyph-name="exclamdown" unicode="&#xa1;" horiz-adv-x="259"
d="M140 650q0 -10 -11 -10q-10 0 -10 10v39q0 11 10 11q4 0 7.5 -3t3.5 -8v-39zM140 7q0 -10 -11 -10q-10 0 -10 10v504q0 10 10 10q11 0 11 -10v-504z" />
    <glyph glyph-name="cent" unicode="&#xa2;" horiz-adv-x="483"
d="M403 147q0 -30 -11.5 -57t-31 -47.5t-46.5 -32.5t-57 -13v-53q0 -11 -10 -11q-4 0 -7.5 3t-3.5 8v53q-30 1 -56.5 13t-46 32.5t-30.5 47.5t-11 57v194q0 30 11 57t30.5 47t46 32.5t56.5 13.5v66q0 5 3.5 7.5t7.5 2.5q10 0 10 -10v-66q30 -1 57 -13t46.5 -32.5t31 -47
t11.5 -57.5q0 -5 -3.5 -8t-7.5 -3t-7.5 3t-3.5 8q0 27 -10 50.5t-27.5 41t-40.5 27.5t-50 10h-11q-27 0 -50.5 -10t-41 -27.5t-27.5 -41t-10 -50.5v-194q0 -27 10 -50.5t27.5 -41t41 -27.5t50.5 -10h11q27 0 50 10t40.5 27.5t27.5 41t10 50.5q0 5 3.5 8t7.5 3t7.5 -3t3.5 -8
z" />
    <glyph glyph-name="sterling" unicode="&#xa3;" horiz-adv-x="471"
d="M464 118q0 -33 -13 -55.5t-34.5 -36.5t-48.5 -20t-54 -6h-240q-10 0 -12 12t6 17q44 23 67 56t29.5 72t-1.5 83.5t-25 91.5h-102q-5 0 -7.5 3.5t-2.5 7t2.5 7t7.5 3.5h93q-8 22 -18 47t-18.5 50.5t-14 49.5t-5.5 42v14q0 30 12 56t33 45.5t48 31t57 11.5h17q27 0 52 -9.5
t45 -26.5t33 -40t16 -50q1 -5 -2 -8t-7 -3.5t-7.5 2t-4.5 7.5q-3 22 -13.5 41.5t-27.5 34t-38.5 23t-45.5 8.5h-17q-25 0 -48.5 -9.5t-41.5 -26t-28.5 -39t-10.5 -48.5v-14q0 -17 6 -41t15 -50t19 -51.5t18 -46.5h127q11 0 11 -10.5t-11 -10.5h-119q14 -38 22 -83t3 -88
t-26.5 -80t-65.5 -60h221q1 0 11 0.5t24.5 3t31 8.5t30.5 17t23.5 27.5t9.5 40.5q0 10 10 10t10 -10z" />
    <glyph glyph-name="yen" unicode="&#xa5;" horiz-adv-x="475"
d="M422 690q0 -3 -1 -4l-167 -403h122q10 0 10 -11q0 -10 -10 -10h-128v-73h128q10 0 10 -11q0 -10 -10 -10h-128v-161q0 -10 -10 -10q-11 0 -11 10v161h-128q-11 0 -11 10q0 11 11 11h128v73h-128q-11 0 -11 10q0 11 11 11h122l-167 403q-1 1 -1 4q0 10 11 10q6 0 9 -6
l165 -396l164 396q3 6 9 6q11 0 11 -10z" />
    <glyph glyph-name="brokenbar" unicode="&#xa6;" horiz-adv-x="272"
d="M146 418q0 -11 -11 -11q-10 0 -10 11v271q0 11 10 11q11 0 11 -11v-271zM146 8q0 -11 -11 -11q-10 0 -10 11v271q0 11 10 11q11 0 11 -11v-271z" />
    <glyph glyph-name="section" unicode="&#xa7;" horiz-adv-x="478"
d="M385 258q0 -44 -30 -79q-14 -18 -42.5 -32.5t-57.5 -14.5l58 -53q29 -26 47 -51t18 -67q0 -34 -12.5 -58.5t-32.5 -40.5t-46 -24t-53 -8t-52.5 7.5t-45.5 21.5t-32 35.5t-12 48.5q0 10 11 10q10 0 10 -10q0 -22 10.5 -39t27.5 -29t38.5 -18t44.5 -6t45 6.5t39.5 20t28 34
t10.5 49.5q0 38 -15.5 59.5t-41.5 44.5l-165 147q-21 19 -30.5 39.5t-9.5 41.5q0 22 8.5 43t22.5 38q16 19 43.5 33t51.5 14h2q-24 22 -44.5 39t-34.5 34.5t-22 38.5t-8 52q0 20 7 40.5t22 37t39.5 27t59.5 10.5q27 0 49 -9t38 -24t25 -34.5t11 -40.5v-2q0 -10 -11 -10
q-3 0 -6 2.5t-4 7.5q-4 42 -34 65.5t-69 23.5q-28 0 -48 -8.5t-33 -22t-19.5 -30t-6.5 -33.5q0 -21 4.5 -37t14.5 -30t25.5 -29.5t37.5 -34.5l129 -113q22 -19 31 -40t9 -43zM364 258q0 19 -8 37t-27 34l-85 72q-2 0 -5 0.5t-7 0.5q-23 0 -49.5 -12.5t-40.5 -29.5
q-12 -15 -19 -31.5t-7 -33.5q0 -18 8 -35.5t26 -33.5l86 -74q3 -1 10 -1q22 0 50.5 12t42.5 29q25 31 25 66z" />
    <glyph glyph-name="dieresis" unicode="&#xa8;" horiz-adv-x="524"
d="M372 646q0 -11 -10 -11q-4 0 -7.5 2.5t-3.5 8.5v42q0 6 3.5 9t7.5 3q10 0 10 -12v-42zM173 646q0 -6 -3.5 -8.5t-7.5 -2.5q-10 0 -10 11v42q0 12 10 12q4 0 7.5 -3t3.5 -9v-42z" />
    <glyph glyph-name="copyright" unicode="&#xa9;" horiz-adv-x="939"
d="M840 329q0 -77 -29 -144.5t-79 -117.5t-117.5 -79t-145.5 -29q-76 0 -143.5 29t-117.5 79t-79.5 117.5t-29.5 144.5t29.5 144.5t79.5 118t117.5 79.5t143.5 29q78 0 145.5 -29t117.5 -79.5t79 -118t29 -144.5zM819 329q0 73 -27 136.5t-74.5 111t-111.5 75t-137 27.5
q-72 0 -135.5 -27.5t-111 -75t-75 -111t-27.5 -136.5q0 -72 27.5 -136t75 -111t111 -74.5t135.5 -27.5q73 0 137 27.5t111.5 74.5t74.5 111t27 136zM587 196l-1 -2q-5 -40 -36 -66.5t-72 -26.5h-6q-23 0 -43 8.5t-35 23.5t-23.5 34.5t-8.5 42.5v235q0 22 8.5 42t23.5 35
t35 23.5t43 8.5h6q21 0 39.5 -7t32.5 -20t23.5 -30t12.5 -37v-1q0 -10 -10 -10q-9 0 -10 8q-5 33 -29.5 54.5t-58.5 21.5h-6q-37 0 -63 -25.5t-26 -62.5v-235q0 -37 26 -62.5t63 -25.5h6q34 0 58.5 21.5t29.5 53.5q1 9 10 9q4 0 7.5 -2.5t3.5 -7.5z" />
    <glyph glyph-name="ordfeminine" unicode="&#xaa;" horiz-adv-x="341"
d="M281 402q0 -10 -10 -10q-20 0 -31.5 11t-11.5 26v1q-12 -17 -30.5 -27.5t-41.5 -10.5h-7q-17 0 -33 5t-28.5 15.5t-20.5 26.5t-8 37v3q0 31 17.5 47.5t42 25.5t50 13t41.5 12q11 5 13.5 12t2.5 14q0 35 -19.5 55.5t-47.5 20.5h-5q-19 0 -36.5 -8.5t-28.5 -31.5
q-3 -6 -9 -6q-4 0 -7.5 2.5t-3.5 7.5q0 3 1 5q14 30 37.5 41t46.5 11h5q17 0 33 -7t28 -20t19.5 -30t7.5 -37v-155q0 -21 4.5 -29.5t18.5 -8.5q11 0 11 -11zM226 562q-15 -9 -39.5 -14t-48.5 -11.5t-41 -19.5t-17 -38v-3q0 -30 19.5 -46.5t49.5 -16.5h7q29 0 49.5 20.5
t20.5 49.5v79z" />
    <glyph glyph-name="guillemotleft" unicode="&#xab;" horiz-adv-x="604"
d="M472 81q0 -7 -2 -10q-2 -2 -9 -2q-2 0 -4 2t-6 5l-182 170q-2 2 -4.5 7t-2.5 10t2.5 10t4.5 7l182 170q4 3 6 5t4 2q7 0 9 -2q2 -3 2 -10q0 -3 -7 -10l-184 -172l184 -172q7 -7 7 -10zM276 81q0 -7 -3 -9q-3 -3 -9 -3q-4 0 -11 7l-181 170q-6 6 -6 17t6 17l181 170
q7 7 11 7q6 0 9 -3q3 -2 3 -9q0 -3 -9 -10l-183 -172l183 -172q9 -8 9 -10z" />
    <glyph glyph-name="logicalnot" unicode="&#xac;" horiz-adv-x="436"
d="M337 258q0 -10 -10 -10q-11 0 -11 10v92h-232q-5 0 -8 3.5t-3 7.5q0 10 11 10h243q10 0 10 -10v-103v0z" />
    <glyph glyph-name="registered" unicode="&#xae;" horiz-adv-x="939"
d="M840 329q0 -77 -29 -144.5t-79 -117.5t-117.5 -79t-145.5 -29q-76 0 -143.5 29t-117.5 79t-79.5 117.5t-29.5 144.5t29.5 144.5t79.5 118t117.5 79.5t143.5 29q78 0 145.5 -29t117.5 -79.5t79 -118t29 -144.5zM819 329q0 73 -27 136.5t-74.5 111t-111.5 75t-137 27.5
q-72 0 -135.5 -27.5t-111 -75t-75 -111t-27.5 -136.5q0 -72 27.5 -136t75 -111t111 -74.5t135.5 -27.5q73 0 137 27.5t111.5 74.5t74.5 111t27 136zM600 435q0 -22 -8 -41.5t-21.5 -35t-31.5 -25.5t-39 -12l95 -205q1 -2 1 -5q0 -10 -11 -10q-7 0 -9 6l-98 213h-89v-209
q0 -10 -11 -10q-10 0 -10 10v429q0 9 4 11.5t10 2.5h107q23 0 43.5 -9t35.5 -24.5t23.5 -36t8.5 -43.5v-6zM579 441q0 18 -7 35t-19 29.5t-28.5 20t-35.5 7.5h-100v-192h99q42 0 66.5 28t24.5 66v6z" />
    <glyph glyph-name="macron" unicode="&#xaf;" horiz-adv-x="482"
d="M416 690q0 -11 -11 -11h-328q-11 0 -11 11q0 10 11 10h328q11 0 11 -10z" />
    <glyph glyph-name="degree" unicode="&#xb0;" horiz-adv-x="285"
d="M236 609q0 -38 -26.5 -64.5t-64.5 -26.5t-64.5 26.5t-26.5 64.5q0 19 7 35.5t19.5 29t29 19.5t35.5 7q38 0 64.5 -26.5t26.5 -64.5zM216 609q0 29 -21 50t-50 21t-50 -21t-21 -50t21 -50t50 -21t50 21t21 50z" />
    <glyph glyph-name="plusminus" unicode="&#xb1;"
d="M461 313q0 -10 -11 -10h-160v-160q0 -11 -10 -11q-4 0 -7.5 3t-3.5 8v160h-159q-11 0 -11 10q0 4 3 7.5t8 3.5h159v159q0 5 3.5 8t7.5 3q10 0 10 -11v-159h160q5 0 8 -3.5t3 -7.5zM429 10q0 -10 -10 -10h-279q-11 0 -11 10q0 11 11 11h279q10 0 10 -11z" />
    <glyph glyph-name="twosuperior" unicode="&#xb2;" horiz-adv-x="409"
d="M304 295q0 -10 -10 -10h-177q-11 0 -11 10v8q0 6 7 16l146 243q6 11 10 23t4 25v8q0 25 -19.5 43t-45.5 18h-9q-26 0 -44 -17.5t-18 -43.5v-7q0 -10 -11 -10q-10 0 -10 10v7q0 35 24 58.5t59 23.5h9q35 0 60.5 -23.5t25.5 -58.5v-8q0 -16 -4.5 -29.5t-13.5 -28.5
l-148 -246h166q10 0 10 -11z" />
    <glyph glyph-name="threesuperior" unicode="&#xb3;" horiz-adv-x="388"
d="M283 368q0 -35 -24 -59t-59 -24h-11q-35 0 -59 24t-24 59q0 11 11 11q10 0 10 -11q0 -26 18 -44t44 -18h11q26 0 44 18t18 44v49q0 48 -19 61.5t-60 13.5q-11 0 -11 11q0 10 11 10q13 0 27.5 1.5t25.5 8.5t18.5 21.5t7.5 41.5v32q0 30 -20 45.5t-45 15.5q-24 0 -44 -15
t-20 -46q0 -5 -3.5 -7.5t-7.5 -2.5q-10 0 -10 10q0 21 7 36t19 25.5t27.5 15.5t31.5 5t31.5 -5t27.5 -15.5t19.5 -26t7.5 -35.5v-32q0 -36 -11.5 -55.5t-29.5 -27.5q27 -11 34 -35.5t7 -51.5v-48v0z" />
    <glyph glyph-name="acute" unicode="&#xb4;" horiz-adv-x="518"
d="M377 689q0 -6 -5 -9l-215 -129q-2 -1 -6 -1q-5 0 -8 5q-2 4 -2 6q0 5 5 8l215 129q4 2 6 2q5 0 8 -5q2 -4 2 -6z" />
    <glyph glyph-name="mu" unicode="&#xb5;" horiz-adv-x="503"
d="M411 8q0 -5 -3.5 -8t-7.5 -3q-10 0 -10 11v62q-7 -16 -20.5 -29.5t-31 -23t-37.5 -15t-41 -5.5h-10q-21 0 -41 5.5t-37.5 15t-31 23t-20.5 29.5v-272q0 -11 -11 -11q-10 0 -10 11v682q0 11 10 11q11 0 11 -11v-342q0 -25 10.5 -46.5t28 -38t41 -26t50.5 -9.5h10
q27 0 50.5 9.5t41 26t28 38t10.5 46.5v342q0 11 10 11q4 0 7.5 -3t3.5 -8v-472v0z" />
    <glyph glyph-name="mu" unicode="&#x3bc;" horiz-adv-x="503"
d="M411 8q0 -5 -3.5 -8t-7.5 -3q-10 0 -10 11v62q-7 -16 -20.5 -29.5t-31 -23t-37.5 -15t-41 -5.5h-10q-21 0 -41 5.5t-37.5 15t-31 23t-20.5 29.5v-272q0 -11 -11 -11q-10 0 -10 11v682q0 11 10 11q11 0 11 -11v-342q0 -25 10.5 -46.5t28 -38t41 -26t50.5 -9.5h10
q27 0 50.5 9.5t41 26t28 38t10.5 46.5v342q0 11 10 11q4 0 7.5 -3t3.5 -8v-472v0z" />
    <glyph glyph-name="paragraph" unicode="&#xb6;" horiz-adv-x="488"
d="M369 -69q0 -5 -3.5 -7.5t-7.5 -2.5q-10 0 -10 10v745h-78v-745q0 -10 -11 -10q-10 0 -10 10v416h-47q-36 0 -68 13.5t-56 37.5t-38 56t-14 68t14 68t38 56t56 37.5t68 13.5h156q11 0 11 -11v-755zM249 676h-47q-32 0 -60.5 -12t-49.5 -33t-33 -49t-12 -60t12 -60t33 -49
t49.5 -33t60.5 -12h47v308z" />
    <glyph glyph-name="periodcentered" unicode="&#xb7;" horiz-adv-x="166"
d="M94 341q0 -12 -11 -12q-10 0 -10 12v42q0 11 10 11q11 0 11 -11v-42v0z" />
    <glyph glyph-name="cedilla" unicode="&#xb8;" horiz-adv-x="548"
d="M346 -89q0 -28 -20 -47.5t-48 -19.5h-11q-23 0 -40.5 14t-23.5 34q-3 11 7 13.5t13 -7.5q4 -14 16 -23.5t28 -9.5h11q20 0 33.5 13.5t13.5 32.5v11q0 20 -13.5 33.5t-33.5 13.5h-5q-10 0 -10 10v79q0 10 10 10q11 0 11 -10v-69q26 -2 44 -21.5t18 -45.5v-11v0z" />
    <glyph glyph-name="onesuperior" unicode="&#xb9;" horiz-adv-x="318"
d="M213 295q0 -10 -10 -10q-11 0 -11 10v373l-67 -74q-3 -4 -8 -4q-11 0 -11 10q0 5 2 7l74 83q1 2 4 6t11 4h6q10 0 10 -11v-394v0z" />
    <glyph glyph-name="ordmasculine" unicode="&#xba;" horiz-adv-x="307"
d="M247 483q0 -38 -26.5 -64.5t-64.5 -26.5h-6q-38 0 -64.5 26.5t-26.5 64.5v126q0 19 7 35.5t19.5 29t29 19.5t35.5 7h6q19 0 35.5 -7t29 -19.5t19.5 -29t7 -35.5v-126zM226 609q0 29 -20.5 49.5t-49.5 20.5h-6q-29 0 -49.5 -20.5t-20.5 -49.5v-126q0 -29 20.5 -49.5
t49.5 -20.5h6q29 0 49.5 20.5t20.5 49.5v126z" />
    <glyph glyph-name="guillemotright" unicode="&#xbb;" horiz-adv-x="604"
d="M538 263q0 -11 -6 -17l-181 -170q-7 -7 -11 -7q-6 0 -9 3q-3 2 -3 9q0 2 9 10l183 172l-183 172q-9 7 -9 10q0 7 3 9q3 3 9 3q4 0 11 -7l181 -170q6 -6 6 -17zM342 263q0 -5 -2.5 -10t-4.5 -7l-182 -170q-4 -3 -6 -5t-4 -2q-7 0 -9 2q-2 3 -2 10q0 3 7 10l184 172
l-184 172q-7 7 -7 10q0 7 2 10q2 2 9 2q2 0 4 -2t6 -5l182 -170q2 -2 4.5 -7t2.5 -10z" />
    <glyph glyph-name="onequarter" unicode="&#xbc;" horiz-adv-x="877"
d="M772 121q0 -11 -11 -11h-64v-102q0 -11 -10 -11t-10 11v102h-127q-15 0 -15 13q0 4 3 10l135 273q3 6 10 6q4 0 7.5 -2.5t3.5 -7.5q0 -1 -0.5 -2t-0.5 -2l-133 -267h117v67q0 10 10 10t10 -10v-67h64q11 0 11 -10zM620 690q0 -4 -1 -6l-410 -682q-3 -5 -8 -5
q-11 0 -11 10q0 5 1 6l409 682q5 5 9 5q11 0 11 -10zM213 295q0 -10 -10 -10q-11 0 -11 10v373l-67 -74q-3 -4 -8 -4q-11 0 -11 10q0 5 2 7l74 83q1 2 4 6t11 4h6q10 0 10 -11v-394z" />
    <glyph glyph-name="onehalf" unicode="&#xbd;" horiz-adv-x="855"
d="M750 10q0 -10 -10 -10h-177q-11 0 -11 11v7q0 6 7 16l146 244q6 11 10 22.5t4 24.5v8q0 26 -19.5 43.5t-45.5 17.5h-9q-26 0 -44 -17.5t-18 -43.5v-7q0 -10 -11 -10q-10 0 -10 10v7q0 35 24 58.5t59 23.5h9q35 0 60.5 -23.5t25.5 -58.5v-8q0 -16 -4.5 -29.5t-13.5 -28.5
l-148 -246h166q10 0 10 -11zM620 690q0 -4 -1 -6l-410 -682q-3 -5 -8 -5q-11 0 -11 10q0 5 1 6l409 682q5 5 9 5q11 0 11 -10zM213 295q0 -10 -10 -10q-11 0 -11 10v373l-67 -74q-3 -4 -8 -4q-11 0 -11 10q0 5 2 7l74 83q1 2 4 6t11 4h6q10 0 10 -11v-394z" />
    <glyph glyph-name="threequarters" unicode="&#xbe;" horiz-adv-x="948"
d="M843 121q0 -11 -11 -11h-63v-102q0 -6 -3.5 -8.5t-7.5 -2.5q-10 0 -10 11v102h-127q-14 0 -14 13q0 6 2 10l135 273q4 6 10 6q11 0 11 -10q0 -3 -1 -4l-132 -267h116v67q0 10 10 10q4 0 7.5 -2.5t3.5 -7.5v-67h63q11 0 11 -10zM691 690q0 -4 -1 -6l-409 -682q-5 -5 -9 -5
q-11 0 -11 10q0 5 1 6l410 682q2 5 8 5q11 0 11 -10zM283 368q0 -35 -24 -59t-59 -24h-11q-35 0 -59 24t-24 59q0 11 11 11q10 0 10 -11q0 -26 18 -44t44 -18h11q26 0 44 18t18 44v49q0 48 -19 61.5t-60 13.5q-11 0 -11 11q0 10 11 10q13 0 27.5 1.5t25.5 8.5t18.5 21.5
t7.5 41.5v32q0 30 -20 45.5t-45 15.5q-24 0 -44 -15t-20 -46q0 -5 -3.5 -7.5t-7.5 -2.5q-10 0 -10 10q0 21 7 36t19 25.5t27.5 15.5t31.5 5t31.5 -5t27.5 -15.5t19.5 -26t7.5 -35.5v-32q0 -36 -11.5 -55.5t-29.5 -27.5q27 -11 34 -35.5t7 -51.5v-48z" />
    <glyph glyph-name="questiondown" unicode="&#xbf;" horiz-adv-x="388"
d="M228 646q0 -11 -10 -11q-11 0 -11 11v42q0 12 11 12q10 0 10 -12v-42zM362 141q0 -30 -11.5 -56.5t-31 -46t-46 -30.5t-56.5 -11h-6q-30 0 -56.5 11t-46 30.5t-31 46t-11.5 56.5v37q0 37 19 62.5t37 41.5q20 17 35.5 30t26.5 28t17 34t6 48v78q0 10 11 10q10 0 10 -10
v-78q0 -33 -6.5 -54.5t-18.5 -37.5t-29 -30t-38 -32q-16 -14 -32.5 -36t-16.5 -54v-37q0 -26 9.5 -48t26.5 -39t39.5 -26.5t48.5 -9.5h6q26 0 48.5 9.5t39.5 26.5t26.5 39t9.5 48v14q0 11 11 11q10 0 10 -11v-14z" />
    <glyph glyph-name="Agrave" unicode="&#xc0;" horiz-adv-x="548"
d="M411 760q0 -4 -1 -5q-4 -6 -9 -6q-2 0 -6 2l-214 129q-6 3 -6 9q0 3 2 5q3 5 9 5q4 0 6 -1l214 -129q5 -3 5 -9zM509 7q0 -10 -11 -10q-8 0 -9 7l-62 190h-305l-62 -190q-1 -7 -9 -7q-11 0 -11 10q0 2 1 3l221 683q3 7 13 7t12 -7l221 -683q1 -1 1 -3zM275 664l-146 -449
h291z" />
    <glyph glyph-name="Aacute" unicode="&#xc1;" horiz-adv-x="515"
d="M383 889q0 -6 -5 -9l-214 -129q-4 -2 -6 -2q-5 0 -9 6q-1 1 -1 5q0 6 5 9l214 129q4 2 6 2q5 0 9 -6q1 -1 1 -5zM509 7q0 -10 -11 -10q-8 0 -9 7l-62 190h-305l-62 -190q-1 -7 -9 -7q-11 0 -11 10q0 2 1 3l221 683q3 7 13 7t12 -7l221 -683q1 -1 1 -3zM275 664l-146 -449
h291z" />
    <glyph glyph-name="Acircumflex" unicode="&#xc2;" horiz-adv-x="548"
d="M401 812q0 -4 -3 -8.5t-8 -4.5q-2 0 -6 2l-109 73l-109 -73q-6 -2 -7 -2q-5 0 -8 4.5t-3 8.5q0 5 5 8l113 77q2 1 4.5 2t4.5 1t4 -1l4 -2l113 -77q5 -3 5 -8zM509 7q0 -10 -11 -10q-8 0 -9 7l-62 190h-305l-62 -190q-1 -7 -9 -7q-11 0 -11 10q0 2 1 3l221 683q3 7 13 7
t12 -7l221 -683q1 -1 1 -3zM275 664l-146 -449h291z" />
    <glyph glyph-name="Atilde" unicode="&#xc3;" horiz-adv-x="548"
d="M427 875q-15 -11 -33 -19t-50 -8q-19 0 -38 5t-37 10.5t-34.5 10.5t-30.5 5q-19 0 -35.5 -10.5t-26.5 -20.5q-11 -10 -19 -3t1 17q19 20 40.5 29t41.5 9q16 0 33.5 -5t35 -10.5t35.5 -10.5t35 -5q26 0 43 8.5t26 15.5q4 4 9 3t8 -4t2.5 -8t-6.5 -9zM509 7q0 -10 -11 -10
q-8 0 -9 7l-62 190h-305l-62 -190q-1 -7 -9 -7q-11 0 -11 10q0 2 1 3l221 683q3 7 13 7t12 -7l221 -683q1 -1 1 -3zM275 664l-146 -449h291z" />
    <glyph glyph-name="Adieresis" unicode="&#xc4;" horiz-adv-x="548"
d="M383 846q0 -6 -3.5 -9t-7.5 -3q-10 0 -10 12v42q0 12 10 12q4 0 7.5 -3t3.5 -9v-42zM183 846q0 -12 -10 -12q-11 0 -11 12v42q0 12 11 12q10 0 10 -12v-42zM509 7q0 -10 -11 -10q-8 0 -9 7l-62 190h-305l-62 -190q-1 -7 -9 -7q-11 0 -11 10q0 2 1 3l221 683q3 7 13 7
t12 -7l221 -683q1 -1 1 -3zM275 664l-146 -449h291z" />
    <glyph glyph-name="Aring" unicode="&#xc5;" horiz-adv-x="548"
d="M345 829q0 -29 -20.5 -49.5t-49.5 -20.5t-50 20.5t-21 49.5t21 50t50 21t49.5 -21t20.5 -50zM509 7q0 -10 -11 -10q-8 0 -9 7l-62 190h-305l-62 -190q-1 -7 -9 -7q-11 0 -11 10q0 2 1 3l221 683q3 7 13 7t12 -7l221 -683q1 -1 1 -3zM324 829q0 20 -14.5 35t-34.5 15
q-21 0 -35.5 -15t-14.5 -35t14.5 -34.5t35.5 -14.5q20 0 34.5 14.5t14.5 34.5zM275 664l-146 -449h291z" />
    <glyph glyph-name="AE" unicode="&#xc6;" horiz-adv-x="714"
d="M675 10q0 -10 -11 -10h-289q-11 0 -11 10v210h-233l-71 -216q-1 -7 -9 -7q-11 0 -11 10q0 2 1 3l221 680q3 7 13 7h389q11 0 11 -10q0 -11 -11 -11h-279v-305h188q10 0 10 -10q0 -4 -2.5 -7.5t-7.5 -3.5h-188v-329h279q11 0 11 -11zM364 676h-84l-143 -435h227v435z" />
    <glyph glyph-name="Ccedilla" unicode="&#xc7;" horiz-adv-x="512"
d="M459 147q-5 -32 -20 -59t-37.5 -47t-52 -32t-62.5 -12v-45q26 -2 44 -21.5t18 -45.5v-11q0 -28 -19.5 -47.5t-47.5 -19.5h-11q-23 0 -40.5 13.5t-24.5 34.5q-2 11 7.5 13.5t12.5 -7.5q5 -14 17 -23.5t28 -9.5h11q19 0 32.5 13t13.5 33v11q0 20 -13.5 33t-32.5 13h-5
q-10 0 -10 11v55q-35 2 -66 16.5t-53.5 38t-35.5 55t-13 66.5v352q0 36 14 68t38 56t56 37.5t68 13.5h10q33 0 63 -11.5t53 -31.5t38 -47.5t20 -59.5q1 -5 -2 -8t-6.5 -4t-7 1.5t-4.5 7.5q-4 28 -17.5 52t-34 42t-46.5 28t-56 10h-10q-32 0 -60.5 -12t-49.5 -33t-33 -49
t-12 -60v-352q0 -32 12 -60.5t33 -49.5t49.5 -33t60.5 -12h10q29 0 55.5 10t47 28t34 42t17.5 52q1 5 4.5 7.5t7 1.5t6.5 -4t2 -8z" />
    <glyph glyph-name="Egrave" unicode="&#xc8;" horiz-adv-x="520"
d="M418 760q0 -4 -1 -5q-4 -6 -9 -6q-2 0 -6 2l-214 129q-6 3 -6 9q0 3 2 5q3 5 9 5q4 0 6 -1l214 -129q5 -3 5 -9zM481 10q0 -10 -11 -10h-341q-10 0 -10 10v677q0 10 10 10h341q11 0 11 -10q0 -11 -11 -11h-330v-305h238q11 0 11 -10q0 -4 -3 -7.5t-8 -3.5h-238v-329h330
q11 0 11 -11z" />
    <glyph glyph-name="Eacute" unicode="&#xc9;" horiz-adv-x="520"
d="M404 889q0 -7 -5 -9l-214 -129q-4 -2 -6 -2q-5 0 -9 6q-1 1 -1 5q0 6 5 9l214 129q4 2 6 2q5 0 9 -6q1 -1 1 -5zM481 10q0 -10 -11 -10h-341q-10 0 -10 10v677q0 10 10 10h341q11 0 11 -10q0 -11 -11 -11h-330v-305h238q11 0 11 -10q0 -4 -3 -7.5t-8 -3.5h-238v-329h330
q11 0 11 -11z" />
    <glyph glyph-name="Ecircumflex" unicode="&#xca;" horiz-adv-x="520"
d="M419 812q0 -4 -3 -8.5t-8 -4.5q-1 0 -7 2l-108 73l-110 -73q-4 -2 -6 -2q-5 0 -8 4.5t-3 8.5q0 5 5 8l113 77l4 2t4 1t4.5 -1t4.5 -2l113 -77q5 -3 5 -8zM481 10q0 -10 -11 -10h-341q-10 0 -10 10v677q0 10 10 10h341q11 0 11 -10q0 -11 -11 -11h-330v-305h238
q11 0 11 -10q0 -4 -3 -7.5t-8 -3.5h-238v-329h330q11 0 11 -11z" />
    <glyph glyph-name="Edieresis" unicode="&#xcb;" horiz-adv-x="520"
d="M402 846q0 -6 -3.5 -9t-7.5 -3q-10 0 -10 12v42q0 12 10 12q4 0 7.5 -3t3.5 -9v-42zM202 846q0 -12 -10 -12q-11 0 -11 12v42q0 12 11 12q10 0 10 -12v-42zM481 10q0 -10 -11 -10h-341q-10 0 -10 10v677q0 10 10 10h341q11 0 11 -10q0 -11 -11 -11h-330v-305h238
q11 0 11 -10q0 -4 -3 -7.5t-8 -3.5h-238v-329h330q11 0 11 -11z" />
    <glyph glyph-name="Igrave" unicode="&#xcc;" horiz-adv-x="216"
d="M226 760q0 -3 -2 -5q-4 -6 -9 -6q-1 0 -5 2l-215 129q-5 3 -5 9q0 3 2 5q2 5 8 5q4 0 6 -1l214 -129q6 -3 6 -9zM119 8q0 -11 -11 -11q-10 0 -10 11v681q0 11 10 11q11 0 11 -11v-681z" />
    <glyph glyph-name="Iacute" unicode="&#xcd;" horiz-adv-x="215"
d="M225 889q0 -6 -6 -9l-214 -129q-2 -2 -6 -2q-6 0 -8 6q-2 2 -2 5q0 6 5 9l215 129q4 2 5 2q5 0 9 -6q2 -2 2 -5zM117 8q0 -11 -10 -11t-10 11v681q0 11 10 11t10 -11v-681z" />
    <glyph glyph-name="Icircumflex" unicode="&#xce;" horiz-adv-x="211"
d="M232 812q0 -4 -2.5 -8.5t-7.5 -4.5q-3 0 -7 2l-108 73l-110 -73q-4 -2 -6 -2q-5 0 -8 4.5t-3 8.5q0 5 5 8l113 77l4 2t4 1t4.5 -1t4.5 -2l113 -77q4 -3 4 -8zM116 8q0 -11 -10 -11q-4 0 -7.5 3t-3.5 8v681q0 5 3.5 8t7.5 3q10 0 10 -11v-681z" />
    <glyph glyph-name="Idieresis" unicode="&#xcf;" horiz-adv-x="221"
d="M221 846q0 -12 -10 -12q-4 0 -7.5 3t-3.5 9v42q0 6 3.5 9t7.5 3q10 0 10 -12v-42zM22 846q0 -12 -11 -12q-10 0 -10 12v42q0 12 10 12q11 0 11 -12v-42zM121 8q0 -11 -10 -11q-4 0 -7.5 3t-3.5 8v681q0 5 3.5 8t7.5 3q10 0 10 -11v-681z" />
    <glyph glyph-name="Eth" unicode="&#xd0;" horiz-adv-x="647"
d="M541 176q0 -36 -14 -68t-38 -56t-56 -38t-68 -14h-176q-11 0 -11 11v366h-55q-11 0 -11 10q0 11 11 11h55v288q0 11 11 11h176q37 0 69 -13.5t56 -37.5t37.5 -56t13.5 -68v-346zM520 522q0 32 -12 60t-33 49t-49.5 33t-60.5 12h-166v-278h152q11 0 11 -11q0 -10 -11 -10
h-152v-356h166q32 0 60 12t49 33t33.5 49.5t12.5 60.5v346z" />
    <glyph glyph-name="Ntilde" unicode="&#xd1;" horiz-adv-x="575"
d="M432 875q-15 -11 -32.5 -19t-49.5 -8q-19 0 -38 5t-37 10.5t-34.5 10.5t-31.5 5q-19 0 -35.5 -10.5t-26.5 -20.5t-18.5 -3t0.5 17q18 20 40 29t43 9q16 0 33 -5t34.5 -10.5t35.5 -10.5t35 -5q26 0 43.5 8.5t25.5 15.5q5 4 10 3t7.5 -4t2 -8t-6.5 -9zM456 7q0 -10 -10 -10
h-9q-2 0 -5 2t-4 4l-288 655v-651q0 -10 -11 -10q-10 0 -10 10v683q0 10 10 10h9q2 0 5.5 -2t4.5 -4l287 -655v651q0 5 3.5 7.5t7.5 2.5q10 0 10 -10v-683z" />
    <glyph glyph-name="Ograve" unicode="&#xd2;"
d="M398 760q0 -3 -2 -5q-4 -6 -9 -6q-1 0 -5 2l-215 129q-5 3 -5 9q0 3 2 5q2 5 8 5q4 0 6 -1l214 -129q6 -3 6 -9zM461 173q0 -36 -14 -68t-38 -56t-56 -38t-68 -14h-11q-36 0 -68 14t-56 38t-37.5 56t-13.5 68v352q0 36 13.5 68t37.5 56t56 37.5t68 13.5h11q36 0 68 -13.5
t56 -37.5t38 -56t14 -68v-352zM440 525q0 32 -12 60t-33 49t-49.5 33t-60.5 12h-11q-32 0 -60 -12t-49 -33t-33 -49t-12 -60v-352q0 -32 12 -60.5t33 -49.5t49 -33t60 -12h11q32 0 60.5 12t49.5 33t33 49.5t12 60.5v352z" />
    <glyph glyph-name="Oacute" unicode="&#xd3;"
d="M398 889q0 -6 -5 -9l-214 -129q-4 -2 -6 -2q-5 0 -9 6q-2 1 -2 5q0 6 5 9l214 129q4 2 6 2q5 0 9 -6q2 -1 2 -5zM461 173q0 -36 -14 -68t-38 -56t-56 -38t-68 -14h-11q-36 0 -68 14t-56 38t-37.5 56t-13.5 68v352q0 36 13.5 68t37.5 56t56 37.5t68 13.5h11q36 0 68 -13.5
t56 -37.5t38 -56t14 -68v-352zM440 525q0 32 -12 60t-33 49t-49.5 33t-60.5 12h-11q-32 0 -60 -12t-49 -33t-33 -49t-12 -60v-352q0 -32 12 -60.5t33 -49.5t49 -33t60 -12h11q32 0 60.5 12t49.5 33t33 49.5t12 60.5v352z" />
    <glyph glyph-name="Ocircumflex" unicode="&#xd4;"
d="M406 812q0 -4 -3 -8.5t-8 -4.5q-2 0 -6 2l-108 73l-110 -73q-4 -2 -6 -2q-5 0 -8 4.5t-3 8.5q0 5 5 8l113 77l4 2t4 1t4 -1l4 -2l113 -77q5 -3 5 -8zM461 173q0 -36 -14 -68t-38 -56t-56 -38t-68 -14h-11q-36 0 -68 14t-56 38t-37.5 56t-13.5 68v352q0 36 13.5 68
t37.5 56t56 37.5t68 13.5h11q36 0 68 -13.5t56 -37.5t38 -56t14 -68v-352zM440 525q0 32 -12 60t-33 49t-49.5 33t-60.5 12h-11q-32 0 -60 -12t-49 -33t-33 -49t-12 -60v-352q0 -32 12 -60.5t33 -49.5t49 -33t60 -12h11q32 0 60.5 12t49.5 33t33 49.5t12 60.5v352z" />
    <glyph glyph-name="Otilde" unicode="&#xd5;"
d="M423 875q-15 -11 -33 -19t-50 -8q-19 0 -38 5t-37 10.5t-34.5 10.5t-30.5 5q-19 0 -35.5 -10.5t-26.5 -20.5q-11 -10 -19 -3t1 17q19 20 40.5 29t41.5 9q16 0 33.5 -5t35 -10.5t35.5 -10.5t35 -5q26 0 43.5 8.5t25.5 15.5q5 4 10 3t7.5 -4t2 -8t-6.5 -9zM461 173
q0 -36 -14 -68t-38 -56t-56 -38t-68 -14h-11q-36 0 -68 14t-56 38t-37.5 56t-13.5 68v352q0 36 13.5 68t37.5 56t56 37.5t68 13.5h11q36 0 68 -13.5t56 -37.5t38 -56t14 -68v-352zM440 525q0 32 -12 60t-33 49t-49.5 33t-60.5 12h-11q-32 0 -60 -12t-49 -33t-33 -49t-12 -60
v-352q0 -32 12 -60.5t33 -49.5t49 -33t60 -12h11q32 0 60.5 12t49.5 33t33 49.5t12 60.5v352z" />
    <glyph glyph-name="Odieresis" unicode="&#xd6;"
d="M388 846q0 -6 -3.5 -9t-7.5 -3q-10 0 -10 12v42q0 12 10 12q4 0 7.5 -3t3.5 -9v-42zM188 846q0 -12 -10 -12q-11 0 -11 12v42q0 12 11 12q10 0 10 -12v-42zM461 173q0 -36 -14 -68t-38 -56t-56 -38t-68 -14h-11q-36 0 -68 14t-56 38t-37.5 56t-13.5 68v352q0 36 13.5 68
t37.5 56t56 37.5t68 13.5h11q36 0 68 -13.5t56 -37.5t38 -56t14 -68v-352zM440 525q0 32 -12 60t-33 49t-49.5 33t-60.5 12h-11q-32 0 -60 -12t-49 -33t-33 -49t-12 -60v-352q0 -32 12 -60.5t33 -49.5t49 -33t60 -12h11q32 0 60.5 12t49.5 33t33 49.5t12 60.5v352z" />
    <glyph glyph-name="multiply" unicode="&#xd7;" horiz-adv-x="666"
d="M580 8q0 -5 -3 -8t-8 -3q-4 0 -7 3l-229 229l-229 -229q-3 -3 -7 -3q-5 0 -8 3t-3 8q0 4 3 7l229 229l-229 229q-3 3 -3 7q0 5 3 8t8 3q4 0 7 -3l229 -230l229 230q3 3 7 3q5 0 8 -3t3 -8q0 -4 -3 -7l-229 -229l229 -229q3 -3 3 -7z" />
    <glyph glyph-name="Oslash" unicode="&#xd8;" horiz-adv-x="602"
d="M503 721q0 -3 -1 -4l-48 -95q14 -21 21.5 -45.5t7.5 -51.5v-352q0 -36 -13.5 -68t-37.5 -56t-56 -38t-68 -14h-11q-40 0 -74.5 16.5t-58.5 44.5l-45 -87q-2 -6 -10 -6q-4 0 -7.5 3t-2.5 8q0 1 0.5 2t0.5 2l50 97q-28 44 -28 96v352q0 36 13.5 68t37.5 56t56 37.5t68 13.5
h11q39 0 73 -16t58 -43l44 85q2 6 10 6q5 0 8 -3t2 -8zM429 621q-22 26 -53 42t-68 16h-11q-32 0 -60 -12t-49 -33t-33 -49t-12 -60v-352q0 -41 18 -74zM462 525q0 40 -19 76l-268 -523q21 -27 52.5 -43.5t69.5 -16.5h11q32 0 60 12t49 33t33 49.5t12 60.5v352z" />
    <glyph glyph-name="Ugrave" unicode="&#xd9;" horiz-adv-x="600"
d="M418 760q0 -3 -2 -5q-4 -6 -9 -6q-1 0 -5 2l-215 129q-5 3 -5 9q0 3 2 5q2 5 8 5q4 0 6 -1l214 -129q6 -3 6 -9zM481 173q0 -36 -14 -68t-38 -56t-56 -38t-68 -14h-10q-36 0 -68 14t-56 38t-38 56t-14 68v517q0 10 10 10q11 0 11 -10v-517q0 -32 12 -60t33 -49
t49.5 -33.5t60.5 -12.5h10q32 0 60.5 12t49.5 33t33 49.5t12 60.5v517q0 10 10 10q11 0 11 -10v-517z" />
    <glyph glyph-name="Uacute" unicode="&#xda;" horiz-adv-x="600"
d="M417 889q0 -7 -5 -9l-214 -129q-4 -2 -6 -2q-5 0 -9 6q-1 1 -1 5q0 6 5 9l214 129q4 2 6 2q5 0 9 -6q1 -1 1 -5zM481 173q0 -36 -14 -68t-38 -56t-56 -38t-68 -14h-10q-36 0 -68 14t-56 38t-38 56t-14 68v517q0 10 10 10q11 0 11 -10v-517q0 -32 12 -60t33 -49
t49.5 -33.5t60.5 -12.5h10q32 0 60.5 12t49.5 33t33 49.5t12 60.5v517q0 10 10 10q11 0 11 -10v-517z" />
    <glyph glyph-name="Ucircumflex" unicode="&#xdb;" horiz-adv-x="600"
d="M426 812q0 -4 -3 -8.5t-8 -4.5q-2 0 -6 2l-109 73l-109 -73q-4 -2 -7 -2q-5 0 -7.5 4.5t-2.5 8.5q0 5 4 8l113 77q2 1 4.5 2t4.5 1t4 -1l4 -2l113 -77q5 -3 5 -8zM481 173q0 -36 -14 -68t-38 -56t-56 -38t-68 -14h-10q-36 0 -68 14t-56 38t-38 56t-14 68v517q0 10 10 10
q11 0 11 -10v-517q0 -32 12 -60t33 -49t49.5 -33.5t60.5 -12.5h10q32 0 60.5 12.5t49.5 33.5t33 49t12 60v517q0 10 10 10q11 0 11 -10v-517z" />
    <glyph glyph-name="Udieresis" unicode="&#xdc;" horiz-adv-x="600"
d="M407 846q0 -12 -10 -12q-11 0 -11 12v42q0 12 11 12q10 0 10 -12v-42zM208 846q0 -6 -3.5 -9t-7.5 -3q-10 0 -10 12v42q0 12 10 12q4 0 7.5 -3t3.5 -9v-42zM481 173q0 -36 -14 -68t-38 -56t-56 -38t-68 -14h-10q-36 0 -68 14t-56 38t-38 56t-14 68v517q0 10 10 10
q11 0 11 -10v-517q0 -32 12 -60t33 -49t49.5 -33.5t60.5 -12.5h10q32 0 60.5 12t49.5 33t33 49.5t12 60.5v517q0 10 10 10q11 0 11 -10v-517z" />
    <glyph glyph-name="Yacute" unicode="&#xdd;" horiz-adv-x="475"
d="M343 889q0 -7 -5 -9l-214 -129q-4 -2 -6 -2q-5 0 -9 6q-2 2 -2 5q0 6 6 9l214 129q4 2 6 2q5 0 9 -6q1 -1 1 -5zM422 690q0 -3 -1 -4l-173 -417v-262q0 -10 -10 -10q-11 0 -11 10v262l-173 417q-1 1 -1 4q0 10 11 10q6 0 9 -6l165 -396l164 396q3 6 9 6q11 0 11 -10z" />
    <glyph glyph-name="Thorn" unicode="&#xde;" horiz-adv-x="521"
d="M429 294q0 -30 -11.5 -56.5t-31 -46t-46 -31t-56.5 -11.5h-124v-141q0 -11 -11 -11q-10 0 -10 11v681q0 11 10 11q11 0 11 -11v-142h124q30 0 56.5 -11.5t46 -31t31 -45.5t11.5 -56v-109zM408 403q0 25 -9.5 48t-26.5 39.5t-39.5 26.5t-48.5 10h-124v-357h124
q26 0 48.5 10t39.5 26.5t26.5 39t9.5 48.5v109z" />
    <glyph glyph-name="germandbls" unicode="&#xdf;" horiz-adv-x="524"
d="M458 178q0 -42 -15.5 -75.5t-39.5 -57t-52 -36t-52 -12.5q-10 0 -10 10.5t10 10.5q20 0 44 12t45 33t35 50.5t14 64.5v72q0 30 -5.5 56.5t-18 46.5t-32 31.5t-46.5 11.5q-9 0 -9 10.5t10 10.5q31 0 49.5 15t28 35t12 40.5t2.5 31.5v4q0 30 -10.5 55t-29 43t-43.5 28
t-54 10h-11q-59 0 -96.5 -37t-37.5 -97v-592q0 -10 -11 -10q-10 0 -10 10v592q0 33 11.5 61.5t32.5 49.5t49.5 32.5t61.5 11.5h11q33 0 62 -12t50.5 -33t33.5 -50t12 -62v-4q0 -8 -2 -26t-9 -38.5t-20.5 -39t-36.5 -28.5q24 -9 39 -26t23.5 -38.5t11.5 -45.5t3 -47v-72v0z
" />
    <glyph glyph-name="agrave" unicode="&#xe0;" horiz-adv-x="484"
d="M360 561q0 -2 -2 -6q-3 -5 -9 -5q-3 0 -5 1l-215 129q-5 3 -5 9q0 2 2 6q2 5 8 5q2 0 6 -2l214 -129q6 -3 6 -8zM438 7q0 -10 -10 -10q-32 0 -48.5 22.5t-22.5 55.5q-17 -35 -52 -56.5t-78 -21.5h-12q-30 0 -57.5 9t-47.5 26.5t-32 43.5t-12 59v5q0 44 25 70t61 40.5
t76 21.5t69 13q38 8 48.5 25t10.5 35q0 27 -9.5 50t-26.5 39.5t-39.5 26t-48.5 9.5h-8q-35 0 -68 -15.5t-51 -57.5q-3 -7 -10 -7q-11 0 -11 11q0 3 1 4q11 25 26.5 41.5t34 26.5t38.5 14t40 4h8q30 0 56 -11t45.5 -29.5t31 -44t11.5 -54.5v-246q0 -12 2.5 -27.5t8.5 -29
t16 -22.5t25 -9q5 0 7.5 -3.5t2.5 -7.5zM356 289q-9 -8 -22 -14.5t-32 -10.5q-24 -5 -60.5 -11t-71 -18t-59 -34.5t-24.5 -60.5v-6q0 -55 37 -85.5t91 -30.5h12q27 0 50.5 10t41 27.5t27.5 41t10 50.5v142z" />
    <glyph glyph-name="aacute" unicode="&#xe1;" horiz-adv-x="484"
d="M349 689q0 -6 -6 -9l-214 -129q-2 -1 -6 -1q-6 0 -8 5q-2 4 -2 6q0 5 5 8l215 129q4 2 5 2q6 0 9 -5q2 -4 2 -6zM438 7q0 -10 -10 -10q-32 0 -48.5 22.5t-22.5 55.5q-17 -35 -52 -56.5t-78 -21.5h-12q-30 0 -57.5 9t-47.5 26.5t-32 43.5t-12 59v5q0 44 25 70t61 40.5
t76 21.5t69 13q38 8 48.5 25t10.5 35q0 27 -9.5 50t-26.5 39.5t-39.5 26t-48.5 9.5h-8q-35 0 -68 -15.5t-51 -57.5q-3 -7 -10 -7q-11 0 -11 11q0 3 1 4q11 25 26.5 41.5t34 26.5t38.5 14t40 4h8q30 0 56 -11t45.5 -29.5t31 -44t11.5 -54.5v-246q0 -12 2.5 -27.5t8.5 -29
t16 -22.5t25 -9q5 0 7.5 -3.5t2.5 -7.5zM356 289q-9 -8 -22 -14.5t-32 -10.5q-24 -5 -60.5 -11t-71 -18t-59 -34.5t-24.5 -60.5v-6q0 -55 37 -85.5t91 -30.5h12q27 0 50.5 10t41 27.5t27.5 41t10 50.5v142z" />
    <glyph glyph-name="acircumflex" unicode="&#xe2;" horiz-adv-x="484"
d="M357 613q0 -5 -2.5 -9t-7.5 -4q-3 0 -7 2l-108 72l-110 -72q-4 -2 -6 -2q-5 0 -8 4t-3 9t5 8l113 76q3 3 8 3q4 0 9 -3l113 -76q4 -3 4 -8zM438 7q0 -10 -10 -10q-32 0 -48.5 22.5t-22.5 55.5q-17 -35 -52 -56.5t-78 -21.5h-12q-30 0 -57.5 9t-47.5 26.5t-32 43.5t-12 59
v5q0 44 25 70t61 40.5t76 21.5t69 13q38 8 48.5 25t10.5 35q0 27 -9.5 50t-26.5 39.5t-39.5 26t-48.5 9.5h-8q-35 0 -68 -15.5t-51 -57.5q-3 -7 -10 -7q-11 0 -11 11q0 3 1 4q11 25 26.5 41.5t34 26.5t38.5 14t40 4h8q30 0 56 -11t45.5 -29.5t31 -44t11.5 -54.5v-246
q0 -12 2.5 -27.5t8.5 -29t16 -22.5t25 -9q5 0 7.5 -3.5t2.5 -7.5zM356 289q-9 -8 -22 -14.5t-32 -10.5q-24 -5 -60.5 -11t-71 -18t-59 -34.5t-24.5 -60.5v-6q0 -55 37 -85.5t91 -30.5h12q27 0 50.5 10t41 27.5t27.5 41t10 50.5v142z" />
    <glyph glyph-name="atilde" unicode="&#xe3;" horiz-adv-x="484"
d="M385 675q-15 -11 -33 -18.5t-50 -7.5q-19 0 -37.5 4.5t-36.5 10.5t-34.5 10.5t-31.5 4.5q-19 0 -35.5 -10t-26.5 -20q-5 -5 -10 -5.5t-8.5 2t-4 7t4.5 9.5q19 20 40.5 29t41.5 9q16 0 33.5 -5t35 -10.5t35.5 -10.5t35 -5q26 0 43.5 8.5t25.5 15.5q5 4 10 3.5t7.5 -4
t2 -8.5t-6.5 -9zM438 7q0 -10 -10 -10q-32 0 -48.5 22.5t-22.5 55.5q-17 -35 -52 -56.5t-78 -21.5h-12q-30 0 -57.5 9t-47.5 26.5t-32 43.5t-12 59v5q0 44 25 70t61 40.5t76 21.5t69 13q38 8 48.5 25t10.5 35q0 27 -9.5 50t-26.5 39.5t-39.5 26t-48.5 9.5h-8
q-35 0 -68 -15.5t-51 -57.5q-3 -7 -10 -7q-11 0 -11 11q0 3 1 4q11 25 26.5 41.5t34 26.5t38.5 14t40 4h8q30 0 56 -11t45.5 -29.5t31 -44t11.5 -54.5v-246q0 -12 2.5 -27.5t8.5 -29t16 -22.5t25 -9q5 0 7.5 -3.5t2.5 -7.5zM356 289q-9 -8 -22 -14.5t-32 -10.5
q-24 -5 -60.5 -11t-71 -18t-59 -34.5t-24.5 -60.5v-6q0 -55 37 -85.5t91 -30.5h12q27 0 50.5 10t41 27.5t27.5 41t10 50.5v142z" />
    <glyph glyph-name="adieresis" unicode="&#xe4;" horiz-adv-x="484"
d="M342 646q0 -11 -10 -11q-4 0 -7.5 2.5t-3.5 8.5v42q0 6 3.5 9t7.5 3q10 0 10 -12v-42zM143 646q0 -11 -11 -11q-10 0 -10 11v42q0 12 10 12q11 0 11 -12v-42zM438 7q0 -10 -10 -10q-32 0 -48.5 22.5t-22.5 55.5q-17 -35 -52 -56.5t-78 -21.5h-12q-30 0 -57.5 9
t-47.5 26.5t-32 43.5t-12 59v5q0 44 25 70t61 40.5t76 21.5t69 13q38 8 48.5 25t10.5 35q0 27 -9.5 50t-26.5 39.5t-39.5 26t-48.5 9.5h-8q-35 0 -68 -15.5t-51 -57.5q-3 -7 -10 -7q-11 0 -11 11q0 3 1 4q11 25 26.5 41.5t34 26.5t38.5 14t40 4h8q30 0 56 -11t45.5 -29.5
t31 -44t11.5 -54.5v-246q0 -12 2.5 -27.5t8.5 -29t16 -22.5t25 -9q5 0 7.5 -3.5t2.5 -7.5zM356 289q-9 -8 -22 -14.5t-32 -10.5q-24 -5 -60.5 -11t-71 -18t-59 -34.5t-24.5 -60.5v-6q0 -55 37 -85.5t91 -30.5h12q27 0 50.5 10t41 27.5t27.5 41t10 50.5v142z" />
    <glyph glyph-name="aring" unicode="&#xe5;" horiz-adv-x="484"
d="M299 630q0 -29 -20.5 -49.5t-49.5 -20.5t-49.5 20.5t-20.5 49.5t20.5 49.5t49.5 20.5t49.5 -20.5t20.5 -49.5zM438 7q0 -10 -10 -10q-32 0 -48.5 22.5t-22.5 55.5q-17 -35 -52 -56.5t-78 -21.5h-12q-30 0 -57.5 9t-47.5 26.5t-32 43.5t-12 59v5q0 44 25 70t61 40.5
t76 21.5t69 13q38 8 48.5 25t10.5 35q0 27 -9.5 50t-26.5 39.5t-39.5 26t-48.5 9.5h-8q-35 0 -68 -15.5t-51 -57.5q-3 -7 -10 -7q-11 0 -11 11q0 3 1 4q11 25 26.5 41.5t34 26.5t38.5 14t40 4h8q30 0 56 -11t45.5 -29.5t31 -44t11.5 -54.5v-246q0 -12 2.5 -27.5t8.5 -29
t16 -22.5t25 -9q5 0 7.5 -3.5t2.5 -7.5zM278 630q0 20 -14.5 34.5t-34.5 14.5t-34.5 -14.5t-14.5 -34.5t14.5 -34.5t34.5 -14.5t34.5 14.5t14.5 34.5zM356 289q-9 -8 -22 -14.5t-32 -10.5q-24 -5 -60.5 -11t-71 -18t-59 -34.5t-24.5 -60.5v-6q0 -55 37 -85.5t91 -30.5h12
q27 0 50.5 10t41 27.5t27.5 41t10 50.5v142z" />
    <glyph glyph-name="ae" unicode="&#xe6;" horiz-adv-x="740"
d="M667 246q0 -11 -11 -11h-280v-88q0 -27 10.5 -50.5t28 -41t41 -27.5t50.5 -10h10q43 0 76 25t46 63q3 7 10 7q11 0 11 -10q0 -3 -1 -4q-15 -45 -53.5 -73.5t-88.5 -28.5h-10q-48 0 -85 26t-54 67h-1q-9 -24 -23.5 -41.5t-33.5 -29t-40 -17t-42 -5.5h-12q-30 0 -57.5 9
t-47.5 26.5t-32 43.5t-12 59v5q0 44 25 70t61 40.5t76 21.5t69 13q38 8 48.5 25t10.5 35q0 27 -9.5 50t-26.5 39.5t-39.5 26t-48.5 9.5h-8q-35 0 -68 -15.5t-51 -57.5q-3 -7 -10 -7q-11 0 -11 11q0 3 1 4q11 25 26.5 41.5t34 26.5t38.5 14t40 4h8q47 0 84 -25t52 -66
q17 41 54.5 66t84.5 25h8q31 0 58.5 -11t48.5 -31t33 -47.5t12 -60.5v-95zM646 341q0 27 -10.5 50.5t-28 41t-41 27.5t-49.5 10h-11q-27 0 -50.5 -10t-41 -27.5t-28 -41t-10.5 -50.5v-85h270v85zM356 289q-9 -8 -22 -14.5t-32 -10.5q-24 -5 -60.5 -11t-71 -18t-59 -34.5
t-24.5 -60.5v-6q0 -55 37 -85.5t91 -30.5h12q27 0 50.5 10t41 27.5t27.5 41t10 50.5v142z" />
    <glyph glyph-name="ccedilla" unicode="&#xe7;" horiz-adv-x="463"
d="M397 147q0 -30 -11.5 -57t-31 -47.5t-46 -32.5t-56.5 -13v-45q26 -2 44 -21.5t18 -45.5v-11q0 -28 -19.5 -47.5t-47.5 -19.5h-11q-23 0 -41 13.5t-24 34.5q-3 11 7 13.5t13 -7.5q5 -14 17 -23.5t28 -9.5h11q19 0 32.5 13t13.5 33v11q0 20 -13.5 33t-32.5 13h-5
q-11 0 -11 11v55q-30 1 -56.5 13t-46 32.5t-31 47.5t-11.5 57v194q0 31 12 58.5t32 47.5t47.5 32t58.5 12h11q31 0 58 -12t47.5 -32t32.5 -47.5t12 -58.5q0 -5 -3.5 -8t-7.5 -3t-7.5 3t-3.5 8q0 27 -10 50.5t-27.5 41t-40.5 27.5t-50 10h-11q-27 0 -50.5 -10t-41 -27.5
t-27.5 -41t-10 -50.5v-194q0 -27 10 -50.5t27.5 -41t41 -27.5t50.5 -10h11q27 0 50 10t40.5 27.5t27.5 41t10 50.5q0 5 3.5 8t7.5 3t7.5 -3t3.5 -8z" />
    <glyph glyph-name="egrave" unicode="&#xe8;" horiz-adv-x="469"
d="M365 561q0 -2 -2 -6q-3 -5 -9 -5q-3 0 -5 1l-215 129q-5 3 -5 9q0 2 2 6q2 5 8 5q2 0 6 -2l214 -129q6 -3 6 -8zM397 246q0 -11 -11 -11h-279v-88q0 -27 10 -50.5t27.5 -41t41 -27.5t50.5 -10h11q42 0 75 25t47 63q1 7 9 7q5 0 8.5 -2.5t3.5 -7.5q0 -1 -0.5 -2t-0.5 -2
q-15 -45 -53.5 -73.5t-88.5 -28.5h-11q-31 0 -58.5 12t-47.5 32t-32 47.5t-12 58.5v194q0 31 12 58.5t32.5 47.5t48 32t58.5 12h8q31 0 58.5 -11t48.5 -31t33 -47.5t12 -60.5v-95zM376 341q0 27 -10 50.5t-27.5 41t-41 27.5t-50.5 10h-10q-27 0 -50.5 -10t-41 -27.5t-28 -41
t-10.5 -50.5v-85h269v85z" />
    <glyph glyph-name="eacute" unicode="&#xe9;" horiz-adv-x="469"
d="M354 689q0 -6 -6 -9l-214 -129q-2 -1 -6 -1q-6 0 -8 5q-2 4 -2 6q0 5 5 8l215 129q4 2 5 2q6 0 9 -5q2 -4 2 -6zM397 246q0 -11 -11 -11h-279v-88q0 -27 10 -50.5t27.5 -41t41 -27.5t50.5 -10h11q42 0 75 25t47 63q1 7 9 7q5 0 8.5 -2.5t3.5 -7.5q0 -1 -0.5 -2t-0.5 -2
q-15 -45 -53.5 -73.5t-88.5 -28.5h-11q-31 0 -58.5 12t-47.5 32t-32 47.5t-12 58.5v194q0 31 12 58.5t32.5 47.5t48 32t58.5 12h8q31 0 58.5 -11t48.5 -31t33 -47.5t12 -60.5v-95zM376 341q0 27 -10 50.5t-27.5 41t-41 27.5t-50.5 10h-10q-27 0 -50.5 -10t-41 -27.5t-28 -41
t-10.5 -50.5v-85h269v85z" />
    <glyph glyph-name="ecircumflex" unicode="&#xea;" horiz-adv-x="469"
d="M367 613q0 -5 -2.5 -9t-7.5 -4q-3 0 -7 2l-108 72l-110 -72q-4 -2 -6 -2q-5 0 -8 4t-3 9t5 8l113 76q3 3 8 3q4 0 9 -3l113 -76q4 -3 4 -8zM397 246q0 -11 -11 -11h-279v-88q0 -27 10 -50.5t27.5 -41t41 -27.5t50.5 -10h11q42 0 75 25t47 63q1 7 9 7q5 0 8.5 -2.5
t3.5 -7.5q0 -1 -0.5 -2t-0.5 -2q-15 -45 -53.5 -73.5t-88.5 -28.5h-11q-31 0 -58.5 12t-47.5 32t-32 47.5t-12 58.5v194q0 31 12 58.5t32.5 47.5t48 32t58.5 12h8q31 0 58.5 -11t48.5 -31t33 -47.5t12 -60.5v-95zM376 341q0 27 -10 50.5t-27.5 41t-41 27.5t-50.5 10h-10
q-27 0 -50.5 -10t-41 -27.5t-28 -41t-10.5 -50.5v-85h269v85z" />
    <glyph glyph-name="edieresis" unicode="&#xeb;" horiz-adv-x="469"
d="M348 646q0 -11 -10 -11q-4 0 -7.5 2.5t-3.5 8.5v42q0 6 3.5 9t7.5 3q10 0 10 -12v-42zM149 646q0 -11 -11 -11q-10 0 -10 11v42q0 12 10 12q11 0 11 -12v-42zM397 246q0 -11 -11 -11h-279v-88q0 -27 10 -50.5t27.5 -41t41 -27.5t50.5 -10h11q42 0 75 25t47 63q1 7 9 7
q5 0 8.5 -2.5t3.5 -7.5q0 -1 -0.5 -2t-0.5 -2q-15 -45 -53.5 -73.5t-88.5 -28.5h-11q-31 0 -58.5 12t-47.5 32t-32 47.5t-12 58.5v194q0 31 12 58.5t32.5 47.5t48 32t58.5 12h8q31 0 58.5 -11t48.5 -31t33 -47.5t12 -60.5v-95zM376 341q0 27 -10 50.5t-27.5 41t-41 27.5
t-50.5 10h-10q-27 0 -50.5 -10t-41 -27.5t-28 -41t-10.5 -50.5v-85h269v85z" />
    <glyph glyph-name="igrave" unicode="&#xec;" horiz-adv-x="177"
d="M206 561q0 -2 -2 -6q-3 -5 -9 -5q-3 0 -5 1l-215 129q-5 3 -5 9q0 2 2 6q2 5 8 5q2 0 6 -2l214 -129q6 -3 6 -8zM99 8q0 -11 -11 -11q-10 0 -10 11v472q0 11 10 11q11 0 11 -11v-472z" />
    <glyph glyph-name="iacute" unicode="&#xed;" horiz-adv-x="177"
d="M206 689q0 -6 -6 -9l-214 -129q-2 -1 -6 -1q-6 0 -8 5q-2 4 -2 6q0 5 5 8l215 129q4 2 5 2q6 0 9 -5q2 -4 2 -6zM99 8q0 -11 -11 -11q-10 0 -10 11v472q0 11 10 11q11 0 11 -11v-472z" />
    <glyph glyph-name="icircumflex" unicode="&#xee;" horiz-adv-x="171"
d="M212 613q0 -5 -2.5 -9t-7.5 -4q-3 0 -7 2l-108 72l-110 -72q-4 -2 -6 -2q-5 0 -8 4t-3 9t5 8l113 76q3 3 8 3q4 0 9 -3l113 -76q4 -3 4 -8zM96 8q0 -11 -11 -11q-10 0 -10 11v472q0 11 10 11q11 0 11 -11v-472z" />
    <glyph glyph-name="idieresis" unicode="&#xef;" horiz-adv-x="182"
d="M201 646q0 -11 -10 -11q-4 0 -7.5 2.5t-3.5 8.5v42q0 6 3.5 9t7.5 3q10 0 10 -12v-42zM2 646q0 -11 -11 -11q-10 0 -10 11v42q0 12 10 12q11 0 11 -12v-42zM101 8q0 -11 -11 -11q-10 0 -10 11v472q0 11 10 11q11 0 11 -11v-472z" />
    <glyph glyph-name="eth" unicode="&#xf0;" horiz-adv-x="555"
d="M469 689q0 -5 -4 -9l-72 -50q10 -17 15.5 -36t5.5 -39v-413q0 -30 -11.5 -56.5t-31 -46t-46 -31t-56.5 -11.5h-12q-30 0 -56.5 11.5t-46 31t-31 46t-11.5 56.5v135q0 30 11.5 56.5t31 46t46 31t56.5 11.5h12q39 0 71.5 -19t52.5 -51v203q0 17 -5 33t-13 30l-102 -73
q-2 -2 -7 -2q-10 0 -10 11q0 5 5 8l102 73q-17 20 -41 32t-53 12h-62q-11 0 -11 11q0 10 11 10h62q34 0 63 -14.5t49 -38.5l72 51q4 2 6 2q10 0 10 -11zM393 277q0 25 -10 48t-26.5 39.5t-39.5 26.5t-48 10h-12q-26 0 -48.5 -10t-39.5 -26.5t-26.5 -39.5t-9.5 -48v-135
q0 -26 9.5 -48.5t26.5 -39t39.5 -26.5t48.5 -10h12q25 0 48 10t39.5 26.5t26.5 39t10 48.5v135z" />
    <glyph glyph-name="ntilde" unicode="&#xf1;" horiz-adv-x="503"
d="M406 675q-15 -11 -33 -18.5t-50 -7.5q-19 0 -37.5 4.5t-36.5 10.5t-34.5 10.5t-31.5 4.5q-19 0 -35.5 -10t-26.5 -20q-5 -5 -10 -5.5t-8.5 2t-4 7t4.5 9.5q19 20 40.5 29t41.5 9q16 0 33.5 -5t35 -10.5t35.5 -10.5t35 -5q26 0 43.5 8.5t25.5 15.5q5 4 10 3.5t7.5 -4
t2 -8.5t-6.5 -9zM417 8q0 -5 -3.5 -8t-7.5 -3q-10 0 -10 11v332q0 27 -10.5 50.5t-28 41.5t-41 28t-50.5 10h-10q-27 0 -50.5 -9.5t-41 -26t-28 -38t-10.5 -46.5v-342q0 -11 -11 -11q-10 0 -10 11v472q0 10 10 10q11 0 11 -10v-62q7 16 20.5 29.5t31 23t37.5 15t41 5.5h10
q31 0 58.5 -12t48 -32t32.5 -48t12 -59v-332z" />
    <glyph glyph-name="ograve" unicode="&#xf2;" horiz-adv-x="483"
d="M372 561q0 -2 -2 -6q-3 -5 -9 -5q-3 0 -5 1l-215 129q-5 3 -5 9q0 2 2 6q2 5 8 5q2 0 6 -2l214 -129q6 -3 6 -8zM397 147q0 -31 -12 -58.5t-32 -47.5t-47.5 -32t-58.5 -12h-11q-31 0 -58.5 12t-47.5 32t-32 47.5t-12 58.5v194q0 31 12 58.5t32 47.5t47.5 32t58.5 12h11
q31 0 58 -12t47.5 -32t32.5 -47.5t12 -58.5v-194zM376 341q0 27 -10 50.5t-27.5 41t-41 27.5t-50.5 10h-11q-27 0 -50.5 -10t-41 -27.5t-27.5 -41t-10 -50.5v-194q0 -27 10 -50.5t27.5 -41t41 -27.5t50.5 -10h11q27 0 50.5 10t41 27.5t27.5 41t10 50.5v194z" />
    <glyph glyph-name="oacute" unicode="&#xf3;" horiz-adv-x="483"
d="M352 689q0 -6 -6 -9l-214 -129q-2 -1 -6 -1q-6 0 -8 5q-2 4 -2 6q0 5 5 8l215 129q4 2 5 2q6 0 9 -5q2 -4 2 -6zM397 147q0 -31 -12 -58.5t-32 -47.5t-47.5 -32t-58.5 -12h-11q-31 0 -58.5 12t-47.5 32t-32 47.5t-12 58.5v194q0 31 12 58.5t32 47.5t47.5 32t58.5 12h11
q31 0 58 -12t47.5 -32t32.5 -47.5t12 -58.5v-194zM376 341q0 27 -10 50.5t-27.5 41t-41 27.5t-50.5 10h-11q-27 0 -50.5 -10t-41 -27.5t-27.5 -41t-10 -50.5v-194q0 -27 10 -50.5t27.5 -41t41 -27.5t50.5 -10h11q27 0 50.5 10t41 27.5t27.5 41t10 50.5v194z" />
    <glyph glyph-name="ocircumflex" unicode="&#xf4;" horiz-adv-x="483"
d="M367 613q0 -5 -2.5 -9t-7.5 -4q-3 0 -7 2l-108 72l-110 -72q-4 -2 -6 -2q-5 0 -8 4t-3 9t5 8l113 76q3 3 8 3q4 0 9 -3l113 -76q4 -3 4 -8zM397 147q0 -31 -12 -58.5t-32 -47.5t-47.5 -32t-58.5 -12h-11q-31 0 -58.5 12t-47.5 32t-32 47.5t-12 58.5v194q0 31 12 58.5
t32 47.5t47.5 32t58.5 12h11q31 0 58 -12t47.5 -32t32.5 -47.5t12 -58.5v-194zM376 341q0 27 -10 50.5t-27.5 41t-41 27.5t-50.5 10h-11q-27 0 -50.5 -10t-41 -27.5t-27.5 -41t-10 -50.5v-194q0 -27 10 -50.5t27.5 -41t41 -27.5t50.5 -10h11q27 0 50.5 10t41 27.5t27.5 41
t10 50.5v194z" />
    <glyph glyph-name="otilde" unicode="&#xf5;" horiz-adv-x="493"
d="M387 675q-14 -11 -32.5 -18.5t-50.5 -7.5q-19 0 -37.5 4.5t-36.5 10.5t-34.5 10.5t-31.5 4.5q-19 0 -35.5 -10t-26.5 -20q-5 -5 -10 -5.5t-8.5 2t-4 7t4.5 9.5q19 20 40.5 29t41.5 9q16 0 33.5 -5t35 -10.5t35.5 -10.5t35 -5q26 0 43.5 8.5t25.5 15.5q5 4 10 3.5t8 -4
t2 -8.5t-7 -9zM395 147q0 -31 -12 -58.5t-32 -47.5t-47.5 -32t-58.5 -12h-11q-31 0 -58.5 12t-47.5 32t-32 47.5t-12 58.5v194q0 31 12 58.5t32 47.5t47.5 32t58.5 12h11q31 0 58 -12t47.5 -32t32.5 -47.5t12 -58.5v-194zM374 341q0 27 -10 50.5t-27.5 41t-41 27.5t-50.5 10
h-11q-27 0 -50.5 -10t-41 -27.5t-27.5 -41t-10 -50.5v-194q0 -27 10 -50.5t27.5 -41t41 -27.5t50.5 -10h11q27 0 50.5 10t41 27.5t27.5 41t10 50.5v194z" />
    <glyph glyph-name="odieresis" unicode="&#xf6;" horiz-adv-x="483"
d="M348 646q0 -11 -10 -11q-4 0 -7.5 2.5t-3.5 8.5v42q0 6 3.5 9t7.5 3q10 0 10 -12v-42zM149 646q0 -11 -11 -11q-10 0 -10 11v42q0 12 10 12q11 0 11 -12v-42zM397 147q0 -31 -12 -58.5t-32 -47.5t-47.5 -32t-58.5 -12h-11q-31 0 -58.5 12t-47.5 32t-32 47.5t-12 58.5v194
q0 31 12 58.5t32 47.5t47.5 32t58.5 12h11q31 0 58 -12t47.5 -32t32.5 -47.5t12 -58.5v-194zM376 341q0 27 -10 50.5t-27.5 41t-41 27.5t-50.5 10h-11q-27 0 -50.5 -10t-41 -27.5t-27.5 -41t-10 -50.5v-194q0 -27 10 -50.5t27.5 -41t41 -27.5t50.5 -10h11q27 0 50.5 10
t41 27.5t27.5 41t10 50.5v194z" />
    <glyph glyph-name="divide" unicode="&#xf7;" horiz-adv-x="419"
d="M220 536q0 -6 -3.5 -8.5t-7.5 -2.5q-10 0 -10 11v42q0 12 10 12q4 0 7.5 -3t3.5 -9v-42zM359 342q0 -4 -2.5 -7.5t-7.5 -3.5h-278q-5 0 -8.5 3.5t-3.5 7.5t3.5 7.5t8.5 3.5h278q5 0 7.5 -3.5t2.5 -7.5zM220 108q0 -6 -3.5 -9t-7.5 -3q-10 0 -10 12v42q0 11 10 11
q4 0 7.5 -2.5t3.5 -8.5v-42z" />
    <glyph glyph-name="oslash" unicode="&#xf8;" horiz-adv-x="510"
d="M424 500q0 -2 -2 -6l-43 -68q26 -37 26 -85v-194q0 -31 -12 -58.5t-32 -47.5t-47.5 -32t-58.5 -12h-10q-31 0 -57.5 11t-46.5 31l-35 -56q-4 -5 -9 -5q-4 0 -6 1q-5 3 -5 9q0 2 2 6l38 61q-15 19 -23.5 42.5t-8.5 49.5v194q0 31 12 58.5t32.5 47.5t48 32t58.5 12h10
q32 0 61 -12.5t49 -35.5l39 62q2 5 9 5q3 0 5 -2q6 -2 6 -8zM354 424q-18 21 -44 33.5t-55 12.5h-10q-27 0 -50.5 -10t-41.5 -27.5t-28 -41t-10 -50.5v-194q0 -20 6 -38.5t17 -34.5zM384 341q0 36 -17 65l-215 -349q18 -18 42 -28.5t51 -10.5h10q27 0 50.5 10t41 27.5
t27.5 41t10 50.5v194z" />
    <glyph glyph-name="ugrave" unicode="&#xf9;" horiz-adv-x="497"
d="M367 561q0 -2 -2 -6q-3 -5 -9 -5q-3 0 -5 1l-215 129q-5 3 -5 9q0 2 2 6q2 5 8 5q2 0 6 -2l214 -129q6 -3 6 -8zM398 8q0 -5 -3.5 -8t-7.5 -3q-10 0 -10 11v62q-7 -16 -20.5 -29.5t-31 -23t-37.5 -15t-41 -5.5h-11q-31 0 -58.5 12t-47.5 32t-32 47.5t-12 59.5v332
q0 11 10 11q11 0 11 -11v-332q0 -27 10 -50.5t27.5 -41.5t41 -28t50.5 -10h11q27 0 50.5 9.5t41 26t28 38t10.5 46.5v342q0 11 10 11q4 0 7.5 -3t3.5 -8v-472z" />
    <glyph glyph-name="uacute" unicode="&#xfa;" horiz-adv-x="497"
d="M359 689q0 -6 -6 -9l-214 -129q-2 -1 -6 -1q-6 0 -8 5q-2 4 -2 6q0 5 5 8l215 129q4 2 5 2q6 0 9 -5q2 -4 2 -6zM398 8q0 -5 -3.5 -8t-7.5 -3q-10 0 -10 11v62q-7 -16 -20.5 -29.5t-31 -23t-37.5 -15t-41 -5.5h-11q-31 0 -58.5 12t-47.5 32t-32 47.5t-12 59.5v332
q0 11 10 11q11 0 11 -11v-332q0 -27 10 -50.5t27.5 -41.5t41 -28t50.5 -10h11q27 0 50.5 9.5t41 26t28 38t10.5 46.5v342q0 11 10 11q4 0 7.5 -3t3.5 -8v-472z" />
    <glyph glyph-name="ucircumflex" unicode="&#xfb;" horiz-adv-x="497"
d="M368 613q0 -5 -3 -9t-8 -4q-1 0 -7 2l-108 72l-110 -72q-4 -2 -6 -2q-5 0 -8 4t-3 9t5 8l113 76q4 3 8 3t9 -3l113 -76q5 -3 5 -8zM398 8q0 -5 -3.5 -8t-7.5 -3q-10 0 -10 11v62q-7 -16 -20.5 -29.5t-31 -23t-37.5 -15t-41 -5.5h-11q-31 0 -58.5 12t-47.5 32t-32 47.5
t-12 59.5v332q0 11 10 11q11 0 11 -11v-332q0 -27 10 -50.5t27.5 -41.5t41 -28t50.5 -10h11q27 0 50.5 9.5t41 26t28 38t10.5 46.5v342q0 11 10 11q4 0 7.5 -3t3.5 -8v-472z" />
    <glyph glyph-name="udieresis" unicode="&#xfc;" horiz-adv-x="497"
d="M348 646q0 -11 -11 -11q-10 0 -10 11v42q0 12 10 12q11 0 11 -12v-42zM148 646q0 -11 -10 -11t-10 11v42q0 12 10 12t10 -12v-42zM398 8q0 -5 -3.5 -8t-7.5 -3q-10 0 -10 11v62q-7 -16 -20.5 -29.5t-31 -23t-37.5 -15t-41 -5.5h-11q-31 0 -58.5 12t-47.5 32t-32 47.5
t-12 59.5v332q0 11 10 11q11 0 11 -11v-332q0 -27 10 -50.5t27.5 -41.5t41 -28t50.5 -10h11q27 0 50.5 9.5t41 26t28 38t10.5 46.5v342q0 11 10 11q4 0 7.5 -3t3.5 -8v-472z" />
    <glyph glyph-name="yacute" unicode="&#xfd;" horiz-adv-x="410"
d="M324 689q0 -6 -6 -9l-214 -129q-2 -1 -6 -1q-6 0 -8 5q-2 4 -2 6q0 5 5 8l215 129q4 2 5 2q6 0 9 -5q2 -4 2 -6zM364 477q-11 -34 -25 -76.5t-29 -90t-31 -96.5t-31 -95q-35 -108 -72 -224q-19 -59 -46.5 -83.5t-72.5 -24.5q-11 0 -11 10t11 10q34 0 57.5 22t40.5 73
l49 147l-149 428q-1 1 -1 4q0 5 3.5 7.5t7.5 2.5q7 0 10 -7l140 -401l128 400q3 8 10 8q11 0 11 -10v-4z" />
    <glyph glyph-name="thorn" unicode="&#xfe;" horiz-adv-x="531"
d="M439 142q0 -30 -11.5 -56.5t-31 -46t-46 -31t-56.5 -11.5h-10q-40 0 -72.5 19t-51.5 51v-257q0 -11 -10.5 -11t-10.5 11v888q0 11 10.5 11t10.5 -11v-277q19 32 51.5 51t72.5 19h10q30 0 56.5 -11.5t46 -31t31 -45.5t11.5 -56v-205zM418 347q0 25 -10 47.5t-26.5 39.5
t-39.5 26.5t-48 9.5h-10q-26 0 -48.5 -9.5t-39 -26.5t-26.5 -39.5t-10 -47.5v-205q0 -26 10 -48.5t26.5 -39t39 -26.5t48.5 -10h10q25 0 48 9.5t39.5 26.5t26.5 39.5t10 48.5v205z" />
    <glyph glyph-name="ydieresis" unicode="&#xff;" horiz-adv-x="410"
d="M316 646q0 -11 -10 -11t-10 11v42q0 12 10 12t10 -12v-42zM117 646q0 -11 -11 -11q-10 0 -10 11v42q0 12 10 12q11 0 11 -12v-42zM364 477q-11 -34 -25 -76.5t-29 -90t-31 -96.5t-31 -95q-35 -108 -72 -224q-19 -59 -46.5 -83.5t-72.5 -24.5q-11 0 -11 10t11 10
q34 0 57.5 22t40.5 73l49 147l-149 428q-1 1 -1 4q0 5 3.5 7.5t7.5 2.5q7 0 10 -7l140 -401l128 400q3 8 10 8q11 0 11 -10v-4z" />
    <glyph glyph-name="dotlessi" unicode="&#x131;" horiz-adv-x="245"
d="M133 8q0 -11 -11 -11q-10 0 -10 11v472q0 11 10 11q11 0 11 -11v-472v0z" />
    <glyph glyph-name="Lslash" unicode="&#x141;" horiz-adv-x="486"
d="M479 10q0 -10 -10 -10h-297q-10 0 -10 11v294l-67 -39q-4 -2 -6 -2q-4 0 -7 3.5t-3 7.5q0 6 5 9l78 46v359q0 11 10 11q4 0 7.5 -3t3.5 -8v-347l214 129q2 2 6 2q10 0 10 -11q0 -7 -5 -9l-225 -135v-297h286q10 0 10 -11z" />
    <glyph glyph-name="lslash" unicode="&#x142;" horiz-adv-x="458"
d="M386 453q0 -6 -5 -9l-137 -86v-350q0 -11 -11 -11q-10 0 -10 11v337l-134 -84q-4 -2 -5 -2q-5 0 -8 3.5t-3 7.5q0 6 5 9l145 91v319q0 11 10 11q11 0 11 -11v-306l125 79q4 2 6 2q5 0 8 -3.5t3 -7.5z" />
    <glyph glyph-name="OE" unicode="&#x152;" horiz-adv-x="830"
d="M790 10q0 -10 -10 -10h-330q-10 0 -10 10v80q-23 -42 -63.5 -67.5t-91.5 -25.5h-11q-36 0 -68 14t-56 38t-37.5 56t-13.5 68v352q0 36 13.5 68t37.5 56t56 37.5t68 13.5h11q51 0 91.5 -25.5t63.5 -67.5v80q0 10 10 10h330q10 0 10 -10q0 -11 -10 -11h-319v-305h227
q10 0 10 -10q0 -4 -2.5 -7.5t-7.5 -3.5h-227v-329h319q10 0 10 -11zM440 525q0 32 -12 60t-33 49t-49.5 33t-60.5 12h-11q-32 0 -60 -12t-49 -33t-33 -49t-12 -60v-352q0 -32 12 -60.5t33 -49.5t49 -33t60 -12h11q32 0 60.5 12t49.5 33t33 49.5t12 60.5v352z" />
    <glyph glyph-name="oe" unicode="&#x153;" horiz-adv-x="759"
d="M687 246q0 -11 -11 -11h-279v-88q0 -27 10 -50.5t27.5 -41t41 -27.5t50.5 -10h10q43 0 76 25t46 63q3 7 10 7q11 0 11 -10v-4q-15 -45 -53.5 -73.5t-89.5 -28.5h-10q-48 0 -85.5 26.5t-54.5 68.5q-17 -42 -54 -68.5t-85 -26.5h-11q-31 0 -58.5 12t-47.5 32t-32 47.5
t-12 58.5v194q0 31 12 58.5t32 47.5t47.5 32t58.5 12h11q48 0 85.5 -26.5t53.5 -68.5q17 42 55 68.5t86 26.5h8q31 0 58.5 -11t48.5 -31t33 -47.5t12 -60.5v-95zM666 341q0 27 -10 50.5t-27.5 41t-41 27.5t-50.5 10h-11q-26 0 -49.5 -10t-41 -27.5t-28 -41t-10.5 -50.5v-85
h269v85zM376 341q0 27 -10 50.5t-27.5 41t-41 27.5t-50.5 10h-11q-27 0 -50.5 -10t-41 -27.5t-27.5 -41t-10 -50.5v-194q0 -27 10 -50.5t27.5 -41t41 -27.5t50.5 -10h11q27 0 50.5 10t41 27.5t27.5 41t10 50.5v194z" />
    <glyph glyph-name="Scaron" unicode="&#x160;" horiz-adv-x="500"
d="M374 887q0 -4 -5 -9l-113 -76q-5 -3 -9 -3t-8 3l-113 76q-5 5 -5 9t3 8t8 4q4 0 6 -2l109 -72l109 72q4 3 7 3q5 0 8 -4.5t3 -8.5zM434 162q0 -38 -14 -68.5t-38.5 -52t-57.5 -33t-71 -11.5h-11q-36 0 -68 12t-56 34.5t-38 55t-14 73.5q0 11 10.5 11t10.5 -11
q0 -36 12 -65t33 -48.5t49.5 -30t60.5 -10.5h11q34 0 63 10t50.5 28.5t34 45t12.5 60.5q0 57 -25 93t-63 61t-82 44.5t-82 42.5t-63 55t-25 83q0 36 13.5 65.5t36.5 50.5t54 32t66 11h10q35 0 65.5 -11t53.5 -30.5t36.5 -47t13.5 -60.5q0 -11 -10.5 -11t-10.5 10
q0 29 -11.5 52.5t-31.5 40.5t-47 26.5t-58 9.5h-10q-31 0 -58 -9.5t-47.5 -27.5t-32 -44t-11.5 -58q0 -46 25 -75.5t63 -51t82 -41t82 -46t63 -65.5t25 -99z" />
    <glyph glyph-name="scaron" unicode="&#x161;" horiz-adv-x="451"
d="M351 687q0 -6 -5 -8l-113 -76q-3 -3 -8 -3t-8 3l-113 76q-5 2 -5 8q0 5 3 9t8 4q2 0 6 -2l108 -73l110 73q4 2 6 2q5 0 8 -4t3 -9zM392 131q0 -36 -14 -61t-36.5 -41.5t-51 -24t-58.5 -7.5h-9q-22 0 -46.5 7t-47 20t-40.5 31t-28 40q-5 10 5 14.5t15 -5.5q9 -19 25 -34.5
t35.5 -27t41 -18t40.5 -6.5h9q28 0 53.5 7t44.5 21t30 35t11 50q0 33 -12.5 54t-33.5 34.5t-47.5 21t-53.5 12.5q-21 4 -47 11.5t-48 20t-37 32t-15 48.5v9q0 31 13 53t33.5 36t46.5 21t52 7h6q46 0 78.5 -17t55.5 -37q4 -4 4 -8.5t-2.5 -7.5t-7 -3.5t-8.5 3.5
q-23 20 -52 34.5t-68 14.5h-6q-21 0 -43.5 -5.5t-40.5 -17t-29.5 -29.5t-11.5 -44v-9q0 -20 11.5 -35t30.5 -26.5t42 -19t46 -12.5q31 -6 60.5 -14.5t53 -23.5t37.5 -39.5t14 -63.5z" />
    <glyph glyph-name="Ydieresis" unicode="&#x178;" horiz-adv-x="475"
d="M346 846q0 -12 -10 -12q-11 0 -11 12v42q0 12 11 12q10 0 10 -12v-42zM147 846q0 -6 -3.5 -9t-7.5 -3q-10 0 -10 12v42q0 12 10 12q4 0 7.5 -3t3.5 -9v-42zM422 690q0 -3 -1 -4l-173 -417v-262q0 -10 -10 -10q-11 0 -11 10v262l-173 417q-1 1 -1 4q0 10 11 10q6 0 9 -6
l165 -396l164 396q3 6 9 6q11 0 11 -10z" />
    <glyph glyph-name="Zcaron" unicode="&#x17d;" horiz-adv-x="474"
d="M374 887q0 -4 -5 -9l-113 -76q-5 -3 -9 -3t-8 3l-113 76q-5 5 -5 9t3 8t8 4q4 0 6 -2l109 -72l109 72q4 3 7 3q5 0 8 -4.5t3 -8.5zM428 10q0 -10 -10 -10h-355q-10 0 -10 10v8q0 4 2 8q1 2 2 2l338 648h-313q-11 0 -11 11q0 10 11 10h326q11 0 11 -10v-8q0 -3 -2 -7
q-1 -2 -1 -4l-337 -647h339q10 0 10 -11z" />
    <glyph glyph-name="zcaron" unicode="&#x17e;" horiz-adv-x="454"
d="M355 687q0 -5 -4 -8l-113 -76q-5 -3 -9 -3q-5 0 -8 3l-113 76q-5 2 -5 8q0 5 3 9t8 4q2 0 6 -2l108 -73l110 73q4 2 7 2q5 0 7.5 -4t2.5 -9zM401 10q0 -10 -11 -10h-327q-4 0 -7 3.5t-3 7.5v6q0 4 2 8q1 2 2 3l308 439h-293q-10 0 -10 11q0 10 10 10h306q5 0 7.5 -3.5
t2.5 -7.5v-6q0 -4 -2 -8q-1 -2 -1 -4l-306 -438h311q11 0 11 -11z" />
    <glyph glyph-name="florin" unicode="&#x192;" horiz-adv-x="345"
d="M316 679q-40 0 -69.5 -22.5t-37.5 -70.5l-16 -95h76q11 0 11 -10.5t-11 -10.5h-80l-77 -438q-10 -54 -44.5 -82.5t-82.5 -28.5q-11 0 -11 10.5t11 10.5q40 0 69 26.5t37 66.5l76 435h-55q-11 0 -11 10.5t11 10.5h59l17 98q9 54 44.5 82.5t83.5 28.5q11 0 11 -10.5
t-11 -10.5z" />
    <glyph glyph-name="circumflex" unicode="&#x2c6;" horiz-adv-x="513"
d="M383 613q0 -5 -3 -9t-8 -4q-2 0 -6 2l-108 72l-110 -72q-4 -2 -6 -2q-5 0 -8 4t-3 9t5 8l113 76q3 3 8 3t8 -3l113 -76q5 -3 5 -8z" />
    <glyph glyph-name="caron" unicode="&#x2c7;" horiz-adv-x="513"
d="M383 687q0 -6 -5 -8l-113 -76q-3 -3 -8 -3t-8 3l-113 76q-5 2 -5 8q0 5 3 9t8 4q2 0 6 -2l108 -73l110 73q4 2 6 2q5 0 8 -4t3 -9z" />
    <glyph glyph-name="breve" unicode="&#x2d8;" horiz-adv-x="534"
d="M361 770q0 -38 -26.5 -64.5t-64.5 -26.5h-6q-38 0 -64.5 26.5t-26.5 64.5q0 11 10.5 11t10.5 -11q0 -29 20.5 -49.5t49.5 -20.5h6q29 0 49.5 20.5t20.5 49.5q0 11 10.5 11t10.5 -11z" />
    <glyph glyph-name="dotaccent" unicode="&#x2d9;" horiz-adv-x="317"
d="M169 646q0 -11 -11 -11q-10 0 -10 11v42q0 12 10 12q11 0 11 -12v-42v0z" />
    <glyph glyph-name="ring" unicode="&#x2da;" horiz-adv-x="549"
d="M345 630q0 -29 -20.5 -49.5t-49.5 -20.5t-49.5 20.5t-20.5 49.5t20.5 49.5t49.5 20.5t49.5 -20.5t20.5 -49.5zM324 630q0 20 -14.5 34.5t-34.5 14.5t-34.5 -14.5t-14.5 -34.5t14.5 -34.5t34.5 -14.5t34.5 14.5t14.5 34.5z" />
    <glyph glyph-name="ogonek" unicode="&#x2db;" horiz-adv-x="547"
d="M346 -99q-6 -22 -26.5 -36.5t-43.5 -14.5h-9q-28 0 -48 19.5t-20 48.5v10q0 21 12.5 36.5t31 26.5t39.5 17.5t38 9.5q5 1 8 -2t4 -7t-1.5 -7.5t-7.5 -4.5q-2 0 -18.5 -4t-35 -12t-34 -21t-15.5 -32v-10q0 -20 13.5 -33.5t33.5 -13.5h9q16 0 30.5 11t19.5 25q3 10 13 7
t7 -13z" />
    <glyph glyph-name="tilde" unicode="&#x2dc;" horiz-adv-x="494"
d="M397 547q-15 -11 -32.5 -19t-49.5 -8q-19 0 -38 5t-37 10.5t-34.5 10.5t-31.5 5q-19 0 -35.5 -10t-26.5 -21q-10 -10 -18.5 -3t0.5 17q18 20 40 29t43 9q16 0 33 -5t34.5 -10.5t35.5 -10.5t35 -5q26 0 43.5 8.5t25.5 15.5q5 4 10 3.5t7.5 -4t2 -8.5t-6.5 -9z" />
    <glyph glyph-name="hungarumlaut" unicode="&#x2dd;" horiz-adv-x="514"
d="M382 689q0 -56 -20 -91t-75 -54q-1 -1 -3 -1q-5 0 -8 3.5t-3 7.5q0 7 7 10q49 17 65.5 45.5t16.5 79.5q0 11 10 11t10 -11zM241 689q0 -56 -20 -91t-75 -54q-1 -1 -4 -1q-5 0 -7.5 3.5t-2.5 7.5q0 7 7 10q48 17 64.5 45.5t16.5 79.5q0 11 10 11q11 0 11 -11z" />
    <glyph glyph-name="Delta" unicode="&#x394;" horiz-adv-x="685"
d="M665 12q0 -6 -5 -9t-10 -3h-615q-4 0 -9.5 3t-5.5 9q0 8 0.5 9l3.5 7l300 617q2 5 6 8.5t12 3.5t12.5 -3.5t6.5 -8.5l300 -617q2 -6 3 -7t1 -9zM342 634l-297 -613h595z" />
    <glyph glyph-name="Delta" unicode="&#x2206;" horiz-adv-x="685"
d="M665 12q0 -6 -5 -9t-10 -3h-615q-4 0 -9.5 3t-5.5 9q0 8 0.5 9l3.5 7l300 617q2 5 6 8.5t12 3.5t12.5 -3.5t6.5 -8.5l300 -617q2 -6 3 -7t1 -9zM342 634l-297 -613h595z" />
    <glyph glyph-name="Omega" unicode="&#x3a9;" horiz-adv-x="761"
d="M689 395q0 -48 -14.5 -92.5t-40 -81.5t-61 -66t-78.5 -46v-88h179q11 0 11 -11q0 -10 -11 -10h-189q-11 0 -11 11v97q0 6 1.5 11t9.5 9q15 6 45.5 23.5t61 49.5t53.5 80t23 114q0 59 -22.5 111t-61.5 90.5t-91.5 60.5t-111.5 22t-111.5 -22t-91.5 -60.5t-61.5 -90.5
t-22.5 -111q0 -66 23 -114t53.5 -80t60.5 -49.5t45 -23.5q8 -3 10 -8.5t2 -11.5v-97q0 -11 -11 -11h-189q-11 0 -11 10q0 11 11 11h179v88q-43 17 -78.5 46t-61 66t-40 81.5t-14.5 92.5q0 64 24 119.5t66 96.5t98 65t120 24t120 -24t98 -65t66 -96.5t24 -119.5z" />
    <glyph glyph-name="Omega" unicode="&#x2126;" horiz-adv-x="761"
d="M689 395q0 -48 -14.5 -92.5t-40 -81.5t-61 -66t-78.5 -46v-88h179q11 0 11 -11q0 -10 -11 -10h-189q-11 0 -11 11v97q0 6 1.5 11t9.5 9q15 6 45.5 23.5t61 49.5t53.5 80t23 114q0 59 -22.5 111t-61.5 90.5t-91.5 60.5t-111.5 22t-111.5 -22t-91.5 -60.5t-61.5 -90.5
t-22.5 -111q0 -66 23 -114t53.5 -80t60.5 -49.5t45 -23.5q8 -3 10 -8.5t2 -11.5v-97q0 -11 -11 -11h-189q-11 0 -11 10q0 11 11 11h179v88q-43 17 -78.5 46t-61 66t-40 81.5t-14.5 92.5q0 64 24 119.5t66 96.5t98 65t120 24t120 -24t98 -65t66 -96.5t24 -119.5z" />
    <glyph glyph-name="pi" unicode="&#x3c0;" horiz-adv-x="471"
d="M458 478q0 -11 -10 -11h-115v-349q0 -20 3 -38t10.5 -31.5t19.5 -22t31 -8.5q10 0 10 -11q0 -10 -11 -10h-6q-7 0 -11 1q-41 12 -54 41.5t-13 78.5v349h-154v-459q0 -11 -11 -11q-10 0 -10 11v459h-113q-11 0 -11 11q0 10 11 10h424q10 0 10 -10z" />
    <glyph glyph-name="endash" unicode="&#x2013;" horiz-adv-x="549"
d="M489 342q0 -4 -3 -7.5t-8 -3.5h-408q-11 0 -11 10q0 5 3 8.5t8 3.5h408q11 0 11 -11z" />
    <glyph glyph-name="emdash" unicode="&#x2014;" horiz-adv-x="597"
d="M620 342q0 -4 -2.5 -7.5t-7.5 -3.5h-573q-11 0 -11 10q0 5 3 8.5t8 3.5h573q10 0 10 -11z" />
    <glyph glyph-name="quoteleft" unicode="&#x2018;" horiz-adv-x="173"
d="M133 690q0 -4 -2 -7q-17 -24 -30.5 -57.5t-13.5 -86.5v-51q0 -10 -11 -10q-10 0 -10 10v51q0 55 14 92t34 65q4 4 9 4q10 0 10 -10z" />
    <glyph glyph-name="quoteright" unicode="&#x2019;" horiz-adv-x="173"
d="M107 639q0 -55 -14 -92t-34 -64q-3 -5 -8 -5q-11 0 -11 10q0 3 2 7q17 24 31 57.5t14 86.5v51q0 10 10 10t10 -10v-51v0z" />
    <glyph glyph-name="quotesinglbase" unicode="&#x201a;" horiz-adv-x="265"
d="M166 12q0 -55 -14 -92t-34 -64q-3 -5 -8 -5q-11 0 -11 10q0 3 2 7q17 24 31 57.5t14 86.5v51q0 10 10 10t10 -10v-51v0z" />
    <glyph glyph-name="quotedblleft" unicode="&#x201c;" horiz-adv-x="320"
d="M280 690q0 -1 -2 -7q-17 -24 -31 -57.5t-14 -86.5v-51q0 -10 -10 -10t-10 10v51q0 55 14 92t34 65q3 4 8 4q11 0 11 -10zM133 690q0 -4 -2 -7q-17 -24 -30.5 -57.5t-13.5 -86.5v-51q0 -10 -11 -10q-10 0 -10 10v51q0 55 14 92t34 65q4 4 9 4q10 0 10 -10z" />
    <glyph glyph-name="quotedblright" unicode="&#x201d;" horiz-adv-x="320"
d="M254 639q0 -55 -14.5 -92t-34.5 -64q-3 -5 -8 -5q-10 0 -10 10q0 5 2 7q17 24 30.5 57.5t13.5 86.5v51q0 10 11 10q10 0 10 -10v-51zM107 639q0 -55 -14 -92t-34 -64q-3 -5 -8 -5q-11 0 -11 10q0 3 2 7q17 24 31 57.5t14 86.5v51q0 10 10 10t10 -10v-51z" />
    <glyph glyph-name="quotedblbase" unicode="&#x201e;" horiz-adv-x="381"
d="M282 12q0 -55 -14 -92t-34 -64q-3 -5 -8 -5q-11 0 -11 10q0 3 2 7q17 24 31 57.5t14 86.5v51q0 10 10 10t10 -10v-51zM166 12q0 -55 -14 -92t-34 -64q-3 -5 -8 -5q-11 0 -11 10q0 3 2 7q17 24 31 57.5t14 86.5v51q0 10 10 10t10 -10v-51z" />
    <glyph glyph-name="dagger" unicode="&#x2020;" horiz-adv-x="455"
d="M389 480q0 -11 -11 -11h-140v-461q0 -11 -11 -11q-10 0 -10 11v461h-140q-11 0 -11 11q0 10 11 10h140v199q0 11 10 11q11 0 11 -11v-199h140q11 0 11 -10z" />
    <glyph glyph-name="daggerdbl" unicode="&#x2021;" horiz-adv-x="455"
d="M389 217q0 -10 -11 -10h-140v-199q0 -11 -11 -11q-10 0 -10 11v199h-140q-11 0 -11 10q0 11 11 11h140v241h-140q-11 0 -11 11q0 10 11 10h140v199q0 11 10 11q11 0 11 -11v-199h140q11 0 11 -10q0 -11 -11 -11h-140v-241h140q11 0 11 -11z" />
    <glyph glyph-name="bullet" unicode="&#x2022;" horiz-adv-x="393"
d="M300 337q0 -22 -8 -41t-22 -33.5t-33 -22.5t-41 -8q-21 0 -40 8t-33.5 22.5t-22.5 33.5t-8 41q0 21 8 40t22.5 33.5t33.5 22.5t40 8q22 0 41 -8t33 -22.5t22 -33.5t8 -40z" />
    <glyph glyph-name="ellipsis" unicode="&#x2026;" horiz-adv-x="434"
d="M394 9q0 -12 -10 -12q-11 0 -11 12v42q0 11 11 11q10 0 10 -11v-42zM224 9q0 -12 -11 -12q-10 0 -10 12v42q0 11 11 11q10 0 10 -11v-42zM54 9q0 -12 -11 -12q-10 0 -10 12v42q0 11 10 11q11 0 11 -11v-42z" />
    <glyph glyph-name="perthousand" unicode="&#x2030;" horiz-adv-x="971"
d="M892 93q0 -20 -7 -37t-19.5 -30.5t-29.5 -21t-36 -7.5q-20 0 -36.5 7.5t-29.5 21t-20 30.5t-7 37v184q0 19 7 36.5t20 31t29.5 21t36.5 7.5q19 0 36 -7.5t29.5 -21t19.5 -31t7 -36.5v-184zM657 93q0 -20 -7 -37t-20 -30.5t-30 -21t-36 -7.5t-36 7.5t-29.5 21t-19.5 30.5
t-7 37v184q0 19 7 36.5t19.5 31t29.5 21t36 7.5t36 -7.5t30 -21t20 -31t7 -36.5v-184zM233 3q-3 -6 -9 -6q-4 0 -7.5 2.5t-3.5 7.5q0 1 0.5 2t0.5 2l282 683q3 6 10 6q10 0 10 -10v-4zM264 420q0 -20 -7 -37t-19.5 -30.5t-29.5 -21t-36 -7.5q-20 0 -36.5 7.5t-29.5 21
t-20 30.5t-7 37v184q0 19 7 36.5t20 31t29.5 21t36.5 7.5q19 0 36 -7.5t29.5 -21t19.5 -31t7 -36.5v-184zM871 277q0 32 -21 53.5t-50 21.5q-30 0 -51 -21.5t-21 -53.5v-184q0 -32 21 -53.5t51 -21.5q29 0 50 21.5t21 53.5v184zM636 277q0 32 -21 53.5t-51 21.5
q-29 0 -50.5 -21.5t-21.5 -53.5v-184q0 -32 21.5 -53.5t50.5 -21.5q30 0 51 21.5t21 53.5v184zM243 604q0 32 -21 53.5t-50 21.5q-30 0 -51 -21.5t-21 -53.5v-184q0 -32 21 -53.5t51 -21.5q29 0 50 21.5t21 53.5v184z" />
    <glyph glyph-name="guilsinglleft" unicode="&#x2039;" horiz-adv-x="408"
d="M276 81q0 -7 -3 -9q-3 -3 -9 -3q-4 0 -11 7l-181 170q-6 6 -6 17t6 17l181 170q7 7 11 7q6 0 9 -3q3 -2 3 -9q0 -3 -9 -10l-183 -172l183 -172q9 -8 9 -10z" />
    <glyph glyph-name="guilsinglright" unicode="&#x203a;" horiz-adv-x="408"
d="M342 263q0 -5 -2.5 -10t-4.5 -7l-182 -170q-4 -3 -6 -5t-4 -2q-7 0 -9 2q-2 3 -2 10q0 3 7 10l184 172l-184 172q-7 7 -7 10q0 7 2 10q2 2 9 2q2 0 4 -2t6 -5l182 -170q2 -2 4.5 -7t2.5 -10z" />
    <glyph glyph-name="fraction" unicode="&#x2044;" horiz-adv-x="311"
d="M305 690q0 -2 -0.5 -2.5t-0.5 -2.5l-276 -681q-3 -7 -10 -7q-4 0 -7.5 2.5t-3.5 7.5q0 3 1 5l276 681q3 7 10 7q4 0 7.5 -2.5t3.5 -7.5z" />
    <glyph glyph-name="Euro" unicode="&#x20ac;" horiz-adv-x="564"
d="M498 147q-5 -32 -20 -59.5t-38 -47.5t-52.5 -31.5t-62.5 -11.5h-11q-36 0 -68 14t-56 38t-38 56t-14 68v89h-61q-11 0 -11 10q0 11 11 11h61v121h-61q-11 0 -11 10t11 10h61v101q0 36 14 68t38 56t56 37.5t68 13.5h11q33 0 62.5 -11.5t52.5 -31.5t38 -47.5t20 -59.5
q1 -5 -2 -8t-6.5 -4t-7 1.5t-4.5 7.5q-4 28 -17.5 52t-34 42t-46.5 28t-55 10h-11q-32 0 -60.5 -12t-49.5 -33t-33 -49t-12 -60v-101h237q11 0 11 -10t-11 -10h-237v-121h237q11 0 11 -11q0 -10 -11 -10h-237v-89q0 -32 12 -60.5t33 -49.5t49.5 -33t60.5 -12h11q29 0 55 10
t46.5 28t34 42t17.5 52q1 5 4.5 7.5t7 1.5t6.5 -4t2 -8z" />
    <glyph glyph-name="trademark" unicode="&#x2122;" horiz-adv-x="597"
d="M531 388q0 -8 -10 -8q-9 0 -9 8v272l-86 -154q-5 -8 -9 -8h-2h-2q-1 0 -3.5 1t-5.5 7l-84 154v-272q0 -8 -10 -8q-9 0 -9 8v303q0 9 8 9h3q5 0 10 -8l93 -171l93 171q5 8 11 8h3q3 0 6 -2.5t3 -6.5v-303zM236 691q0 -10 -8 -10h-78v-293q0 -8 -9 -8t-9 8v293h-84
q-8 0 -8 10q0 9 8 9h180q8 0 8 -9z" />
    <glyph glyph-name="partialdiff" unicode="&#x2202;" horiz-adv-x="467"
d="M414 142q0 -30 -11.5 -56.5t-31 -46t-46 -31t-56.5 -11.5h-12q-30 0 -56.5 11.5t-46 31t-31 46t-11.5 56.5v135q0 30 11.5 56.5t31 46t46 31t56.5 11.5h12q39 0 71.5 -19t52.5 -51v203q0 21 -8.5 43t-24.5 40t-39 29.5t-52 11.5h-62q-11 0 -11 11q0 10 11 10h62
q31 0 58 -11.5t46 -31.5t30 -46.5t11 -55.5v-413zM393 277q0 25 -10 48t-26.5 39.5t-39.5 26.5t-48 10h-12q-26 0 -48.5 -10t-39.5 -26.5t-26.5 -39.5t-9.5 -48v-135q0 -26 9.5 -48.5t26.5 -39t39.5 -26.5t48.5 -10h12q25 0 48 10t39.5 26.5t26.5 39t10 48.5v135z" />
    <glyph glyph-name="product" unicode="&#x220f;" horiz-adv-x="724"
d="M586 -202q0 -5 -3.5 -8t-7.5 -3q-10 0 -10 11v878h-405v-878q0 -11 -11 -11q-10 0 -10 11v889q0 10 11 10h425q11 0 11 -10v-889v0z" />
    <glyph glyph-name="summation" unicode="&#x2211;" horiz-adv-x="489"
d="M482 -200q0 -10 -10 -10h-435q-11 0 -11 11v6q0 5 1.5 7.5t3.5 6.5l257 422l-257 423q-2 4 -3.5 6.5t-1.5 7.5v6q0 11 11 11h435q10 0 10 -10q0 -11 -10 -11h-420l247 -408q12 -18 12 -25t-11 -25l-248 -407h420q10 0 10 -11z" />
    <glyph glyph-name="minus" unicode="&#x2212;" horiz-adv-x="663"
d="M570 244q0 -10 -11 -10h-456q-11 0 -11 10t11 10h456q11 0 11 -10z" />
    <glyph glyph-name="radical" unicode="&#x221a;" horiz-adv-x="468"
d="M212 8q-2 -6 -6 -8.5t-8 -2.5t-8.5 2.5t-6.5 7.5l-123 288q0 2 -0.5 2.5t-0.5 2.5q0 10 11 10q6 0 9 -7l118 -277l231 667q3 7 10 7q10 0 10 -10v-4z" />
    <glyph glyph-name="infinity" unicode="&#x221e;" horiz-adv-x="703"
d="M643 350q0 -25 -8 -47t-22.5 -39t-35 -27t-46.5 -10q-24 0 -49.5 9.5t-49 25t-44.5 34.5t-37 38q-16 -19 -37 -38t-44.5 -34.5t-49 -25t-49.5 -9.5q-26 0 -46.5 10t-35 27t-22.5 39t-8 47t8 47.5t22.5 39t35 26.5t46.5 10q24 0 49.5 -9.5t49 -24.5t44.5 -34t37 -38
q16 19 37 38t44.5 34t49 24.5t49.5 9.5q26 0 46.5 -10t35 -26.5t22.5 -39t8 -47.5zM622 350q0 44 -24.5 73.5t-66.5 29.5q-27 0 -53.5 -12.5t-49 -30t-39.5 -34.5t-24 -26q7 -9 24 -26t39.5 -34t49 -29.5t53.5 -12.5q42 0 66.5 29.5t24.5 72.5zM337 350q-15 17 -34 35
t-41 33t-45 25t-46 10q-42 0 -66.5 -29.5t-24.5 -73.5q0 -43 24.5 -72.5t66.5 -29.5q23 0 46 9.5t45 24.5t41 33t34 35z" />
    <glyph glyph-name="integral" unicode="&#x222b;" horiz-adv-x="265"
d="M222 679q-39 0 -64 -26.5t-25 -65.5v-687q0 -48 -30.5 -80.5t-78.5 -32.5q-11 0 -11 10.5t11 10.5q38 0 63 26.5t25 65.5v687q0 24 8 44.5t23 35.5t35 24t44 9q11 0 11 -10.5t-11 -10.5z" />
    <glyph glyph-name="approxequal" unicode="&#x2248;" horiz-adv-x="512"
d="M406 547q-15 -11 -33 -19t-50 -8q-19 0 -37.5 5t-36.5 10.5t-34.5 10.5t-31.5 5q-19 0 -35.5 -10t-26.5 -21q-10 -10 -18.5 -3t0.5 17q19 20 40.5 29t41.5 9q16 0 33.5 -5t35 -10.5t35.5 -10.5t35 -5q26 0 43.5 8.5t25.5 15.5q5 4 10 3.5t7.5 -4t2 -8.5t-6.5 -9zM406 398
q-15 -11 -33 -19t-50 -8q-19 0 -37.5 5t-36.5 10.5t-34.5 10.5t-31.5 5q-19 0 -35.5 -10t-26.5 -21q-10 -10 -18.5 -3t0.5 17q19 20 40.5 29t41.5 9q16 0 33.5 -5t35 -10.5t35.5 -10.5t35 -5q26 0 43.5 8.5t25.5 15.5q5 4 10 3t7.5 -4t2 -8t-6.5 -9z" />
    <glyph glyph-name="notequal" unicode="&#x2260;" horiz-adv-x="494"
d="M441 272q0 -10 -11 -10h-227l-59 -92q-3 -5 -8 -5q-2 0 -6 2q-5 3 -5 9q0 2 2 6l51 80h-114q-11 0 -11 10q0 11 11 11h128l78 121h-206q-11 0 -11 10t11 10h220l65 103q3 5 9 5q2 0 6 -2q5 -3 5 -9q0 -2 -2 -6l-58 -91h121q11 0 11 -10t-11 -10h-135l-78 -121h213
q11 0 11 -11z" />
    <glyph glyph-name="lessequal" unicode="&#x2264;" horiz-adv-x="498"
d="M358 163q0 -5 -3.5 -9t-8.5 -4q-4 0 -7 3l-222 149q-3 2 -6.5 7t-3.5 13q0 9 3.5 13.5t6.5 6.5l222 150q4 2 7 2q5 0 8.5 -4t3.5 -9q0 -4 -5 -9l-222 -150l222 -150q5 -3 5 -9zM399 10q0 -11 -10 -11h-279q-11 0 -11 11q0 10 11 10h279q10 0 10 -10z" />
    <glyph glyph-name="greaterequal" unicode="&#x2265;" horiz-adv-x="498"
d="M391 322q0 -8 -3.5 -13t-6.5 -7l-221 -149q-5 -3 -8 -3q-5 0 -8 4t-3 9q0 6 4 9l223 150l-223 150q-4 4 -4 9t3 9t8 4q2 0 8 -2l221 -150q3 -2 6.5 -6.5t3.5 -13.5zM399 10q0 -11 -10 -11h-279q-11 0 -11 11q0 10 11 10h279q10 0 10 -10z" />
    <glyph glyph-name="lozenge" unicode="&#x25ca;" horiz-adv-x="600"
d="M547 244q0 -5 -2 -8.5t-4 -5.5l-225 -227q-2 -2 -6.5 -4t-9.5 -2t-8.5 2t-5.5 4l-227 227q-2 2 -4 6t-2 8q0 5 2 9t4 6l227 227q2 2 5.5 3.5t8.5 1.5t9.5 -1.5t6.5 -3.5l225 -227q2 -2 4 -6t2 -9zM300 469l-224 -225l224 -225l225 225z" />
    <glyph glyph-name="fi" unicode="&#xfb01;" horiz-adv-x="520"
d="M407 646q0 -11 -10 -11q-11 0 -11 11v42q0 12 11 12q2 0 6 -3t4 -9v-42zM407 8q0 -11 -10 -11q-11 0 -11 11v460h-239v-461q0 -10 -10 -10q-11 0 -11 10v461h-56q-11 0 -11 11q0 10 11 10h56v95q0 24 8.5 45.5t23.5 37t36 24.5t46 9q11 0 11 -10q0 -11 -11 -11
q-41 0 -67 -27.5t-26 -67.5v-95h250q10 0 10 -10v-471z" />
    <glyph glyph-name="fl" unicode="&#xfb02;" horiz-adv-x="558"
d="M505 7q0 -10 -10 -10q-24 0 -45.5 9t-37 25t-24.5 37.5t-9 45.5v562h-139q-41 0 -67 -27.5t-26 -67.5v-113h87q11 0 11 -10q0 -11 -11 -11h-87v-440q0 -10 -10 -10q-11 0 -11 10v440h-56q-11 0 -11 11q0 10 11 10h56v113q0 24 8.5 45.5t23.5 37t36 24.5t46 9h149
q10 0 10 -11v-572q0 -40 27.5 -68t68.5 -28q10 0 10 -11z" />
    <glyph glyph-name="DC3" horiz-adv-x="15470"
 />
    <glyph glyph-name="DC4" horiz-adv-x="636"
 />
    <glyph glyph-name="RS" horiz-adv-x="705"
d="M600 244q0 -4 -3 -7l-233 -237q-3 -3 -7 -3q-11 0 -11 11q0 4 3 7l216 219h-448q-11 0 -11 10v236q0 11 10 11q11 0 11 -11v-226h438l-216 219q-3 3 -3 7q0 11 11 11q4 0 7 -3l233 -237q3 -3 3 -7z" />
    <glyph glyph-name="US" horiz-adv-x="705"
d="M600 244q0 -4 -3 -7l-233 -237q-3 -3 -7 -3q-11 0 -11 11q0 4 3 7l216 219h-448q-11 0 -11 10t11 10h448l-216 219q-3 3 -3 7q0 11 11 11q4 0 7 -3l233 -237q3 -3 3 -7z" />
    <glyph glyph-name="apple" horiz-adv-x="535"
d="M422 142q0 -30 -11.5 -56.5t-31 -46t-45.5 -31t-56 -11.5h-20q-30 0 -56.5 11.5t-46 31t-31 46t-11.5 56.5q0 11 10.5 11t10.5 -11q0 -26 9.5 -48.5t26.5 -39t39.5 -26.5t48.5 -10h20q25 0 48 10t39.5 26.5t26.5 39t10 48.5v91q0 41 -8.5 68t-25 43t-40.5 22.5t-55 6.5
h-23q-11 0 -15.5 7t2.5 18l161 278h-249v-91q0 -10 -10.5 -10t-10.5 10v102q0 4 3.5 7t7.5 3h269q13 0 15.5 -8.5t-2.5 -16.5l-161 -278h13q37 0 64.5 -8t46.5 -26.5t28.5 -49.5t9.5 -77v-91v0z" />
  </font>
</defs>
</svg>
