<?xml version="1.0" standalone="no"?>
<!DOCTYPE svg PUBLIC "-//W3C//DTD SVG 1.1//EN" "http://www.w3.org/Graphics/SVG/1.1/DTD/svg11.dtd" >
<svg>
<defs>
<font id="graviabla" horiz-adv-x="542" >
<missing-glyph horiz-adv-x="1000"
 />
    <glyph glyph-name=".notdef" horiz-adv-x="1000"
 />
    <glyph glyph-name=".null" horiz-adv-x="0"
 />
    <glyph glyph-name="nonmarkingreturn" horiz-adv-x="245"
 />
    <glyph glyph-name="space" unicode=" " horiz-adv-x="245"
 />
    <glyph glyph-name="exclam" unicode="!" horiz-adv-x="247"
d="M182 263q0 -29 -18 -43t-41 -14q-22 0 -40 14t-18 43v376q0 29 18 43.5t40 14.5q23 0 41 -14.5t18 -43.5v-376zM182 52q0 -29 -18 -43.5t-41 -14.5q-22 0 -40 14.5t-18 43.5v20q0 29 18 43.5t40 14.5q23 0 41 -14.5t18 -43.5v-20z" />
    <glyph glyph-name="quotedbl" unicode="&#x22;" horiz-adv-x="382"
d="M325 516q0 -29 -18 -43.5t-40 -14.5t-40 14.5t-18 43.5v123q0 29 18 43.5t40 14.5t40 -14.5t18 -43.5v-123zM174 516q0 -29 -18 -43.5t-40 -14.5t-40 14.5t-18 43.5v123q0 29 18 43.5t40 14.5t40 -14.5t18 -43.5v-123z" />
    <glyph glyph-name="numbersign" unicode="#" horiz-adv-x="701"
d="M672 464q0 -22 -14.5 -40t-43.5 -18h-88l-21 -110h74q29 0 43.5 -17.5t14.5 -39.5t-14.5 -40t-43.5 -18h-94l-23 -139q-5 -25 -21 -36.5t-35 -11.5q-22 0 -40.5 14.5t-18.5 40.5v6.5t1 6.5l21 119h-100l-23 -139q-5 -25 -20.5 -36.5t-35.5 -11.5q-22 0 -40.5 14.5
t-18.5 41.5q0 8 1 12l21 119h-66q-29 0 -43.5 18t-14.5 40t14.5 39.5t43.5 17.5h86l21 110h-73q-29 0 -43 18t-14 39q0 22 14 40t43 18h93l23 128q5 25 21 36.5t35 11.5q22 0 40.5 -14.5t18.5 -40.5q0 -8 -1 -13l-21 -108h99l22 128q4 25 20.5 36.5t35.5 11.5
q22 0 40.5 -14.5t18.5 -41.5q0 -8 -1 -12l-19 -108h68q29 0 43.5 -18t14.5 -39zM310 406l-21 -110h104l19 110h-102z" />
    <glyph glyph-name="dollar" unicode="$" horiz-adv-x="472"
d="M443 185q0 -36 -11 -66.5t-31.5 -54.5t-48 -40.5t-60.5 -23.5v-29q0 -29 -18 -43.5t-39 -14.5q-22 0 -40 14.5t-18 43.5v29q-32 8 -59 24.5t-46.5 41.5t-31 57t-11.5 71q0 29 18 43.5t40 14.5t40 -14.5t18 -43.5q0 -41 23.5 -63t61.5 -22h9q38 0 63 19t25 57
q0 31 -21.5 54.5t-54 43.5t-70 40t-70 45.5t-54 58t-21.5 78.5v21q0 32 12 59t31.5 48t45 35t52.5 22v40q0 29 18 43.5t39 14.5q22 0 40 -14.5t18 -43.5v-39q30 -7 56 -20.5t45 -33.5t30 -45t11 -55q0 -28 -18 -42t-39.5 -14.5t-39.5 13t-18 40.5q0 20 -22 34t-58 14h-9
q-33 0 -55.5 -16.5t-22.5 -45.5v-15q0 -20 21.5 -37t54 -35.5t70 -40t70 -50.5t54 -67.5t21.5 -89.5z" />
    <glyph glyph-name="percent" unicode="%" horiz-adv-x="744"
d="M708 116q0 -25 -10 -47.5t-27 -39t-40.5 -26t-51.5 -9.5q-27 0 -50.5 9.5t-41 26t-27 39t-9.5 47.5v132q0 25 9.5 47.5t27 39t41 26t50.5 9.5q28 0 51.5 -9.5t40.5 -26t27 -39t10 -47.5v-132zM552 641q0 -11 -5 -24l-243 -587q-8 -20 -22 -28.5t-29 -8.5q-23 0 -42 15.5
t-19 41.5q0 13 5 24l243 587q8 20 22 28t30 8q23 0 41.5 -15.5t18.5 -40.5zM293 443q0 -25 -9.5 -47.5t-27 -39t-41 -26t-50.5 -9.5q-28 0 -51.5 9.5t-41 26t-27 39t-9.5 47.5v130q0 26 9.5 48.5t27 39.5t41 26.5t51.5 9.5q27 0 50.5 -9.5t41 -26.5t27 -39.5t9.5 -48.5v-130
zM608 243q0 15 -9.5 23t-19.5 8t-19 -8.5t-9 -22.5v-122q0 -14 9 -22.5t19 -8.5t19.5 8t9.5 23v122zM193 570q0 14 -8.5 22.5t-19.5 8.5q-10 0 -19.5 -8t-9.5 -23v-122q0 -16 9.5 -23.5t19.5 -7.5q11 0 19.5 8t8.5 23v122z" />
    <glyph glyph-name="ampersand" unicode="&#x26;" horiz-adv-x="538"
d="M491 178q-6 -14 -17.5 -30t-19.5 -29q3 -3 10.5 -6.5t15.5 -3.5q29 -1 43.5 -19t14.5 -39.5t-14.5 -39t-43.5 -17.5t-59 12t-49 32q-30 -20 -64 -32t-69 -12h-9q-44 0 -81 14.5t-63.5 40.5t-41.5 62.5t-15 81.5q0 33 10.5 62t27.5 53.5t39.5 45t45.5 37.5q-28 46 -38 72
t-10 46q0 64 37 102t109 38h7q19 0 44.5 -6t49 -22t40 -43.5t16.5 -70.5q0 -26 -9.5 -48t-24.5 -40.5t-34.5 -34t-40.5 -30.5l81 -132q1 2 7.5 9t8.5 9q14 16 34.5 17.5t37 -8.5t25 -28.5t-0.5 -42.5zM291 507q0 12 -8.5 19.5t-22.5 7.5h-10q-13 0 -22.5 -7t-9.5 -24
q0 -14 9.5 -28.5t14.5 -24.5q22 15 35.5 29t13.5 28zM305 130q-19 28 -45 69.5t-54 88.5q-26 -21 -43.5 -43.5t-17.5 -51.5q0 -35 25 -59.5t60 -24.5h9q15 0 32 5t34 16z" />
    <glyph glyph-name="quotesingle" unicode="'" horiz-adv-x="205"
d="M158 506q0 -28 -19 -42t-39 -14q-22 0 -39.5 14t-17.5 43v134q0 28 17.5 42t39.5 14q21 0 39.5 -14t18.5 -42v-135v0z" />
    <glyph glyph-name="parenleft" unicode="(" horiz-adv-x="341"
d="M319 -55q0 -14 -6 -26.5t-16 -21.5q-9 -8 -21 -13.5t-26 -5.5q-12 0 -23.5 4t-22.5 15q-70 68 -108 173.5t-38 249.5q0 141 38 245t107 173q21 21 47 21q13 0 25.5 -5.5t22.5 -15t15.5 -21.5t5.5 -25q0 -25 -20 -45q-46 -46 -77 -126t-31 -201q0 -124 30.5 -204
t77.5 -126q20 -20 20 -45z" />
    <glyph glyph-name="parenright" unicode=")" horiz-adv-x="341"
d="M283 320q0 -144 -38.5 -249.5t-107.5 -173.5q-11 -11 -23 -15t-23 -4q-14 0 -26.5 5.5t-21.5 13.5q-9 9 -15 21.5t-6 26.5q0 12 4.5 23t15.5 22q23 23 43 54t34.5 72t22.5 91.5t8 112.5q0 121 -31 201t-77 126q-20 20 -20 45q0 13 5.5 25t15.5 21.5t22 15t26 5.5
q11 0 23 -5t23 -16q69 -69 107.5 -173t38.5 -245z" />
    <glyph glyph-name="asterisk" unicode="*" horiz-adv-x="379"
d="M351 605q11 -19 5 -40t-25 -32l-46 -21l46 -21q19 -11 25 -32t-5 -40t-32 -24.5t-40 5.5l-42 30l5 -51q0 -22 -15 -37.5t-37 -15.5t-37.5 15.5t-15.5 37.5l5 51l-41 -30q-20 -11 -40.5 -5.5t-31.5 24.5t-5.5 40t24.5 32l46 21l-46 21q-19 11 -24.5 32t5.5 40t31.5 24.5
t40.5 -5.5l41 -29l-5 50q0 22 15.5 37.5t37.5 15.5t37 -15.5t15 -37.5l-5 -50l42 29q19 11 40 5.5t32 -24.5z" />
    <glyph glyph-name="plus" unicode="+" horiz-adv-x="457"
d="M424 330q0 -22 -14.5 -40t-43.5 -18h-80v-81q0 -29 -18 -43.5t-40 -14.5t-40 14.5t-18 43.5v81h-80q-29 0 -43.5 18t-14.5 40t14.5 39.5t43.5 17.5h80v80q0 29 18 43.5t40 14.5t40 -14.5t18 -43.5v-80h80q29 0 43.5 -17.5t14.5 -39.5z" />
    <glyph glyph-name="comma" unicode="," horiz-adv-x="214"
d="M167 29q0 -25 -2.5 -44.5t-8.5 -36.5t-16.5 -32.5t-26.5 -32.5l-13 -14q-17 -18 -42 -18q-22 0 -40 14t-18 40q0 19 15 36l15 16q7 7 12 13t8 13.5t4.5 18t1.5 27.5v33q0 26 17.5 39t38.5 13t38 -13t17 -39v-33v0z" />
    <glyph glyph-name="hyphen" unicode="-" horiz-adv-x="387"
d="M354 330q0 -22 -13 -40t-40 -18h-216q-26 0 -39.5 18t-13.5 40q0 21 13.5 39t39.5 18h216q27 0 40 -18t13 -39z" />
    <glyph glyph-name="period" unicode="." horiz-adv-x="188"
d="M152 47q0 -26 -18 -39.5t-40 -13.5t-40 13.5t-18 39.5v24q0 26 18 39.5t40 13.5t40 -13.5t18 -39.5v-24v0z" />
    <glyph glyph-name="slash" unicode="/" horiz-adv-x="400"
d="M404 703q0 -11 -5 -24l-310 -764q-8 -20 -22 -28.5t-30 -8.5q-23 0 -41.5 15t-18.5 40q0 12 5 24l310 765q8 20 22 28t30 8q23 0 41.5 -15t18.5 -40z" />
    <glyph glyph-name="zero" unicode="0" horiz-adv-x="446"
d="M401 157q0 -36 -13.5 -66t-37 -51.5t-55 -33.5t-67.5 -12h-10q-36 0 -67.5 12t-55.5 33.5t-37.5 51.5t-13.5 66v377q0 36 13.5 66t37.5 51.5t55.5 33.5t67.5 12h10q36 0 67.5 -12t55 -33.5t37 -51.5t13.5 -66v-377zM285 529q0 24 -16.5 38.5t-40.5 14.5h-10
q-24 0 -41 -14.5t-17 -38.5v-367q0 -24 17 -38.5t41 -14.5h10q24 0 40.5 14.5t16.5 38.5v367z" />
    <glyph glyph-name="one" unicode="1" horiz-adv-x="413"
d="M311 52q0 -29 -18 -43.5t-40 -14.5t-40 14.5t-18 43.5v445l-19 -23q-5 -7 -15.5 -16.5t-30.5 -9.5q-23 0 -40.5 16.5t-17.5 37.5q0 9 1.5 19.5t10.5 23.5q5 8 20.5 28.5t31.5 42.5q18 26 41 56q15 20 26 22.5t23 2.5h27q23 0 40.5 -17.5t17.5 -40.5v-587v0z" />
    <glyph glyph-name="two" unicode="2" horiz-adv-x="451"
d="M414 58q0 -22 -14.5 -40t-43.5 -18h-260q-28 0 -43.5 21.5t-15.5 47.5q0 10 2 19t7 17l227 366q9 15 10.5 25t1.5 21v8q0 23 -17 40t-43 17h-3q-25 0 -41.5 -17t-16.5 -40v-11q0 -29 -18 -43t-40 -14t-40 14t-18 43v15q0 36 14 67t37.5 53.5t55 35t67.5 12.5h3
q35 0 67 -12.5t56 -35t38.5 -53t14.5 -67.5l-1 -11q0 -29 -9.5 -53.5t-25.5 -50.5l-183 -299h174q29 0 43.5 -18t14.5 -39z" />
    <glyph glyph-name="three" unicode="3" horiz-adv-x="448"
d="M406 162q0 -39 -13.5 -70t-37 -52.5t-55 -33.5t-67.5 -12h-17q-36 0 -67.5 11.5t-55.5 33.5t-37.5 53.5t-13.5 70.5q0 29 18 40t40 11t40 -11t18 -40q0 -23 17 -38.5t41 -15.5h17q24 0 41 16t17 40v66q0 29 -5 45t-16 24t-27.5 10t-39.5 2q-30 0 -45 17.5t-15 39.5t15 40
t45 18q19 0 35 1.5t28 9t18.5 22.5t6.5 43v23q0 28 -18 42t-41 14h-4q-23 0 -42 -13t-19 -39t-18 -38t-40 -12t-40 14.5t-18 43.5q0 41 14.5 71t38.5 49.5t55 29t64 9.5h8q33 0 64.5 -9.5t56 -29.5t39.5 -53t15 -79v-23q0 -48 -11.5 -80t-29.5 -53q41 -50 41 -139v-69v0z
" />
    <glyph glyph-name="four" unicode="4" horiz-adv-x="463"
d="M440 195q0 -22 -14.5 -40t-43.5 -18h-22v-85q0 -29 -18 -43.5t-40 -14.5t-40 14.5t-18 43.5v85h-157q-30 0 -47.5 16t-17.5 45q0 8 1.5 16.5t4.5 15.5l187 432q8 19 22 27t29 8q23 0 41.5 -15.5t18.5 -40.5q0 -14 -5 -25l-165 -364h88v58q0 29 18 43.5t40 14.5t40 -14.5
t18 -43.5v-58h22q29 0 43.5 -17.5t14.5 -39.5z" />
    <glyph glyph-name="five" unicode="5" horiz-adv-x="444"
d="M397 161q0 -36 -13.5 -66.5t-37 -53t-55 -35t-67.5 -12.5h-11q-74 0 -120.5 42.5t-46.5 125.5q0 29 18 43.5t40 14.5t40 -14.5t18 -43.5q0 -15 5.5 -25t14 -16t17 -9t14.5 -3h11q23 0 40 17.5t17 41.5v140q0 24 -17 41.5t-40 17.5h-11q-19 0 -30.5 -8.5t-19.5 -22.5
q-6 -11 -20 -17t-30 -6q-23 0 -42.5 14.5t-19.5 48.5v257q0 23 17.5 40.5t40.5 17.5h210q29 0 43.5 -18t14.5 -39q0 -22 -14.5 -40t-43.5 -18h-152v-104q20 10 46 10h11q36 0 67.5 -12.5t55 -35t37 -53t13.5 -66.5v-154v0z" />
    <glyph glyph-name="six" unicode="6" horiz-adv-x="446"
d="M401 164q0 -36 -13.5 -67t-37 -54t-55 -36t-67.5 -13h-10q-36 0 -67.5 13t-55.5 35.5t-37.5 53.5t-13.5 67v364q0 36 13.5 67t37 54t55.5 36t68 13h10q26 0 53.5 -7.5t50.5 -23t40 -39t22 -54.5q2 -8 2 -13q0 -26 -18 -40t-39 -13q-17 0 -32.5 9.5t-23.5 30.5
q-11 35 -55 35h-10q-24 0 -41 -17.5t-17 -41.5v-82q8 6 25 11.5t33 5.5h10q36 0 67.5 -13t55 -36t37 -54t13.5 -67v-124zM285 284q0 24 -16.5 41.5t-40.5 17.5h-10q-24 0 -41 -17.5t-17 -41.5v-117q0 -24 17 -41t41 -17h10q24 0 40.5 17.5t16.5 41.5v116z" />
    <glyph glyph-name="seven" unicode="7" horiz-adv-x="446"
d="M403 616q0 -8 -2.5 -17.5t-4.5 -17.5l-171 -546q-7 -22 -21.5 -31.5t-31.5 -9.5q-23 0 -41.5 15t-18.5 41q0 5 0.5 9.5t2.5 9.5l158 507h-113v-12q0 -29 -18 -43.5t-40 -14.5t-40 14.5t-18 43.5v69q0 23 17.5 40.5t40.5 17.5h244q23 0 40 -17.5t17 -40.5v-17v0z" />
    <glyph glyph-name="eight" unicode="8" horiz-adv-x="446"
d="M401 168q0 -39 -13.5 -71t-37 -55t-55 -35.5t-67.5 -12.5h-10q-36 0 -67.5 12.5t-55.5 35.5t-37.5 55t-13.5 71v84q0 34 12 63.5t32 52.5q-20 23 -32 52.5t-12 62.5v41q0 38 13.5 70t37.5 55t55.5 35.5t67.5 12.5h10q36 0 67.5 -12.5t55 -35.5t37 -55t13.5 -70v-41
q0 -33 -11.5 -62.5t-32.5 -52.5q21 -23 32.5 -52.5t11.5 -63.5v-84zM286 524q0 24 -17 41t-41 17h-10q-25 0 -41.5 -17t-16.5 -41v-43q0 -24 17 -40.5t41 -16.5h10q24 0 41 16.5t17 40.5v43zM285 254q0 24 -16.5 41t-40.5 17h-10q-25 0 -41.5 -17t-16.5 -41v-87
q0 -24 17 -41t41 -17h10q24 0 40.5 17t16.5 41v87z" />
    <glyph glyph-name="nine" unicode="9" horiz-adv-x="446"
d="M401 164q0 -36 -13.5 -67t-37 -54t-55 -36t-67.5 -13h-10q-26 0 -53.5 7.5t-50.5 23t-40 39t-23 54.5q0 3 -0.5 9t-0.5 9q0 26 17.5 40t39.5 14q17 0 33 -10t23 -30q6 -17 19.5 -29t35.5 -12h10q23 0 40 20t17 45v82q-8 -6 -25 -11.5t-32 -5.5h-10q-36 0 -67.5 13
t-55.5 36t-37.5 54t-13.5 67v118q0 36 13.5 67t37.5 54t55.5 36t67.5 13h10q36 0 67.5 -13t55 -35.5t37 -53.5t13.5 -67v-364zM285 524q0 24 -16.5 41t-40.5 17h-10q-24 0 -41 -17.5t-17 -41.5v-110q0 -24 17 -41.5t41 -17.5h10q24 0 40.5 17.5t16.5 41.5v111z" />
    <glyph glyph-name="colon" unicode=":" horiz-adv-x="188"
d="M152 316q0 -26 -18 -39t-40 -13t-40 13t-18 39v25q0 26 18 39.5t40 13.5t40 -13.5t18 -39.5v-25zM152 47q0 -26 -18 -39.5t-40 -13.5t-40 13.5t-18 39.5v24q0 26 18 39.5t40 13.5t40 -13.5t18 -39.5v-24z" />
    <glyph glyph-name="semicolon" unicode=";" horiz-adv-x="217"
d="M170 316q0 -26 -18 -39t-40 -13t-40 13t-18 39v25q0 26 18 39.5t40 13.5t40 -13.5t18 -39.5v-25zM167 29q0 -25 -2.5 -44.5t-8.5 -36.5t-16.5 -32.5t-26.5 -32.5l-13 -14q-17 -18 -42 -18q-22 0 -40 14t-18 40q0 19 15 36l15 16q7 7 12 13t8 13.5t4.5 18t1.5 27.5v33
q0 26 17.5 39t38.5 13t38 -13t17 -39v-33z" />
    <glyph glyph-name="less" unicode="&#x3c;" horiz-adv-x="340"
d="M297 49q0 -23 -18 -39t-41 -16q-10 0 -19.5 3t-17.5 12l-152 183q-8 10 -14 22.5t-6 26.5t6 26.5t14 22.5l152 183q8 9 17.5 12t19.5 3q23 0 41 -16t18 -39q0 -11 -6 -21t-15 -21l-122 -150l122 -150q9 -11 15 -21t6 -21z" />
    <glyph glyph-name="equal" unicode="=" horiz-adv-x="433"
d="M400 417q0 -22 -14 -39.5t-43 -17.5h-255q-28 0 -42 17.5t-14 39.5q0 21 14 39t42 18h255q29 0 43 -18t14 -39zM400 246q0 -21 -14 -39t-43 -18h-255q-28 0 -42 18t-14 39q0 22 14 39.5t42 17.5h255q29 0 43 -17.5t14 -39.5z" />
    <glyph glyph-name="greater" unicode="&#x3e;" horiz-adv-x="340"
d="M311 241q0 -14 -6.5 -26.5t-14.5 -22.5l-151 -183q-8 -9 -18 -12t-19 -3q-23 0 -41 16t-18 39q0 11 5.5 21t14.5 21l122 150l-122 150q-9 11 -14.5 21t-5.5 21q0 23 18 39t41 16q9 0 19 -3t18 -12l151 -183q8 -10 14.5 -22.5t6.5 -26.5z" />
    <glyph glyph-name="question" unicode="?" horiz-adv-x="403"
d="M367 494q0 -45 -19 -73t-39 -45q-13 -11 -24.5 -20.5t-20.5 -20t-14 -23t-5 -30.5v-41q0 -29 -18 -43.5t-40 -14.5t-40 14.5t-18 43.5v40q0 36 8 60t22 42.5t33 35t41 37.5q11 10 14.5 18.5t3.5 19.5v33q0 23 -16.5 39t-41.5 16h-5q-25 0 -41.5 -16t-16.5 -39v-1
q0 -29 -18 -43.5t-40 -14.5t-40 14.5t-18 43.5v9q0 36 13.5 66t37.5 51t55.5 33t67.5 12h5q36 0 67.5 -12t55.5 -33t37.5 -51t13.5 -66v-41zM245 47q0 -26 -18 -39.5t-40 -13.5t-40 13.5t-18 39.5v24q0 26 18 39.5t40 13.5t40 -13.5t18 -39.5v-24z" />
    <glyph glyph-name="at" unicode="@" horiz-adv-x="780"
d="M726 143q0 -30 -8.5 -57t-25.5 -47.5t-41.5 -32.5t-56.5 -12h-18q-53 0 -88 35q-21 -17 -47.5 -26t-56.5 -9h-9q-32 0 -62.5 11t-54 32t-37.5 51.5t-14 69.5q0 47 22.5 75t56 43.5t72.5 23.5t74 15q2 1 5.5 2.5t3.5 4.5q-2 24 -17 38.5t-35 14.5h-7q-19 0 -32 -6.5
t-21 -23.5q-11 -26 -33 -31.5t-41 3t-29.5 28t0.5 45.5q13 28 31 47t39 30.5t43.5 16t42.5 4.5h7q33 0 63 -13t52.5 -35t35.5 -51.5t13 -62.5v-173q0 -24 4.5 -35t17.5 -11h18q14 0 17 13t3 23v174q0 42 -16 78.5t-43 64t-63.5 43t-78.5 15.5h-44q-42 0 -78.5 -15.5
t-63.5 -43t-43 -64t-16 -78.5v-157q0 -42 16 -78.5t43 -63.5t63.5 -43t78.5 -16h44q39 0 77 16q26 10 46 -1t28 -30.5t2 -41t-32 -31.5q-57 -24 -121 -24h-44q-65 0 -122 24.5t-100 67t-67.5 99.5t-24.5 122v157q0 65 24.5 122.5t67.5 100t100 67t122 24.5h44
q65 0 122 -24.5t100 -67t67.5 -100t24.5 -122.5v-174zM441 212q-23 -5 -44.5 -9.5t-38.5 -10.5t-27.5 -14.5t-10.5 -22.5q0 -20 13 -34.5t42 -14.5h9q23 0 40 17t17 40v49z" />
    <glyph glyph-name="A" unicode="A"
d="M521 50q0 -26 -18.5 -41t-41.5 -15q-17 0 -32 9.5t-21 31.5l-37 121h-198l-37 -121q-7 -22 -22 -31.5t-32 -9.5q-23 0 -41.5 15t-18.5 41q0 5 0.5 9.5t2.5 9.5l183 579q11 34 28 41.5t36 7.5q9 0 18 -1.5t17.5 -6.5t15.5 -14.5t13 -26.5l182 -579q3 -11 3 -19zM272 482
l-63 -211h126z" />
    <glyph glyph-name="B" unicode="B" horiz-adv-x="511"
d="M468 200q0 -42 -16 -78.5t-43.5 -63.5t-64 -42.5t-78.5 -15.5h-143q-23 0 -40.5 17.5t-17.5 40.5v575q0 23 17.5 40.5t40.5 17.5h143q42 0 77.5 -14.5t61.5 -40.5t40.5 -61t14.5 -76q0 -51 -18.5 -82t-45.5 -59q30 -29 51 -65t21 -85v-8zM344 499q0 37 -21.5 57t-55.5 20
h-86v-163h86q32 0 54.5 24t22.5 62zM352 208q0 19 -7 35.5t-19 28.5t-27.5 19t-31.5 7h-86v-183h86q35 0 60 25t25 60v8z" />
    <glyph glyph-name="C" unicode="C" horiz-adv-x="491"
d="M462 160q-6 -36 -23.5 -66.5t-44 -52.5t-60 -34.5t-71.5 -12.5h-9q-41 0 -77.5 15t-63.5 41.5t-43 62t-16 77.5v312q0 42 16 77.5t43 61.5t63.5 41t77.5 15h9q38 0 72 -12.5t60 -34.5t43.5 -52.5t22.5 -67.5q1 -3 1 -10q0 -27 -18.5 -41.5t-40.5 -14.5q-20 0 -36 12
t-20 38q-5 31 -28.5 49.5t-55.5 18.5h-9q-35 0 -60 -22.5t-25 -57.5v-312q0 -35 25 -58t60 -23h9q32 0 55.5 18.5t28.5 49.5q4 26 20.5 38t35.5 12q23 0 41 -14.5t18 -41.5v-11v0z" />
    <glyph glyph-name="D" unicode="D" horiz-adv-x="528"
d="M474 197q0 -42 -15.5 -78t-42.5 -62.5t-63.5 -41.5t-78.5 -15h-151q-23 0 -40.5 17.5t-17.5 40.5v575q0 23 17.5 40.5t40.5 17.5h151q42 0 78.5 -15t63.5 -41.5t42.5 -62t15.5 -77.5v-298zM358 495q0 35 -24.5 58t-59.5 23h-93v-461h93q35 0 59.5 23t24.5 58v299z" />
    <glyph glyph-name="E" unicode="E" horiz-adv-x="495"
d="M474 57q0 -21 -14.5 -39t-43.5 -18h-293q-23 0 -40.5 17.5t-17.5 40.5v575q0 23 17.5 40.5t40.5 17.5h293q29 0 43.5 -18t14.5 -39q0 -22 -14.5 -40t-43.5 -18h-235v-163h156q29 0 43.5 -18t14.5 -40q0 -21 -14.5 -39t-43.5 -18h-156v-183h235q29 0 43.5 -18t14.5 -40z
" />
    <glyph glyph-name="F" unicode="F" horiz-adv-x="474"
d="M474 634q0 -22 -14.5 -40t-43.5 -18h-235v-163h156q29 0 43.5 -18t14.5 -40q0 -21 -14.5 -39t-43.5 -18h-156v-246q0 -29 -18 -43.5t-40 -14.5t-40 14.5t-18 43.5v581q0 23 17.5 40.5t40.5 17.5h293q29 0 43.5 -18t14.5 -39z" />
    <glyph glyph-name="G" unicode="G" horiz-adv-x="517"
d="M463 191q0 -42 -15.5 -78t-42.5 -62.5t-63.5 -41.5t-78.5 -15h-9q-41 0 -77.5 15t-63.5 41.5t-43 62.5t-16 77v311q0 42 16 77.5t43 62t63.5 41.5t77.5 15h9q38 0 71.5 -12t60 -34t43.5 -51.5t21 -65.5v-6q0 -24 -17.5 -36t-38.5 -12q-20 0 -37 12t-23 38q-6 29 -29 40.5
t-51 11.5h-9q-35 0 -59.5 -23t-24.5 -58v-310q0 -35 24.5 -58.5t59.5 -23.5h9q35 0 60 23t25 58v92h-72q-29 0 -43 18t-14 40q0 21 14 39t43 18h129q23 0 40.5 -17.5t17.5 -40.5v-148v0z" />
    <glyph glyph-name="H" unicode="H" horiz-adv-x="539"
d="M474 52q0 -29 -18 -43.5t-40 -14.5q-21 0 -39 14.5t-18 43.5v246h-178v-246q0 -29 -18 -43.5t-40 -14.5t-40 14.5t-18 43.5v587q0 29 18 43.5t40 14.5t40 -14.5t18 -43.5v-226h178v226q0 29 18 43.5t39 14.5q22 0 40 -14.5t18 -43.5v-587v0z" />
    <glyph glyph-name="I" unicode="I" horiz-adv-x="260"
d="M188 52q0 -29 -18 -43.5t-40 -14.5t-40 14.5t-18 43.5v587q0 29 18 43.5t40 14.5t40 -14.5t18 -43.5v-587v0z" />
    <glyph glyph-name="J" unicode="J" horiz-adv-x="471"
d="M406 190q0 -42 -16 -77.5t-43 -62t-63.5 -41.5t-77.5 -15h-9q-36 0 -68.5 10.5t-58.5 30t-43.5 46.5t-24.5 60q-2 10 -2 14q0 27 18.5 42t41.5 15q18 0 34 -11t21 -35q6 -29 28.5 -43t53.5 -14h9q35 0 59.5 23t24.5 58v449q0 29 18 43.5t40 14.5t40 -14.5t18 -43.5v-449
v0z" />
    <glyph glyph-name="K" unicode="K" horiz-adv-x="496"
d="M475 50q0 -25 -18.5 -40.5t-41.5 -15.5q-15 0 -28.5 7.5t-22.5 25.5l-128 264l-55 -81v-158q0 -29 -18 -43.5t-40 -14.5t-40 14.5t-18 43.5v587q0 29 18 43.5t40 14.5t40 -14.5t18 -43.5v-223q32 49 64 96q27 40 56.5 84t52.5 76q9 14 21.5 19.5t25.5 5.5
q23 0 41.5 -16.5t18.5 -40.5q0 -16 -11 -33l-139 -205l158 -325q6 -14 6 -27z" />
    <glyph glyph-name="L" unicode="L" horiz-adv-x="457"
d="M436 57q0 -21 -14.5 -39t-43.5 -18h-255q-23 0 -40.5 17.5t-17.5 40.5v581q0 29 18 43.5t40 14.5t40 -14.5t18 -43.5v-524h197q29 0 43.5 -18t14.5 -40z" />
    <glyph glyph-name="M" unicode="M" horiz-adv-x="650"
d="M585 52q0 -29 -18 -43.5t-40 -14.5t-40 14.5t-18 43.5v366l-85 -196q-11 -25 -28 -32t-31 -7t-31 7t-28 32l-85 196v-366q0 -29 -18 -43.5t-40 -14.5t-40 14.5t-18 43.5v587q0 23 17.5 40.5t40.5 17.5h15q28 0 41 -15t22 -35l124 -280l124 280q8 20 21.5 35t41.5 15h15
q23 0 40.5 -17.5t17.5 -40.5v-587v0z" />
    <glyph glyph-name="N" unicode="N" horiz-adv-x="539"
d="M474 52q0 -23 -17.5 -40.5t-40.5 -17.5h-11q-28 0 -41.5 15t-21.5 35l-161 374v-366q0 -29 -18 -43.5t-40 -14.5t-40 14.5t-18 43.5v587q0 23 17.5 40.5t40.5 17.5h13q28 0 41 -15t22 -35l159 -360v353q0 29 18 43t40 14t40 -14t18 -43v-588v0z" />
    <glyph glyph-name="O" unicode="O" horiz-adv-x="517"
d="M463 191q0 -42 -15.5 -78t-42.5 -62.5t-63.5 -41.5t-78.5 -15h-9q-41 0 -77.5 15t-63.5 41.5t-43 62.5t-16 77v311q0 42 16 77.5t43 62t63.5 41.5t77.5 15h9q42 0 78.5 -15t63.5 -41.5t42.5 -62t15.5 -77.5v-310zM347 501q0 35 -24.5 58t-59.5 23h-9q-35 0 -59.5 -23
t-24.5 -58v-310q0 -35 24.5 -58.5t59.5 -23.5h9q35 0 59.5 23t24.5 58v311z" />
    <glyph glyph-name="P" unicode="P" horiz-adv-x="492"
d="M474 492q0 -42 -16 -78.5t-43 -63.5t-63.5 -42.5t-77.5 -15.5h-93v-240q0 -29 -18 -43.5t-40 -14.5t-40 14.5t-18 43.5v581q0 23 17.5 40.5t40.5 17.5h151q41 0 77.5 -15.5t63.5 -42.5t43 -63.5t16 -77.5zM358 492q0 17 -6.5 32.5t-18 27t-26.5 18t-33 6.5h-93v-169h93
q35 0 59.5 25t24.5 60z" />
    <glyph glyph-name="Q" unicode="Q" horiz-adv-x="517"
d="M463 191q0 -29 -8 -56t-22 -50q18 -18 18 -41q0 -20 -15 -35t-35 -15q-11 0 -21 4t-21 15l-3 3q-44 -22 -93 -22h-9q-41 0 -77.5 15t-63.5 41.5t-43 62.5t-16 77v311q0 42 16 77.5t43 62t63.5 41.5t77.5 15h9q42 0 78.5 -15t63.5 -41.5t42.5 -62t15.5 -77.5v-310z
M347 501q0 35 -24.5 58t-59.5 23h-9q-35 0 -59.5 -23t-24.5 -58v-310q0 -35 24.5 -58.5t59.5 -23.5h11q-10 14 -10 30q0 21 15 36t36 15q22 0 40 -17q1 4 1 8v9v311z" />
    <glyph glyph-name="R" unicode="R" horiz-adv-x="516"
d="M480 482q0 -63 -32.5 -112t-86.5 -72l105 -221q7 -16 7 -26q0 -25 -19 -41t-42 -16q-15 0 -28.5 8t-21.5 26l-121 254h-60v-230q0 -29 -18 -43.5t-40 -14.5t-40 14.5t-18 43.5v581q0 23 17.5 40.5t40.5 17.5h157q42 0 78.5 -15.5t63.5 -42.5t42.5 -63.5t15.5 -78.5v-9z
M364 491q0 35 -23 60t-58 25h-102v-179h105q34 0 56 25t22 60v9z" />
    <glyph glyph-name="S" unicode="S" horiz-adv-x="486"
d="M450 185q0 -43 -15.5 -78t-43 -60t-65 -39t-80.5 -14h-9q-41 0 -77 13.5t-64 39.5t-44 63t-16 84q0 29 18 43.5t40 14.5t40 -14.5t18 -43.5q0 -41 23.5 -63t61.5 -22h9q38 0 63 19t25 57q0 31 -21.5 54.5t-54 43.5t-70 40t-70 45.5t-54 58t-21.5 78.5v21q0 40 18 72
t46.5 54t62.5 33.5t67 11.5h9q39 0 74 -11.5t62 -32.5t43 -50.5t16 -65.5q0 -28 -18 -42t-39.5 -14.5t-39.5 13t-18 40.5q0 20 -22 34t-58 14h-9q-33 0 -55.5 -16.5t-22.5 -45.5v-15q0 -20 21.5 -37t54 -35.5t70 -40t70 -50.5t54 -67.5t21.5 -89.5z" />
    <glyph glyph-name="T" unicode="T" horiz-adv-x="414"
d="M403 634q0 -22 -14.5 -40t-43.5 -18h-80v-524q0 -29 -18 -43.5t-40 -14.5t-40 14.5t-18 43.5v524h-80q-29 0 -43.5 18t-14.5 40q0 21 14.5 39t43.5 18h276q29 0 43.5 -18t14.5 -39z" />
    <glyph glyph-name="U" unicode="U" horiz-adv-x="540"
d="M475 194q0 -41 -16 -77.5t-43 -63.5t-63.5 -43t-78.5 -16h-9q-41 0 -77.5 16t-63.5 43t-43 63.5t-16 77.5v445q0 29 18 43.5t40 14.5t40 -14.5t18 -43.5v-445q0 -35 24.5 -60t59.5 -25h9q35 0 60 25t25 60v445q0 29 18 43.5t40 14.5t40 -14.5t18 -43.5v-445v0z" />
    <glyph glyph-name="V" unicode="V" horiz-adv-x="474"
d="M445 641q0 -10 -2 -15l-141 -585q-5 -21 -22 -34t-43 -13t-43 13t-22 34l-141 585q-2 10 -2 15q0 26 18.5 41t41.5 15q17 0 33 -10.5t21 -33.5l94 -400l94 400q5 23 21 33.5t34 10.5q22 0 40.5 -15t18.5 -41z" />
    <glyph glyph-name="W" unicode="W" horiz-adv-x="762"
d="M733 641q0 -5 -2 -15l-134 -585q-5 -21 -22 -34t-43 -13t-43.5 13t-22.5 34l-85 362l-85 -362q-5 -21 -22 -34t-44 -13q-26 0 -43 13t-22 34l-134 585q-2 10 -2 15q0 26 18.5 41t41.5 15q17 0 33 -10.5t21 -33.5l87 -408l94 408q5 23 21.5 33.5t33.5 10.5h4
q19 0 34.5 -10.5t20.5 -33.5l94 -408l87 408q5 23 21 33.5t33 10.5q23 0 41.5 -15t18.5 -41z" />
    <glyph glyph-name="X" unicode="X" horiz-adv-x="492"
d="M456 50q0 -25 -19 -40.5t-42 -15.5q-14 0 -27.5 7.5t-22.5 24.5l-99 200l-100 -200q-8 -17 -21.5 -24.5t-27.5 -7.5q-23 0 -42 15.5t-19 40.5q0 14 7 28l138 278l-128 257q-4 8 -5 14.5t-1 13.5q0 25 18.5 40.5t41.5 15.5q14 0 28 -7.5t22 -24.5l89 -179l89 179
q8 17 21.5 24.5t28.5 7.5q23 0 41.5 -15.5t18.5 -40.5q0 -14 -7 -28l-128 -257l139 -278q7 -14 7 -28z" />
    <glyph glyph-name="Y" unicode="Y" horiz-adv-x="475"
d="M446 641q0 -11 -5 -24l-145 -350v-215q0 -29 -18.5 -43.5t-39.5 -14.5q-22 0 -40 14.5t-18 43.5v215l-146 350q-5 13 -5 24q0 25 18.5 40.5t41.5 15.5q16 0 30 -8t22 -28l97 -231l96 231q8 20 22 28t30 8q23 0 41.5 -15.5t18.5 -40.5z" />
    <glyph glyph-name="Z" unicode="Z" horiz-adv-x="459"
d="M430 58q0 -22 -14.5 -40t-43.5 -18h-284q-28 0 -43.5 19.5t-15.5 50.5q0 8 1.5 16.5t6.5 16.5l258 473h-196q-29 0 -43.5 18t-14.5 40q0 21 14.5 39t43.5 18h272q28 0 43.5 -20t15.5 -46q0 -20 -8 -36l-246 -474h197q29 0 43 -18t14 -39z" />
    <glyph glyph-name="bracketleft" unicode="[" horiz-adv-x="315"
d="M280 -63q0 -22 -15 -40t-44 -18h-98q-23 0 -40.5 17t-17.5 40v703q0 23 17.5 40.5t40.5 17.5h98q29 0 44 -18t15 -40q0 -21 -14.5 -39t-43.5 -18h-46v-588h46q29 0 43.5 -18t14.5 -39z" />
    <glyph glyph-name="backslash" unicode="\" horiz-adv-x="400"
d="M404 -66q0 -25 -18.5 -40.5t-41.5 -15.5q-16 0 -30 8.5t-22 27.5l-310 765q-5 13 -5 24q0 25 18.5 40t41.5 15q16 0 30 -8t22 -28l310 -764q5 -13 5 -25v1z" />
    <glyph glyph-name="bracketright" unicode="]" horiz-adv-x="316"
d="M251 -64q0 -23 -17.5 -40t-40.5 -17h-99q-29 0 -43.5 18t-14.5 40q0 21 14.5 39t43.5 18h46v588h-46q-29 0 -43.5 18t-14.5 39q0 22 14.5 40t43.5 18h99q23 0 40.5 -17.5t17.5 -40.5v-703v0z" />
    <glyph glyph-name="asciicircum" unicode="^" horiz-adv-x="494"
d="M494 472q0 -23 -17.5 -40t-40.5 -17t-42 20l-147 166l-147 -166q-19 -20 -42 -20t-40.5 17t-17.5 40q0 9 3.5 18.5t11.5 18.5l165 191q15 18 30 26t37 8q21 0 36 -8.5t30 -25.5l166 -191q8 -9 11.5 -18.5t3.5 -18.5z" />
    <glyph glyph-name="underscore" unicode="_" horiz-adv-x="558"
d="M525 57q0 -21 -14 -39t-42 -18h-381q-28 0 -42 18t-14 39q0 22 14 40t42 18h381q28 0 42 -18t14 -40z" />
    <glyph glyph-name="grave" unicode="`" horiz-adv-x="412"
d="M348 561q0 -22 -16 -40.5t-40 -18.5q-6 0 -12 1t-14 5l-170 81q-17 8 -25 21.5t-8 27.5q0 22 16 40.5t40 18.5q6 0 12.5 -1t13.5 -5l170 -81q17 -8 25 -21.5t8 -27.5z" />
    <glyph glyph-name="a" unicode="a" horiz-adv-x="468"
d="M402 104q22 -6 32 -24t8.5 -37t-15 -34t-38.5 -15q-8 0 -16.5 1t-14.5 3q-16 5 -27.5 12.5t-19.5 15.5q-20 -14 -45.5 -23t-51.5 -9h-9q-32 0 -62 9t-54 28.5t-38.5 49.5t-14.5 72v5q0 44 23.5 73t55.5 42q35 14 69 21.5t65 15.5q14 3 16.5 10t2.5 11q0 21 -14.5 31.5
t-35.5 10.5h-6q-20 0 -32.5 -4.5t-20.5 -18.5q-13 -25 -35 -31.5t-41 1t-29.5 26t0.5 44.5q12 28 30 47t39 30t44 16t45 5h6q33 0 63 -13t53 -35t36.5 -51.5t13.5 -62.5v-191q0 -11 2.5 -19t15.5 -12zM268 207q-21 -5 -42 -9t-37.5 -9.5t-26.5 -13.5t-10 -21v-6
q0 -39 53 -39h9q23 0 38.5 15.5t15.5 38.5v44z" />
    <glyph glyph-name="b" unicode="b" horiz-adv-x="460"
d="M413 163q0 -35 -13.5 -66t-36.5 -54t-54 -36t-66 -13h-6q-12 0 -27.5 5t-28.5 16q-12 -11 -25 -16t-33 -5q-23 0 -40.5 14.5t-17.5 43.5v587q0 29 17.5 43.5t40.5 14.5q22 0 40 -14.5t18 -43.5v-172q11 11 29 16t29 5h4q35 0 66 -13t54 -36t36.5 -54t13.5 -66v-156z
M297 319q0 23 -15.5 38.5t-38.5 15.5h-8q-23 0 -38.5 -15.5t-15.5 -38.5v-156q0 -23 15.5 -38.5t38.5 -15.5h8q23 0 38.5 15.5t15.5 38.5v156z" />
    <glyph glyph-name="c" unicode="c" horiz-adv-x="429"
d="M393 145q0 -26 -13 -52.5t-36 -48.5t-54 -36t-66 -14h-8q-35 0 -65.5 13t-53.5 36t-36.5 54t-13.5 66v156q0 35 13.5 66t36.5 54t53.5 36t65.5 13h8q35 0 66 -14t54 -36t36 -49t13 -52q0 -28 -16.5 -42.5t-37 -15t-38.5 13t-20 41.5q-2 17 -18 28t-39 11h-8
q-23 0 -38 -15.5t-15 -38.5v-156q0 -23 15 -38.5t38 -15.5h8q23 0 39 11t18 28q2 28 20 41.5t38.5 13t37 -15t16.5 -42.5z" />
    <glyph glyph-name="d" unicode="d" horiz-adv-x="460"
d="M395 52q0 -29 -18 -43.5t-40 -14.5q-20 0 -33 5t-25 16q-13 -11 -28.5 -16t-27.5 -5h-6q-35 0 -66 13t-54 36t-36.5 54t-13.5 66v156q0 35 13.5 66t36.5 54t53.5 36t65.5 13h5q11 0 28.5 -5t29.5 -16v172q0 29 18 43.5t40 14.5t40 -14.5t18 -43.5v-587zM279 319
q0 23 -15.5 38.5t-38.5 15.5h-8q-23 0 -38.5 -15.5t-15.5 -38.5v-156q0 -23 15 -38.5t38 -15.5h9q23 0 38.5 15.5t15.5 38.5v156z" />
    <glyph glyph-name="e" unicode="e" horiz-adv-x="433"
d="M394 247q0 -23 -17 -39.5t-40 -16.5h-174v-28q0 -23 15 -38.5t38 -15.5h8q33 0 49 25q9 15 21.5 21.5t24.5 6.5q23 0 40.5 -17.5t17.5 -40.5q0 -9 -5 -21q-22 -42 -60 -65.5t-88 -23.5h-8q-35 0 -65.5 13t-53.5 36t-36.5 54t-13.5 66v156q0 35 13 66t36 54t53.5 36
t65.5 13h8q36 0 67 -13t54 -35.5t36.5 -53.5t13.5 -67v-72zM278 319q0 26 -15.5 40t-35.5 14h-10q-23 0 -38.5 -15.5t-15.5 -38.5v-30h115v30z" />
    <glyph glyph-name="f" unicode="f" horiz-adv-x="312"
d="M294 640q0 -22 -13.5 -40t-42.5 -18q-13 0 -18 -8.5t-5 -21.5v-67h18q29 0 43 -18t14 -40q0 -21 -14 -39t-43 -18h-18v-320q0 -28 -18 -42t-40 -14t-40 14t-18 42v320h-12q-27 0 -41 18t-14 40q0 21 13.5 39t41.5 18h12v70q0 36 10.5 63t29.5 44.5t44 26t55 8.5
q29 0 42.5 -18t13.5 -39z" />
    <glyph glyph-name="g" unicode="g" horiz-adv-x="452"
d="M398 -47q0 -35 -13.5 -65.5t-36.5 -53.5t-53.5 -36.5t-65.5 -13.5h-8q-26 0 -53 7t-51 21t-43 35.5t-28 51.5q-3 10 -3 19q0 25 16.5 39.5t38.5 14.5q17 0 31.5 -10t24.5 -30q5 -9 21.5 -21t45.5 -12h8q23 0 38 15.5t15 38.5v62q-10 -8 -24 -14.5t-31 -6.5h-6
q-35 0 -66 13.5t-54 36.5t-36.5 53.5t-13.5 65.5v156q0 35 13.5 66t36.5 54t54 36t66 13h6q12 0 27.5 -5t27.5 -16q12 11 25.5 16t33.5 5q23 0 40 -14.5t17 -41.5v-479zM282 317q0 23 -15 39.5t-38 16.5h-8q-24 0 -39 -16.5t-15 -39.5v-153q0 -23 15 -39t39 -16h8
q23 0 38 16t15 39v153z" />
    <glyph glyph-name="h" unicode="h" horiz-adv-x="456"
d="M413 50q0 -28 -18 -42t-40 -14t-40 14t-18 42v269q0 23 -15.5 38.5t-38.5 15.5h-8q-23 0 -38.5 -15.5t-15.5 -38.5v-269q0 -28 -18 -42t-40 -14t-40 14t-18 42v589q0 29 17.5 43.5t40.5 14.5q22 0 40 -14.5t18 -43.5v-172q11 11 29 16t29 5h4q35 0 66 -13t54 -36
t36.5 -54t13.5 -66v-269v0z" />
    <glyph glyph-name="i" unicode="i" horiz-adv-x="238"
d="M177 621q0 -29 -18 -43t-40 -14t-39.5 14t-17.5 43v20q0 28 17.5 42t39.5 14t40 -14t18 -42v-20zM177 50q0 -28 -18 -42t-40 -14t-40 14t-18 42v382q0 28 18 42t40 14t40 -14t18 -42v-382z" />
    <glyph glyph-name="j" unicode="j" horiz-adv-x="273"
d="M212 621q0 -29 -18 -43t-40 -14t-40 14t-18 43v20q0 28 18 42t40 14t40 -14t18 -42v-20zM212 -83q0 -59 -31 -96t-93 -37h-28q-28 0 -42 18t-14 40q0 21 14 39t42 18h14q8 0 15 4.5t7 25.5v503q0 28 18 42t40 14t40 -14t18 -42v-515z" />
    <glyph glyph-name="k" unicode="k" horiz-adv-x="448"
d="M423 50q0 -24 -18 -40t-41 -16q-14 0 -26.5 7t-20.5 22l-102 181l-34 -34v-120q0 -28 -18 -42t-40 -14t-40 14t-18 42v591q0 28 18 42t40 14t40 -14t18 -42v-307l128 135q18 19 41 19t40.5 -17t17.5 -40q0 -21 -17 -39l-98 -99l122 -214q8 -16 8 -29z" />
    <glyph glyph-name="l" unicode="l" horiz-adv-x="288"
d="M259 51q0 -21 -14 -39t-43 -18t-55 6.5t-45 23t-30 43.5t-11 68v506q0 28 18 42t40 14t40 -14t18 -42v-505q0 -12 6.5 -19.5t18.5 -7.5q29 0 43 -18t14 -40z" />
    <glyph glyph-name="m" unicode="m" horiz-adv-x="692"
d="M645 50q0 -28 -18 -42t-40 -14t-40 14t-18 42v269q0 23 -16.5 38.5t-40.5 15.5h-8q-23 0 -39.5 -15.5t-16.5 -38.5v-269q0 -28 -18 -42t-40 -14h-1q-22 0 -40 14t-18 42v269q0 23 -16.5 38.5t-39.5 15.5h-9q-23 0 -39.5 -15.5t-16.5 -38.5v-269q0 -28 -18 -42t-40 -14
t-40 14t-18 42v382q0 28 17.5 42t40.5 14q22 0 34.5 -5t23.5 -16q11 11 31 16t31 5h3q32 0 62.5 -11.5t52.5 -31.5q23 20 55.5 31.5t64.5 11.5h2q35 0 66.5 -12.5t55 -34.5t37.5 -52.5t14 -65.5v-273v0z" />
    <glyph glyph-name="n" unicode="n" horiz-adv-x="449"
d="M402 50q0 -28 -18 -42t-40 -14t-40 14t-18 42v269q0 23 -15.5 38.5t-38.5 15.5h-8q-24 0 -39 -15.5t-15 -38.5v-269q0 -28 -18 -42t-40 -14t-40 14t-18 42v382q0 28 17.5 42t40.5 14q22 0 34.5 -5t23.5 -16q11 11 29.5 16t29.5 5h3q35 0 66 -12.5t54 -34.5t36.5 -52.5
t13.5 -65.5v-273v0z" />
    <glyph glyph-name="o" unicode="o" horiz-adv-x="440"
d="M394 163q0 -35 -13.5 -66t-36.5 -54t-54 -36t-66 -13h-8q-35 0 -66 13t-54 36t-36.5 54t-13.5 66v156q0 35 13.5 66t36.5 54t54 36t66 13h8q35 0 66 -13t54 -36t36.5 -54t13.5 -66v-156zM278 319q0 23 -15.5 38.5t-38.5 15.5h-8q-23 0 -38.5 -15.5t-15.5 -38.5v-156
q0 -23 15.5 -38.5t38.5 -15.5h8q23 0 38.5 15.5t15.5 38.5v156z" />
    <glyph glyph-name="p" unicode="p" horiz-adv-x="460"
d="M413 163q0 -35 -13.5 -66t-36.5 -54t-54 -36t-66 -13h-4q-11 0 -29 5t-29 16v-173q0 -29 -18 -43.5t-40 -14.5q-23 0 -40.5 14.5t-17.5 43.5v588q0 29 17.5 43.5t40.5 14.5q20 0 33 -5t25 -16q13 11 28.5 16t27.5 5h6q35 0 66 -13t54 -36t36.5 -54t13.5 -66v-156z
M297 319q0 23 -15.5 38.5t-38.5 15.5h-8q-23 0 -38.5 -15.5t-15.5 -38.5v-156q0 -23 15.5 -38.5t38.5 -15.5h8q23 0 38.5 15.5t15.5 38.5v156z" />
    <glyph glyph-name="q" unicode="q" horiz-adv-x="460"
d="M395 -158q0 -29 -18 -43.5t-40 -14.5t-40 14.5t-18 43.5v173q-12 -11 -29.5 -16t-28.5 -5h-5q-35 0 -65.5 13t-53.5 36t-36.5 54t-13.5 66v156q0 35 13.5 66t36.5 54t54 36t66 13h6q12 0 27.5 -5t28.5 -16q12 11 25 16t33 5q22 0 40 -14.5t18 -43.5v-588zM279 319
q0 23 -15.5 38.5t-38.5 15.5h-9q-23 0 -38 -15.5t-15 -38.5v-156q0 -23 15.5 -38.5t38.5 -15.5h8q23 0 38.5 15.5t15.5 38.5v156z" />
    <glyph glyph-name="r" unicode="r" horiz-adv-x="348"
d="M325 423q13 -25 4.5 -45t-26.5 -30.5t-40.5 -8.5t-35.5 22q-7 10 -12 11t-18 1q-31 0 -31 -28v-292q0 -29 -18 -44t-40 -15t-40 15t-18 44v379q0 28 17.5 42t40.5 14q22 0 34.5 -5t23.5 -16q5 6 14 10q7 4 18 7.5t26 3.5q31 0 57.5 -16.5t43.5 -48.5z" />
    <glyph glyph-name="s" unicode="s" horiz-adv-x="427"
d="M395 151q0 -44 -17.5 -74t-43.5 -48.5t-57.5 -26.5t-58.5 -8h-16q-49 0 -95 27.5t-68 75.5q-12 25 -3 45t28 28.5t41 3.5t37 -29q8 -14 25.5 -25t34.5 -11h16q35 0 48 13t13 29q0 20 -9.5 27t-24.5 11q-23 5 -47.5 11.5t-45.5 11.5q-46 12 -78 43.5t-32 91.5q0 11 3 23
q7 33 26 55.5t43.5 36.5t52 20t52.5 6h3q48 0 79.5 -14.5t53.5 -33.5q21 -19 20 -41.5t-15.5 -38t-36.5 -19.5t-43 14q-12 11 -26 14.5t-31 3.5h-4q-29 0 -45.5 -7t-16.5 -18v-7q0 -16 17.5 -23t44 -12.5t57.5 -12.5t57.5 -23t44 -44t17.5 -75z" />
    <glyph glyph-name="t" unicode="t" horiz-adv-x="332"
d="M303 51q0 -21 -14 -39t-43 -18t-55 9.5t-45 27.5t-30 44.5t-11 60.5v234h-20q-28 0 -42 18t-14 40q0 21 14 39t42 18h20v156q0 28 18 42t40 14t40 -14t18 -42v-156h21q28 0 42 -18t14 -39q0 -22 -14 -40t-42 -18h-21v-232q0 -12 6.5 -20.5t18.5 -8.5q29 0 43 -18t14 -40z
" />
    <glyph glyph-name="u" unicode="u" horiz-adv-x="445"
d="M395 50q0 -28 -18 -42t-40 -14q-23 0 -35 5t-23 16q-12 -11 -30 -16t-29 -5h-3q-82 0 -126 43t-44 122v273q0 28 18 42t40 14t40 -14t18 -42v-269q0 -23 15 -38.5t39 -15.5h8q23 0 38.5 15.5t15.5 38.5v269q0 28 18 42t40 14t40 -14t18 -42v-382v0z" />
    <glyph glyph-name="v" unicode="v" horiz-adv-x="429"
d="M400 434q0 -10 -3 -20l-126 -385q-6 -19 -23 -27t-31 -8h-5q-14 0 -30.5 8t-22.5 27l-127 385q-3 10 -3 20q0 25 18 39.5t41 14.5q16 0 30 -9.5t21 -29.5l76 -230l75 230q7 20 21 29.5t31 9.5q22 0 40 -14.5t18 -39.5z" />
    <glyph glyph-name="w" unicode="w" horiz-adv-x="655"
d="M626 434q0 -10 -3 -20l-111 -385q-6 -20 -23 -27.5t-31 -7.5h-5q-14 0 -30.5 8t-22.5 27l-72 222l-73 -222q-6 -19 -22.5 -27t-30.5 -8h-5q-7 0 -15 2t-16 6t-14 10.5t-9 16.5l-111 385q-3 10 -3 20q0 25 18 39.5t41 14.5q16 0 31 -9t20 -30l60 -230l77 238q5 15 19.5 23
t30.5 8h3q15 0 30 -8t20 -23l77 -238l60 230q5 21 20 30t32 9q22 0 40 -14.5t18 -39.5z" />
    <glyph glyph-name="x" unicode="x" horiz-adv-x="425"
d="M392 50q0 -23 -18 -39.5t-41 -16.5q-13 0 -25 6.5t-21 20.5l-75 120l-75 -120q-9 -14 -21 -20.5t-25 -6.5q-23 0 -41 16.5t-18 39.5q0 14 9 31l105 167l-96 153q-5 8 -7 15.5t-2 15.5q0 23 18 39.5t40 16.5q13 0 26 -6.5t21 -20.5l66 -107l66 107q9 14 21 20.5t25 6.5
q23 0 41 -16.5t18 -39.5q0 -8 -2 -15.5t-7 -15.5l-96 -153l104 -167q10 -16 10 -31z" />
    <glyph glyph-name="y" unicode="y" horiz-adv-x="424"
d="M399 434q0 -10 -3 -20l-174 -543q-10 -31 -26.5 -48.5t-36 -26t-39.5 -10.5t-36 -2q-32 0 -45.5 19t-13.5 39q0 21 13.5 39t45.5 18q10 0 21.5 5t19.5 28l43 132l-125 349q-3 10 -3 21q0 24 18 39t40 15q16 0 30.5 -9t21.5 -29l73 -208l66 206q7 21 21 30.5t30 9.5
q23 0 41 -14.5t18 -39.5z" />
    <glyph glyph-name="z" unicode="z" horiz-adv-x="411"
d="M382 58q0 -22 -14 -40t-42 -18h-238q-23 0 -41 17t-18 40t4.5 34.5t14.5 24.5l187 251h-141q-28 0 -42 18t-14 40q0 21 14 39t42 18h229q23 0 40 -17t17 -41q0 -20 -3 -29t-9 -18l-185 -262h143q28 0 42 -18t14 -39z" />
    <glyph glyph-name="braceleft" unicode="{" horiz-adv-x="344"
d="M308 -53q0 -22 -14.5 -40.5t-41.5 -18.5q-25 0 -44 1t-36 9q-26 11 -44.5 35.5t-18.5 59.5v238q0 20 -2.5 29.5t-16.5 24.5q-10 10 -17 17.5t-11 13.5t-6 13t-2 16q0 19 8 29.5t28 31.5q7 7 10.5 13t5.5 11.5t2.5 12t0.5 16.5v187q0 35 18.5 59.5t44.5 35.5q17 8 36 9
t44 1q27 0 41.5 -18.5t14.5 -40.5q0 -21 -13.5 -38.5t-42.5 -17.5q-15 0 -21 -9.5t-6 -30.5v-167q0 -17 -4 -30t-10 -22.5t-13.5 -17t-13.5 -14.5q13 -13 27 -31t14 -52v-219q0 -21 6 -30.5t21 -9.5q29 0 42.5 -17.5t13.5 -38.5z" />
    <glyph glyph-name="bar" unicode="|" horiz-adv-x="386"
d="M251 -99q0 -29 -18 -43.5t-40 -14.5t-40 14.5t-18 43.5v809q0 29 18 43.5t40 14.5t40 -14.5t18 -43.5v-809v0z" />
    <glyph glyph-name="braceright" unicode="}" horiz-adv-x="344"
d="M290 345q0 -9 -2 -16t-6 -13t-11 -13.5t-17 -17.5q-14 -15 -16.5 -24.5t-2.5 -29.5v-238q0 -35 -19 -59.5t-44 -35.5q-18 -8 -37 -9t-43 -1q-28 0 -42 18.5t-14 40.5q0 21 13.5 38.5t42.5 17.5q15 0 21 9.5t6 30.5v219q0 34 13.5 52t27.5 31q-7 7 -14 14.5t-13 17
t-10 22.5t-4 30v167q0 21 -6 30.5t-21 9.5q-29 0 -42.5 17.5t-13.5 38.5q0 22 14 40.5t42 18.5q24 0 43 -1t37 -9q25 -11 44 -35.5t19 -59.5v-187q0 -10 0.5 -16.5t2 -12t5.5 -11.5t11 -13q20 -21 28 -31.5t8 -29.5z" />
    <glyph glyph-name="asciitilde" unicode="~" horiz-adv-x="433"
d="M418 282q0 -24 -15.5 -40t-37 -25.5t-46 -13.5t-42.5 -4t-35 4.5t-33 10.5t-32.5 10.5t-33.5 4.5q-12 0 -19.5 -4.5t-15 -10.5t-16 -10.5t-21.5 -4.5q-26 0 -41.5 18t-15.5 40t14 37q22 23 47 34t66 11q20 0 38.5 -4.5t35 -10.5t32.5 -10.5t32 -4.5q12 0 21.5 4.5
t18.5 10t19 10t23 4.5q24 0 40.5 -16.5t16.5 -39.5z" />
    <glyph glyph-name="nonbreakingspace" unicode="&#xa0;" horiz-adv-x="245"
 />
    <glyph glyph-name="exclamdown" unicode="&#xa1;" horiz-adv-x="247"
d="M182 619q0 -29 -18 -43.5t-40 -14.5q-23 0 -41 14.5t-18 43.5v20q0 29 18 43.5t41 14.5q22 0 40 -14.5t18 -43.5v-20zM182 52q0 -29 -18 -43.5t-40 -14.5q-23 0 -41 14.5t-18 43.5v376q0 29 18 43t41 14q22 0 40 -14t18 -43v-376z" />
    <glyph glyph-name="cent" unicode="&#xa2;" horiz-adv-x="429"
d="M393 145q0 -22 -9.5 -44.5t-26.5 -42.5t-40.5 -35.5t-50.5 -22.5v-31q0 -26 -14 -38.5t-31 -12.5t-31 12.5t-14 38.5v30q-28 7 -51.5 22t-41 36.5t-27 48.5t-9.5 57v156q0 30 9.5 57t27 48.5t41 36.5t51.5 22v29q0 26 14 39t31 13t31 -13t14 -39v-30q27 -7 50.5 -22.5
t40.5 -35.5t26.5 -42.5t9.5 -44.5q0 -28 -16.5 -42.5t-37 -15t-38.5 13t-20 41.5q-2 17 -18 28t-39 11h-8q-23 0 -38 -15.5t-15 -38.5v-156q0 -23 15 -38.5t38 -15.5h8q23 0 39 11t18 28q2 28 20 41.5t38.5 13t37 -15t16.5 -42.5z" />
    <glyph glyph-name="sterling" unicode="&#xa3;" horiz-adv-x="522"
d="M514 150q0 -40 -16 -68.5t-41.5 -46.5t-58 -26.5t-66.5 -8.5h-258q-31 0 -45.5 16.5t-14.5 36.5q0 18 10.5 34t30.5 24q44 16 61.5 44t17.5 63q1 15 -2.5 31.5t-8.5 33.5h-51q-29 0 -43.5 18t-14.5 39q0 22 14.5 40t43.5 18h8q-11 30 -20 59t-9 55v13q0 34 12 65t34.5 55
t53 38t68.5 14h15q81 0 128.5 -41t55.5 -110q0 -2 0.5 -4.5t0.5 -4.5q0 -27 -18.5 -41.5t-40.5 -14.5q-20 0 -37 12.5t-20 38.5q-1 7 -4 16t-11 16.5t-21 12.5t-33 5h-15q-21 0 -36.5 -15t-15.5 -42v-12q0 -26 10 -54.5t24 -60.5h80q29 0 43.5 -18t14.5 -40q0 -21 -14.5 -39
t-43.5 -18h-39q5 -18 7.5 -34.5t1.5 -31.5q-2 -26 -11 -51t-26 -51h121q8 0 19 1t20.5 5t16.5 11t7 18q0 29 18 43.5t40 14.5t40 -14.5t18 -43.5z" />
    <glyph glyph-name="yen" unicode="&#xa5;" horiz-adv-x="475"
d="M446 641q0 -11 -5 -24l-122 -294h56q24 0 36 -14.5t12 -32.5t-12 -33t-36 -15h-80v-21h80q24 0 36 -15t12 -33q0 -17 -12 -32t-36 -15h-80v-60q0 -29 -18 -43.5t-39 -14.5q-22 0 -40 14.5t-18 43.5v60h-80q-24 0 -35.5 15t-11.5 32q0 18 11.5 33t35.5 15h80v21h-80
q-24 0 -35.5 15t-11.5 33t11.5 32.5t35.5 14.5h56l-122 294q-5 13 -5 24q0 25 18.5 40.5t41.5 15.5q16 0 30 -8t22 -28l97 -231l96 231q8 20 22 28t30 8q23 0 41.5 -15.5t18.5 -40.5z" />
    <glyph glyph-name="brokenbar" unicode="&#xa6;" horiz-adv-x="231"
d="M174 462q0 -29 -18 -43.5t-40 -14.5t-40 14.5t-18 43.5v177q0 29 18 43.5t40 14.5t40 -14.5t18 -43.5v-177zM174 52q0 -29 -18 -43.5t-40 -14.5t-40 14.5t-18 43.5v177q0 29 18 43.5t40 14.5t40 -14.5t18 -43.5v-177z" />
    <glyph glyph-name="section" unicode="&#xa7;" horiz-adv-x="488"
d="M435 225q-6 -30 -30.5 -55t-51.5 -45q13 -12 26 -27.5t23 -33t16.5 -36t6.5 -37.5q0 -47 -15.5 -78t-41 -50.5t-58.5 -27.5t-68 -8q-34 0 -67 8.5t-59.5 26.5t-42.5 47t-16 71q0 31 19.5 46.5t42.5 15.5t42.5 -15.5t19.5 -46.5q0 -14 16.5 -26t45.5 -12q58 0 58 44
q0 22 -6.5 34t-27.5 31l-155 136q-34 29 -49.5 61.5t-10.5 69.5q6 44 26 68t55 44q-11 12 -20 23t-16.5 24.5t-11.5 29.5t-4 38q0 30 9.5 57.5t30 48.5t52 33.5t76.5 12.5q42 0 74 -13t54 -34t33 -48t11 -55q0 -26 -18 -39t-39.5 -13.5t-39.5 12t-18 36.5q0 11 -14 25
t-43 14q-26 0 -39 -11.5t-13 -27.5q0 -15 7 -27.5t16.5 -22t19 -16.5t13.5 -10l125 -102q39 -32 51.5 -68t5.5 -72zM214 354q-9 -5 -16.5 -9t-13.5 -9q-13 -11 -13 -27t18 -32l84 -74q2 1 6 4l7.5 5t9.5 7q13 10 17 28t-11 32z" />
    <glyph glyph-name="dieresis" unicode="&#xa8;" horiz-adv-x="418"
d="M364 621q0 -29 -18 -43t-40 -14t-40 14t-18 43v20q0 28 18 42t40 14t40 -14t18 -42v-20zM171 621q0 -29 -18 -43t-40 -14t-40 14t-18 43v20q0 28 18 42t40 14t40 -14t18 -42v-20z" />
    <glyph glyph-name="copyright" unicode="&#xa9;" horiz-adv-x="842"
d="M791 326q0 -77 -29.5 -144.5t-80 -117.5t-118 -79t-144.5 -29t-144 29t-117 79t-79 117.5t-29 144.5t29 144.5t79 118t117 79.5t144 29t144.5 -29t118 -79.5t80 -118t29.5 -144.5zM703 326q0 58 -22.5 110t-61 90t-90 60.5t-110.5 22.5q-58 0 -109 -22.5t-89.5 -60.5
t-60.5 -90t-22 -110q0 -59 22 -110.5t60.5 -89.5t89.5 -60t109 -22q59 0 110.5 22t90 60t61 89.5t22.5 110.5zM547 208q-3 -23 -14.5 -42.5t-28 -34t-38 -22.5t-45.5 -8h-5q-26 0 -49 10t-40 27t-27 39.5t-10 48.5v197q0 26 10 48.5t27 39.5t40 27t49 10h5q24 0 45.5 -8.5
t38.5 -23t28 -34t14 -42.5q3 -19 -8 -30.5t-27 -13.5q-17 -3 -30.5 4.5t-16.5 26.5q-2 19 -14.5 27.5t-29.5 8.5h-5q-21 0 -31.5 -12.5t-10.5 -31.5v-189q0 -19 11 -32t31 -13h5q17 0 29.5 9.5t14.5 27.5q3 18 16.5 25.5t30.5 5.5q16 -3 27 -14.5t8 -30.5z" />
    <glyph glyph-name="ordfeminine" unicode="&#xaa;" horiz-adv-x="329"
d="M293 417q-3 -28 -37 -28q-14 0 -25 7.5t-18 15.5q-14 -12 -31.5 -17.5t-32.5 -5.5h-6q-20 0 -39.5 5.5t-34.5 18t-24 32t-9 46.5q0 23 8.5 38t22 25t31.5 15.5t38 8.5l7 0.5t15 2t15.5 4t8.5 5.5q1 1 1 3v3q0 10 -9 18.5t-23 8.5h-4q-23 0 -31 -18q-8 -17 -22 -20.5
t-27 2t-20 18.5t1 30q16 36 44.5 49t54.5 13h4q22 0 41 -8.5t33 -22.5t22.5 -32.5t8.5 -39.5v-122q0 -6 6.5 -9.5t14 -8t13 -13t3.5 -24.5zM182 523q-13 -3 -25.5 -5t-23.5 -5q-23 -7 -23 -20q0 -29 33 -29h6q14 0 23.5 9.5t9.5 23.5v26z" />
    <glyph glyph-name="guillemotleft" unicode="&#xab;" horiz-adv-x="571"
d="M517 107q0 -11 -2.5 -22t-12.5 -22q-9 -11 -19.5 -14.5t-21.5 -3.5q-14 0 -24 6.5t-17 14.5l-126 138q-11 11 -15.5 25.5t-4.5 24.5t4.5 24.5t15.5 25.5l126 138q7 8 17 14.5t24 6.5q26 0 41 -18t15 -44q0 -14 -5.5 -25.5t-13.5 -19.5l-94 -102l94 -102q8 -8 13.5 -19.5
t5.5 -25.5zM277 107q0 -11 -3 -22t-13 -22q-17 -18 -40 -18q-13 0 -23.5 6.5t-18.5 14.5l-125 138q-11 12 -15.5 26t-4.5 24t4.5 24t15.5 26l125 138q8 8 18.5 14.5t23.5 6.5q26 0 41 -18t15 -44q0 -14 -6 -25.5t-14 -19.5l-93 -102l93 -102q7 -8 13.5 -19.5t6.5 -25.5z" />
    <glyph glyph-name="logicalnot" unicode="&#xac;" horiz-adv-x="411"
d="M368 256q0 -31 -18 -46t-40 -15t-40 15t-18 46v42h-161q-31 0 -46.5 18t-15.5 39q0 22 15.5 40t46.5 18h215q25 0 43.5 -18.5t18.5 -43.5v-95v0z" />
    <glyph glyph-name="registered" unicode="&#xae;" horiz-adv-x="842"
d="M791 326q0 -77 -29.5 -144.5t-80 -117.5t-118 -79t-144.5 -29t-144 29t-117 79t-79 117.5t-29 144.5t29 144.5t79 118t117 79.5t144 29t144.5 -29t118 -79.5t80 -118t29.5 -144.5zM703 326q0 58 -22.5 110t-61 90t-90 60.5t-110.5 22.5q-58 0 -109 -22.5t-89.5 -60.5
t-60.5 -90t-22 -110q0 -59 22 -110.5t60.5 -89.5t89.5 -60t109 -22q59 0 110.5 22t90 60t61 89.5t22.5 110.5zM568 139q0 -16 -14.5 -27t-31.5 -11q-11 0 -20 5t-14 17l-68 160h-31v-143q0 -20 -13 -29.5t-30 -9.5t-30 9.5t-13 29.5v369q0 15 10.5 27t27.5 12h98
q26 0 49.5 -10t41 -27t28 -40t10.5 -49v-6q0 -35 -18.5 -63.5t-51.5 -48.5l65 -147q5 -10 5 -18zM482 420q0 23 -16.5 33t-33.5 10h-43v-92h45q19 0 33.5 11.5t14.5 32.5v5z" />
    <glyph glyph-name="macron" unicode="&#xaf;" horiz-adv-x="430"
d="M389 633q0 -21 -15 -39t-46 -18h-226q-32 0 -47 18t-15 40q0 21 15 39t46 18h226q32 0 47 -18t15 -40z" />
    <glyph glyph-name="degree" unicode="&#xb0;" horiz-adv-x="311"
d="M283 569q0 -26 -10 -49.5t-27.5 -41t-40.5 -27.5t-49 -10q-27 0 -50 10t-40.5 27.5t-27.5 41t-10 49.5t10 49.5t27.5 41t40.5 27.5t50 10q26 0 49 -10t40.5 -27.5t27.5 -41t10 -49.5zM193 569q0 16 -11 27t-26 11q-16 0 -27 -11t-11 -27q0 -15 11 -26t27 -11q15 0 26 11
t11 26z" />
    <glyph glyph-name="plusminus" unicode="&#xb1;" horiz-adv-x="434"
d="M398 312q0 -21 -14 -39t-43 -18h-65v-65q0 -29 -19 -43.5t-40 -14.5t-39 14.5t-18 43.5v65h-68q-29 0 -42.5 18.5t-13.5 39.5q0 20 13.5 38.5t42.5 18.5h68v67q0 29 18.5 43t39.5 14t39.5 -14t18.5 -43v-67h65q29 0 43 -18.5t14 -39.5zM386 57q0 -21 -14.5 -39t-43.5 -18
h-224q-29 0 -43.5 18t-14.5 39q0 22 14.5 40t43.5 18h224q29 0 43.5 -18t14.5 -40z" />
    <glyph glyph-name="twosuperior" unicode="&#xb2;" horiz-adv-x="350"
d="M303 337q0 -20 -14 -37.5t-42 -17.5h-148q-26 0 -39 18.5t-13 40.5q0 23 11 38l118 171q2 4 4 9t2 10v6q0 3 -2.5 7t-9.5 4q-6 0 -8.5 -4.5t-2.5 -6.5v-2q0 -29 -18 -42.5t-38 -13.5q-21 0 -38.5 14t-17.5 43v5q0 28 9.5 50t25.5 37t38 23t46 8h8q24 0 45.5 -8t38 -23.5
t26 -37.5t9.5 -50v-10q0 -12 -5 -27.5t-16 -31.5l-76 -116h51q28 0 42 -18t14 -38z" />
    <glyph glyph-name="threesuperior" unicode="&#xb3;" horiz-adv-x="338"
d="M291 396q0 -25 -9.5 -46t-25.5 -36t-37.5 -23.5t-45.5 -8.5h-9q-49 0 -83 29t-34 84q0 24 16.5 36.5t37.5 12.5q10 0 20.5 -2t19.5 -6.5t14.5 -13t5.5 -20.5q0 -9 8 -9q3 0 7 2t4 7v26q0 8 -3 13.5t-20 5.5q-18 0 -29 13.5t-11 33.5t11 31.5t29 11.5q14 0 18.5 3t4.5 16
v22q0 8 -10 8q-8 0 -8 -8q0 -13 -7 -20t-16 -10.5t-18.5 -4.5t-14.5 -1q-55 0 -55 63q0 45 34.5 68.5t85.5 23.5q22 0 43.5 -6t38.5 -19.5t27.5 -36.5t10.5 -56v-9q0 -23 -5 -38t-17 -33q12 -19 17 -36t5 -40v-27v0z" />
    <glyph glyph-name="acute" unicode="&#xb4;" horiz-adv-x="408"
d="M341 638q0 -14 -7.5 -27.5t-24.5 -21.5l-160 -75q-14 -7 -26 -7q-24 0 -39.5 18.5t-15.5 40.5q0 14 7.5 27.5t24.5 21.5l160 76q7 4 13.5 5t12.5 1q24 0 39.5 -18.5t15.5 -40.5z" />
    <glyph glyph-name="mu" unicode="&#xb5;" horiz-adv-x="447"
d="M398 50q0 -28 -18 -42t-40 -14q-23 0 -35 5t-23 16q-12 -11 -29 -16t-28 -5t-29.5 5t-29.5 16v-173q0 -29 -18 -43.5t-40 -14.5t-40 14.5t-18 43.5v590q0 28 18 42t40 14t40 -14t18 -42v-269q0 -23 15 -38.5t39 -15.5h8q23 0 38.5 15.5t15.5 38.5v269q0 28 18 42t40 14
t40 -14t18 -42v-382v0z" />
    <glyph glyph-name="mu" unicode="&#x3bc;" horiz-adv-x="447"
d="M398 50q0 -28 -18 -42t-40 -14q-23 0 -35 5t-23 16q-12 -11 -29 -16t-28 -5t-29.5 5t-29.5 16v-173q0 -29 -18 -43.5t-40 -14.5t-40 14.5t-18 43.5v590q0 28 18 42t40 14t40 -14t18 -42v-269q0 -23 15 -38.5t39 -15.5h8q23 0 38.5 15.5t15.5 38.5v269q0 28 18 42t40 14
t40 -14t18 -42v-382v0z" />
    <glyph glyph-name="paragraph" unicode="&#xb6;" horiz-adv-x="572"
d="M507 -24q0 -29 -18 -44t-40 -15t-40 14.5t-18 43.5v601h-62v-600q0 -29 -18 -44t-40 -15t-40 14.5t-18 43.5v317q-41 0 -77.5 15t-63.5 41.5t-42.5 63t-15.5 79.5q0 44 15.5 80.5t42 63t62 41.5t75.5 15h240q22 0 40 -14.5t18 -43.5v-658v1zM213 576q-42 0 -62.5 -25
t-20.5 -60q0 -36 20.5 -60t62.5 -24v169z" />
    <glyph glyph-name="periodcentered" unicode="&#xb7;" horiz-adv-x="167"
d="M131 333q0 -24 -15 -36t-32 -12q-18 0 -33 12t-15 36v22q0 24 15 36t33 12q17 0 32 -12t15 -36v-22v0z" />
    <glyph glyph-name="cedilla" unicode="&#xb8;" horiz-adv-x="385"
d="M287 -106q0 -38 -26.5 -64t-63.5 -26h-10q-32 0 -55.5 18.5t-31.5 46.5q-2 8 -2 12q0 17 12.5 27t27.5 10q11 0 20.5 -6.5t14.5 -21.5q3 -10 14 -10h10q5 0 9.5 4t4.5 10v10q0 6 -4.5 10t-9.5 4h-5q-15 0 -26.5 11.5t-11.5 26.5v69q0 19 12 28.5t26 9.5t26 -9.5t12 -28.5
v-37q25 -10 41 -32.5t16 -51.5v-10v0z" />
    <glyph glyph-name="onesuperior" unicode="&#xb9;" horiz-adv-x="287"
d="M240 338q0 -28 -17 -42t-38 -14q-20 0 -38 14t-18 42v175q-13 -9 -30 -9q-20 0 -33 12q-11 8 -15 18t-4 20q0 12 4.5 22t10.5 17l70 80q9 11 21 17.5t32 6.5q29 0 42 -17.5t13 -39.5v-302v0z" />
    <glyph glyph-name="ordmasculine" unicode="&#xba;" horiz-adv-x="292"
d="M256 498q0 -23 -8.5 -42.5t-23 -34.5t-34 -23.5t-41.5 -8.5h-5q-23 0 -42.5 8.5t-34 23.5t-23 34.5t-8.5 42.5v92q0 22 8.5 41.5t23 34t34 23t42.5 8.5h5q22 0 41.5 -8.5t34 -23t23 -34t8.5 -41.5v-92zM182 590q0 14 -9.5 24t-23.5 10h-5q-14 0 -24 -10t-10 -24v-92
q0 -14 10 -24t24 -10h5q14 0 23.5 10t9.5 24v92z" />
    <glyph glyph-name="guillemotright" unicode="&#xbb;" horiz-adv-x="571"
d="M537 254q0 -10 -4.5 -24t-15.5 -26l-125 -138q-8 -8 -18.5 -14.5t-23.5 -6.5q-23 0 -40 18q-10 11 -13 22t-3 22q0 14 6 25.5t14 19.5l92 102l-92 102q-8 8 -14 19.5t-6 25.5q0 26 15 44t41 18q13 0 23.5 -6.5t18.5 -14.5l125 -138q11 -12 15.5 -26t4.5 -24zM297 254
q0 -10 -4.5 -24.5t-15.5 -25.5l-126 -138q-7 -8 -17 -14.5t-24 -6.5q-11 0 -21.5 3.5t-19.5 14.5q-10 11 -12.5 22t-2.5 22q0 14 5.5 25.5t13.5 19.5l93 102l-93 102q-8 8 -13.5 19.5t-5.5 25.5q0 26 15 44t41 18q14 0 24 -6.5t17 -14.5l126 -138q11 -11 15.5 -25.5
t4.5 -24.5z" />
    <glyph glyph-name="onequarter" unicode="&#xbc;" horiz-adv-x="850"
d="M803 129q0 -9 -3.5 -19.5t-10.5 -19t-17 -14.5t-23 -6h-15v-20q0 -28 -15.5 -42t-35.5 -14q-21 0 -36.5 14t-15.5 42v20h-120q-17 0 -29 7.5t-19 19.5t-7 27t8 29l124 227q8 16 22 22.5t28 6.5q22 0 38 -14t16 -37q0 -16 -8 -29l-86 -148h33v6q0 25 14 39.5t38 14.5
q21 0 36 -13t15 -41v-6h15q26 0 40 -16t14 -36zM615 639q0 -15 -9 -30l-352 -586q-9 -15 -21.5 -22t-26.5 -7q-26 0 -43 17t-17 40q0 16 9 31l352 586q9 15 21.5 22t26.5 7q26 0 43 -17.5t17 -40.5zM240 338q0 -28 -17 -42t-38 -14q-20 0 -38 14t-18 42v175q-13 -9 -30 -9
q-20 0 -33 12q-11 8 -15 18t-4 20q0 12 4.5 22t10.5 17l70 80q9 11 21 17.5t32 6.5q29 0 42 -17.5t13 -39.5v-302z" />
    <glyph glyph-name="onehalf" unicode="&#xbd;" horiz-adv-x="806"
d="M759 49q0 -20 -14 -37.5t-42 -17.5h-148q-26 0 -39 18.5t-13 40.5q0 23 11 38l118 171q2 4 4 9t2 10v6q0 4 -2.5 7.5t-9.5 3.5q-6 0 -9 -4.5t-3 -6.5v-2q0 -29 -17.5 -42.5t-37.5 -13.5q-21 0 -38.5 14t-17.5 43v5q0 57 35 87.5t83 30.5h8q24 0 45.5 -8t38 -23.5
t26.5 -37.5t10 -50v-10q0 -12 -5 -27.5t-16 -31.5l-76 -116h51q28 0 42 -18t14 -38zM611 639q0 -15 -9 -30l-352 -586q-9 -15 -21.5 -22t-26.5 -7q-26 0 -43 17t-17 40q0 16 9 31l352 586q9 15 21.5 22t26.5 7q26 0 43 -17.5t17 -40.5zM240 338q0 -28 -17 -42t-38 -14
q-20 0 -38 14t-18 42v175q-13 -9 -30 -9q-20 0 -33 12q-11 8 -15 18t-4 20q0 12 4.5 22t10.5 17l70 80q9 11 21 17.5t32 6.5q29 0 42 -17.5t13 -39.5v-302z" />
    <glyph glyph-name="threequarters" unicode="&#xbe;" horiz-adv-x="888"
d="M841 129q0 -9 -3.5 -19.5t-10 -19t-17 -14.5t-23.5 -6h-14v-20q0 -28 -15.5 -42t-36.5 -14t-36 14t-15 42v20h-120q-17 0 -29 7.5t-19 19.5t-7 27t8 29l124 227q8 16 21.5 22.5t27.5 6.5q23 0 39 -14t16 -37q0 -16 -8 -29l-87 -148h34v6q0 25 14 39.5t38 14.5
q21 0 36 -13t15 -41v-6h14q26 0 40 -16t14 -36zM653 639q0 -17 -8 -30l-353 -586q-17 -29 -48 -29q-25 0 -42 17t-17 40q0 16 9 31l352 586q9 15 21.5 22t26.5 7q26 0 42.5 -17.5t16.5 -40.5zM291 396q0 -25 -9.5 -46t-25.5 -36t-37.5 -23.5t-45.5 -8.5h-9q-49 0 -83 29
t-34 84q0 24 16.5 36.5t37.5 12.5q10 0 20.5 -2t19.5 -6.5t14.5 -13t5.5 -20.5q0 -9 8 -9q3 0 7 2t4 7v26q0 8 -3 13.5t-20 5.5q-18 0 -29 13.5t-11 33.5t11 31.5t29 11.5q14 0 18.5 3t4.5 16v22q0 8 -10 8q-8 0 -8 -8q0 -13 -7 -20t-16 -10.5t-18.5 -4.5t-14.5 -1
q-55 0 -55 63q0 45 34.5 68.5t85.5 23.5q22 0 43.5 -6t38.5 -19.5t27.5 -36.5t10.5 -56v-9q0 -23 -5 -38t-17 -33q12 -19 17 -36t5 -40v-27z" />
    <glyph glyph-name="questiondown" unicode="&#xbf;" horiz-adv-x="391"
d="M257 627q0 -24 -15 -36t-33 -12t-32.5 12t-14.5 36v22q0 24 14.5 36t32.5 12t33 -12t15 -36v-22zM377 156q0 -32 -12 -61t-34 -51.5t-53 -36t-68 -13.5h-6q-38 0 -69 13t-53 35.5t-34 52.5t-12 65v35q0 46 16.5 71.5t38.5 45.5q13 12 26 21.5t23 20t16 24t6 34.5v47
q0 24 15 36t33 12t33 -12t15 -36v-47q0 -33 -6.5 -55.5t-19 -40t-31.5 -34.5t-44 -39q-4 -3 -14.5 -14t-10.5 -39v-30q0 -29 21 -49.5t51 -20.5h6q29 0 50 19.5t21 46.5v3q0 24 15 36t33 12t33 -12t15 -36v-3z" />
    <glyph glyph-name="Agrave" unicode="&#xc0;"
d="M426 760q0 -22 -15.5 -40.5t-39.5 -18.5q-10 0 -26 7l-170 80q-17 8 -25 21.5t-8 28.5q0 22 15.5 40.5t39.5 18.5q6 0 12 -2t14 -5l170 -81q33 -17 33 -49zM521 50q0 -26 -18.5 -41t-41.5 -15q-17 0 -32 9.5t-21 31.5l-37 121h-198l-37 -121q-7 -22 -22 -31.5t-32 -9.5
q-23 0 -41.5 15t-18.5 41q0 5 0.5 9.5t2.5 9.5l183 579q11 34 28 41.5t36 7.5q9 0 18 -1.5t17.5 -6.5t15.5 -14.5t13 -26.5l182 -579q3 -11 3 -19zM272 482l-63 -211h126z" />
    <glyph glyph-name="Aacute" unicode="&#xc1;"
d="M401 838q0 -15 -8 -28t-25 -21l-160 -76q-14 -6 -26 -6q-24 0 -39.5 18.5t-15.5 40.5q0 14 8 27.5t25 21.5l160 75q16 7 26 7q24 0 39.5 -18.5t15.5 -40.5zM521 50q0 -26 -18.5 -41t-41.5 -15q-17 0 -32 9.5t-21 31.5l-37 121h-198l-37 -121q-7 -22 -22 -31.5t-32 -9.5
q-23 0 -41.5 15t-18.5 41q0 5 0.5 9.5t2.5 9.5l183 579q11 34 28 41.5t36 7.5q9 0 18 -1.5t17.5 -6.5t15.5 -14.5t13 -26.5l182 -579q3 -11 3 -19zM272 482l-63 -211h126z" />
    <glyph glyph-name="Acircumflex" unicode="&#xc2;"
d="M442 770q0 -22 -16 -38.5t-40 -16.5q-11 0 -20 5t-17 11l-77 53l-76 -53q-9 -6 -18 -11t-20 -5q-23 0 -40 17.5t-17 39.5q0 10 5.5 20.5t15.5 18.5q-4 -2 4 3q7 5 25.5 18.5t59.5 42.5q29 22 58 22q28 0 60 -22q42 -29 61.5 -42.5t26.5 -18.5q8 -5 4 -3q11 -8 16 -19.5
t5 -21.5zM521 50q0 -26 -18.5 -41t-41.5 -15q-17 0 -32 9.5t-21 31.5l-37 121h-198l-37 -121q-7 -22 -22 -31.5t-32 -9.5q-23 0 -41.5 15t-18.5 41q0 5 0.5 9.5t2.5 9.5l183 579q11 34 28 41.5t36 7.5q9 0 18 -1.5t17.5 -6.5t15.5 -14.5t13 -26.5l182 -579q3 -11 3 -19z
M272 482l-63 -211h126z" />
    <glyph glyph-name="Atilde" unicode="&#xc3;"
d="M446 850q0 -21 -13 -34.5t-31.5 -22t-39.5 -11.5t-36 -3t-29.5 4t-28.5 9t-27.5 9t-28.5 4q-10 0 -17 -4t-13 -9t-13 -9t-18 -4q-22 0 -35.5 15t-13.5 34t13 32q18 19 39 28.5t56 9.5q17 0 32.5 -4t30 -9t28 -9t27.5 -4q10 0 18 4t16 8.5t16 8.5t19 4q21 0 35 -14t14 -33
zM521 50q0 -26 -18.5 -41t-41.5 -15q-17 0 -32 9.5t-21 31.5l-37 121h-198l-37 -121q-7 -22 -22 -31.5t-32 -9.5q-23 0 -41.5 15t-18.5 41q0 5 0.5 9.5t2.5 9.5l183 579q11 34 28 41.5t36 7.5q9 0 18 -1.5t17.5 -6.5t15.5 -14.5t13 -26.5l182 -579q3 -11 3 -19zM272 482
l-63 -211h126z" />
    <glyph glyph-name="Adieresis" unicode="&#xc4;"
d="M425 820q0 -28 -18 -42t-40 -14t-40 14t-18 42v20q0 29 18 43t40 14t40 -14t18 -43v-20zM232 820q0 -28 -18 -42t-40 -14t-40 14t-18 42v20q0 29 18 43t40 14t40 -14t18 -43v-20zM521 50q0 -26 -18.5 -41t-41.5 -15q-17 0 -32 9.5t-21 31.5l-37 121h-198l-37 -121
q-7 -22 -22 -31.5t-32 -9.5q-23 0 -41.5 15t-18.5 41q0 5 0.5 9.5t2.5 9.5l183 579q11 34 28 41.5t36 7.5q9 0 18 -1.5t17.5 -6.5t15.5 -14.5t13 -26.5l182 -579q3 -11 3 -19zM272 482l-63 -211h126z" />
    <glyph glyph-name="Aring" unicode="&#xc5;"
d="M364 804q0 -19 -7 -36t-19.5 -29.5t-29.5 -20t-36 -7.5q-20 0 -36.5 7.5t-29.5 20t-20 29.5t-7 36t7 36t20 29.5t29.5 20t36.5 7.5q19 0 36 -7.5t29.5 -20t19.5 -29.5t7 -36zM521 50q0 -26 -18.5 -41t-41.5 -15q-17 0 -32 9.5t-21 31.5l-37 121h-198l-37 -121
q-7 -22 -22 -31.5t-32 -9.5q-23 0 -41.5 15t-18.5 41q0 5 0.5 9.5t2.5 9.5l183 579q11 34 28 41.5t36 7.5q9 0 18 -1.5t17.5 -6.5t15.5 -14.5t13 -26.5l182 -579q3 -11 3 -19zM293 804q0 9 -6.5 15.5t-14.5 6.5q-10 0 -16.5 -6.5t-6.5 -15.5q0 -10 6.5 -16.5t16.5 -6.5
q8 0 14.5 6.5t6.5 16.5zM272 482l-63 -211h126z" />
    <glyph glyph-name="AE" unicode="&#xc6;" horiz-adv-x="732"
d="M711 57q0 -21 -14 -39t-43 -18h-259q-23 0 -40.5 17.5t-17.5 40.5v112h-160l-41 -135q-7 -22 -22 -31.5t-32 -9.5q-23 0 -41.5 15t-18.5 41q0 5 0.5 9.5t2.5 9.5l179 572q6 20 25 35t48 15h377q29 0 43 -18t14 -39q0 -22 -14 -40t-43 -18h-201v-163h121q29 0 43.5 -18
t14.5 -40q0 -21 -14.5 -39t-43.5 -18h-121v-183h201q29 0 43 -18t14 -40zM337 576h-39l-87 -291h126v291z" />
    <glyph glyph-name="Ccedilla" unicode="&#xc7;" horiz-adv-x="491"
d="M462 160q-10 -65 -56 -109.5t-111 -54.5v-8q25 -10 41 -32.5t16 -51.5v-10q0 -38 -26.5 -64t-63.5 -26h-10q-32 0 -55.5 18.5t-31.5 46.5q-2 8 -2 12q0 17 12.5 27t26.5 10q11 0 21 -6.5t15 -21.5q3 -10 14 -10h10q5 0 9.5 4t4.5 10v10q0 6 -4.5 10t-9.5 4h-5
q-15 0 -26.5 11.5t-11.5 26.5v41q-35 6 -65.5 23t-52.5 42.5t-34.5 58t-12.5 69.5v312q0 42 16 77.5t43 61.5t63.5 41t77.5 15h9q38 0 72 -12.5t60 -34.5t43.5 -52.5t22.5 -67.5q1 -3 1 -10q0 -27 -18.5 -41.5t-40.5 -14.5q-20 0 -36 12t-20 38q-5 31 -28.5 49.5t-55.5 18.5
h-9q-35 0 -60 -22.5t-25 -57.5v-312q0 -35 25 -58t60 -23h9q32 0 55.5 18.5t28.5 49.5q4 26 20.5 38t35.5 12q23 0 41 -14.5t18 -41.5v-11v0z" />
    <glyph glyph-name="Egrave" unicode="&#xc8;" horiz-adv-x="495"
d="M407 760q0 -22 -15.5 -40.5t-39.5 -18.5q-10 0 -26 7l-170 80q-17 8 -25 21.5t-8 28.5q0 22 15.5 40.5t39.5 18.5q10 0 26 -7l170 -81q33 -17 33 -49zM474 57q0 -21 -14.5 -39t-43.5 -18h-293q-23 0 -40.5 17.5t-17.5 40.5v575q0 23 17.5 40.5t40.5 17.5h293
q29 0 43.5 -18t14.5 -39q0 -22 -14.5 -40t-43.5 -18h-235v-163h156q29 0 43.5 -18t14.5 -40q0 -21 -14.5 -39t-43.5 -18h-156v-183h235q29 0 43.5 -18t14.5 -40z" />
    <glyph glyph-name="Eacute" unicode="&#xc9;" horiz-adv-x="495"
d="M406 838q0 -15 -8 -28t-25 -21l-160 -76q-14 -6 -26 -6q-24 0 -39.5 18.5t-15.5 40.5q0 14 8 27.5t25 21.5l160 75q16 7 26 7q24 0 39.5 -18.5t15.5 -40.5zM474 57q0 -21 -14.5 -39t-43.5 -18h-293q-23 0 -40.5 17.5t-17.5 40.5v575q0 23 17.5 40.5t40.5 17.5h293
q29 0 43.5 -18t14.5 -39q0 -22 -14.5 -40t-43.5 -18h-235v-163h156q29 0 43.5 -18t14.5 -40q0 -21 -14.5 -39t-43.5 -18h-156v-183h235q29 0 43.5 -18t14.5 -40z" />
    <glyph glyph-name="Ecircumflex" unicode="&#xca;" horiz-adv-x="495"
d="M440 770q0 -22 -16 -38.5t-40 -16.5q-11 0 -20 5t-17 11l-77 53l-76 -53q-8 -6 -17.5 -11t-20.5 -5q-23 0 -40 17.5t-17 39.5q0 10 5.5 20.5t15.5 18.5q-4 -2 4 3q7 5 25.5 18.5t59.5 42.5q31 22 58 22q29 0 60 -22q42 -29 61.5 -42.5t26.5 -18.5q8 -5 4 -3
q11 -8 16 -19.5t5 -21.5zM474 57q0 -21 -14.5 -39t-43.5 -18h-293q-23 0 -40.5 17.5t-17.5 40.5v575q0 23 17.5 40.5t40.5 17.5h293q29 0 43.5 -18t14.5 -39q0 -22 -14.5 -40t-43.5 -18h-235v-163h156q29 0 43.5 -18t14.5 -40q0 -21 -14.5 -39t-43.5 -18h-156v-183h235
q29 0 43.5 -18t14.5 -40z" />
    <glyph glyph-name="Edieresis" unicode="&#xcb;" horiz-adv-x="495"
d="M426 820q0 -28 -18 -42t-40 -14t-40 14t-18 42v20q0 29 18 43t40 14t40 -14t18 -43v-20zM233 820q0 -28 -18 -42t-40 -14t-40 14t-18 42v20q0 29 18 43t40 14t40 -14t18 -43v-20zM474 57q0 -21 -14.5 -39t-43.5 -18h-293q-23 0 -40.5 17.5t-17.5 40.5v575q0 23 17.5 40.5
t40.5 17.5h293q29 0 43.5 -18t14.5 -39q0 -22 -14.5 -40t-43.5 -18h-235v-163h156q29 0 43.5 -18t14.5 -40q0 -21 -14.5 -39t-43.5 -18h-156v-183h235q29 0 43.5 -18t14.5 -40z" />
    <glyph glyph-name="Igrave" unicode="&#xcc;" horiz-adv-x="307"
d="M296 760q0 -22 -15.5 -40.5t-39.5 -18.5q-10 0 -26 7l-170 80q-18 8 -25.5 21.5t-7.5 28.5q0 22 15.5 40.5t39.5 18.5q6 0 12 -2t14 -5l170 -81q33 -17 33 -49zM212 52q0 -29 -18 -43.5t-40 -14.5t-40 14.5t-18 43.5v587q0 29 18 43.5t40 14.5t40 -14.5t18 -43.5v-587z
" />
    <glyph glyph-name="Iacute" unicode="&#xcd;" horiz-adv-x="304"
d="M289 838q0 -15 -8 -28t-25 -21l-160 -76q-14 -6 -26 -6q-24 0 -39.5 18.5t-15.5 40.5q0 14 8 27.5t25 21.5l160 75q16 7 26 7q24 0 39.5 -18.5t15.5 -40.5zM210 52q0 -29 -18 -43.5t-40 -14.5t-40 14.5t-18 43.5v587q0 29 18 43.5t40 14.5t40 -14.5t18 -43.5v-587z" />
    <glyph glyph-name="Icircumflex" unicode="&#xce;" horiz-adv-x="323"
d="M332 770q0 -22 -16.5 -39t-39.5 -17q-11 0 -20 5.5t-17 10.5l-77 52l-76 -52q-8 -6 -17.5 -11t-20.5 -5q-23 0 -40 17.5t-17 39.5q0 19 18 37l1 1l91 66q29 22 58 22t60 -22l95 -66l1 -1q17 -17 17 -38zM220 52q0 -29 -18 -43.5t-40 -14.5t-40.5 14.5t-18.5 43.5v587
q0 29 18 43.5t40 14.5t40 -14.5t18 -43.5v-587h1z" />
    <glyph glyph-name="Idieresis" unicode="&#xcf;" horiz-adv-x="314"
d="M312 820q0 -28 -18 -42t-40 -14t-40 14t-18 42v20q0 29 18 43t40 14t40 -14t18 -43v-20zM119 820q0 -28 -18 -42t-40 -14t-40 14t-18 42v20q0 29 18 42.5t40 13.5t40 -13.5t18 -42.5v-20zM215 52q0 -29 -18 -43.5t-40 -14.5t-40 14.5t-18 43.5v587q0 29 18 43.5t40 14.5
t40 -14.5t18 -43.5v-587z" />
    <glyph glyph-name="Eth" unicode="&#xd0;" horiz-adv-x="585"
d="M538 200q0 -41 -16 -77.5t-43 -63.5t-63.5 -43t-77.5 -16h-152q-23 0 -40.5 17.5t-17.5 40.5v265h-20q-29 0 -43.5 18t-14.5 40t14.5 39.5t43.5 17.5h20v195q0 23 17.5 40.5t40.5 17.5h152q41 0 77.5 -15.5t63.5 -42.5t43 -63.5t16 -78.5v-291zM423 491q0 18 -7 33.5
t-18.5 27t-27 18t-32.5 6.5h-94v-138h66q29 0 43.5 -17.5t14.5 -39.5t-14.5 -40t-43.5 -18h-66v-207l94 -1q35 0 60 25t25 60v291z" />
    <glyph glyph-name="Ntilde" unicode="&#xd1;" horiz-adv-x="539"
d="M441 850q0 -21 -13 -34.5t-31.5 -22t-39.5 -11.5t-36 -3t-29.5 4t-28.5 9t-27.5 9t-28.5 4q-10 0 -17 -4t-13 -9t-13 -9t-18 -4q-22 0 -35.5 15t-13.5 34t13 32q18 19 39 28.5t56 9.5q17 0 32.5 -4t30 -9t28 -9t27.5 -4q10 0 18 4t16 8.5t16 8.5t19 4q21 0 35 -14t14 -33
zM474 52q0 -23 -17.5 -40.5t-40.5 -17.5h-11q-28 0 -41.5 15t-21.5 35l-161 374v-366q0 -29 -18 -43.5t-40 -14.5t-40 14.5t-18 43.5v587q0 23 17.5 40.5t40.5 17.5h13q28 0 41 -15t22 -35l159 -360v353q0 29 18 43t40 14t40 -14t18 -43v-588z" />
    <glyph glyph-name="Ograve" unicode="&#xd2;" horiz-adv-x="510"
d="M397 760q0 -22 -15.5 -40.5t-39.5 -18.5q-10 0 -26 7l-170 80q-17 8 -25 21.5t-8 28.5q0 22 15.5 40.5t39.5 18.5q10 0 26 -7l170 -81q17 -8 25 -21t8 -28zM459 191q0 -42 -15.5 -78t-42.5 -62.5t-63.5 -41.5t-78.5 -15h-9q-41 0 -77.5 15t-63.5 41.5t-43 62.5t-16 77
v311q0 42 16 77.5t43 62t63.5 41.5t77.5 15h9q42 0 78.5 -15t63.5 -41.5t42.5 -62t15.5 -77.5v-310zM343 501q0 35 -24.5 58t-59.5 23h-9q-35 0 -59.5 -23t-24.5 -58v-310q0 -35 24.5 -58.5t59.5 -23.5h9q35 0 59.5 23t24.5 58v311z" />
    <glyph glyph-name="Oacute" unicode="&#xd3;" horiz-adv-x="510"
d="M392 838q0 -15 -7.5 -28t-24.5 -21l-161 -76q-14 -6 -26 -6q-24 0 -39.5 18.5t-15.5 40.5q0 14 8 27.5t25 21.5l160 75q16 7 26 7q24 0 39.5 -18.5t15.5 -40.5zM459 191q0 -42 -15.5 -78t-42.5 -62.5t-63.5 -41.5t-78.5 -15h-9q-41 0 -77.5 15t-63.5 41.5t-43 62.5
t-16 77v311q0 42 16 77.5t43 62t63.5 41.5t77.5 15h9q42 0 78.5 -15t63.5 -41.5t42.5 -62t15.5 -77.5v-310zM343 501q0 35 -24.5 58t-59.5 23h-9q-35 0 -59.5 -23t-24.5 -58v-310q0 -35 24.5 -58.5t59.5 -23.5h9q35 0 59.5 23t24.5 58v311z" />
    <glyph glyph-name="Ocircumflex" unicode="&#xd4;" horiz-adv-x="510"
d="M425 770q0 -22 -16 -38.5t-40 -16.5q-11 0 -19.5 5t-17.5 11l-77 53l-76 -53q-8 -6 -17.5 -11t-20.5 -5q-23 0 -40 17.5t-17 39.5q0 10 6 20.5t15 18.5q-4 -2 4 3q7 5 25.5 18.5t59.5 42.5q31 22 58 22q29 0 60 -22q42 -29 61.5 -42.5t26.5 -18.5q8 -5 4 -3
q11 -8 16 -19.5t5 -21.5zM459 191q0 -42 -15.5 -78t-42.5 -62.5t-63.5 -41.5t-78.5 -15h-9q-41 0 -77.5 15t-63.5 41.5t-43 62.5t-16 77v311q0 42 16 77.5t43 62t63.5 41.5t77.5 15h9q42 0 78.5 -15t63.5 -41.5t42.5 -62t15.5 -77.5v-310zM343 501q0 35 -24.5 58t-59.5 23
h-9q-35 0 -59.5 -23t-24.5 -58v-310q0 -35 24.5 -58.5t59.5 -23.5h9q35 0 59.5 23t24.5 58v311z" />
    <glyph glyph-name="Otilde" unicode="&#xd5;" horiz-adv-x="517"
d="M427 850q0 -21 -13 -34.5t-31.5 -22t-39.5 -11.5t-36 -3t-29.5 4t-28.5 9t-27.5 9t-28.5 4q-10 0 -17 -4t-13 -9t-13 -9t-18 -4q-22 0 -35.5 15t-13.5 34t13 32q18 19 39 28.5t56 9.5q17 0 32.5 -4t30 -9t28 -9t27.5 -4q10 0 18 4t16 8.5t16 8.5t19 4q21 0 35 -14t14 -33
zM463 191q0 -42 -15.5 -78t-42.5 -62.5t-63.5 -41.5t-78.5 -15h-9q-41 0 -77.5 15t-63.5 41.5t-43 62.5t-16 77v311q0 42 16 77.5t43 62t63.5 41.5t77.5 15h9q42 0 78.5 -15t63.5 -41.5t42.5 -62t15.5 -77.5v-310zM347 501q0 35 -24.5 58t-59.5 23h-9q-35 0 -59.5 -23
t-24.5 -58v-310q0 -35 24.5 -58.5t59.5 -23.5h9q35 0 59.5 23t24.5 58v311z" />
    <glyph glyph-name="Odieresis" unicode="&#xd6;" horiz-adv-x="517"
d="M413 820q0 -28 -18 -42t-40 -14t-40 14t-18 42v20q0 29 18 43t40 14t40 -14t18 -43v-20zM220 820q0 -28 -18 -42t-40 -14t-40 14t-18 42v20q0 29 18 43t40 14t40 -14t18 -43v-20zM463 191q0 -42 -15.5 -78t-42.5 -62.5t-63.5 -41.5t-78.5 -15h-9q-41 0 -77.5 15
t-63.5 41.5t-43 62.5t-16 77v311q0 42 16 77.5t43 62t63.5 41.5t77.5 15h9q42 0 78.5 -15t63.5 -41.5t42.5 -62t15.5 -77.5v-310zM347 501q0 35 -24.5 58t-59.5 23h-9q-35 0 -59.5 -23t-24.5 -58v-310q0 -35 24.5 -58.5t59.5 -23.5h9q35 0 59.5 23t24.5 58v311z" />
    <glyph glyph-name="multiply" unicode="&#xd7;" horiz-adv-x="566"
d="M530 53q0 -23 -18 -41t-42 -18q-21 0 -40 18l-147 146l-147 -146q-20 -18 -40 -18q-24 0 -42 18t-18 41q0 20 18 40l145 148l-145 148q-18 19 -18 40q0 23 18 41t42 18q20 0 40 -18l147 -146l147 146q19 18 40 18q24 0 42 -18t18 -41q0 -21 -18 -40l-145 -148l145 -148
q18 -20 18 -40z" />
    <glyph glyph-name="Oslash" unicode="&#xd8;" horiz-adv-x="558"
d="M504 673q0 -14 -8 -28l-31 -61q18 -38 18 -83v-310q0 -42 -15.5 -78t-42.5 -62.5t-63.5 -41.5t-78.5 -15h-9q-26 0 -50.5 6.5t-46.5 17.5l-13 -24q-9 -17 -22 -24.5t-27 -7.5q-16 0 -29 7q-14 7 -23 20t-9 30q0 14 7 27l31 62q-18 37 -18 82v311q0 42 16 77.5t43 62
t63.5 41.5t77.5 15h9q26 0 50.5 -6.5t46.5 -17.5l13 24q9 17 22.5 24.5t27.5 7.5q15 0 28 -7q14 -7 23.5 -19.5t9.5 -29.5zM328 570q-20 12 -45 12h-9q-35 0 -59.5 -23t-24.5 -58v-201zM367 393l-138 -272q19 -12 45 -12h9q35 0 59.5 23t24.5 58v203z" />
    <glyph glyph-name="Ugrave" unicode="&#xd9;" horiz-adv-x="540"
d="M412 760q0 -22 -15.5 -40.5t-39.5 -18.5q-10 0 -26 7l-170 80q-17 8 -25 21.5t-8 28.5q0 22 15.5 40.5t39.5 18.5q10 0 26 -7l170 -81q33 -17 33 -49zM475 194q0 -41 -16 -77.5t-43 -63.5t-63.5 -43t-78.5 -16h-9q-41 0 -77.5 16t-63.5 43t-43 63.5t-16 77.5v445
q0 29 18 43.5t40 14.5t40 -14.5t18 -43.5v-445q0 -35 24.5 -60t59.5 -25h9q35 0 60 25t25 60v445q0 29 18 43.5t40 14.5t40 -14.5t18 -43.5v-445z" />
    <glyph glyph-name="Uacute" unicode="&#xda;" horiz-adv-x="540"
d="M407 838q0 -15 -7.5 -28t-24.5 -21l-161 -76q-14 -6 -26 -6q-24 0 -39.5 18.5t-15.5 40.5q0 14 8 27.5t25 21.5l160 75q16 7 26 7q24 0 39.5 -18.5t15.5 -40.5zM475 194q0 -41 -16 -77.5t-43 -63.5t-63.5 -43t-78.5 -16h-9q-41 0 -77.5 16t-63.5 43t-43 63.5t-16 77.5
v445q0 29 18 43.5t40 14.5t40 -14.5t18 -43.5v-445q0 -35 24.5 -60t59.5 -25h9q35 0 60 25t25 60v445q0 29 18 43.5t40 14.5t40 -14.5t18 -43.5v-445z" />
    <glyph glyph-name="Ucircumflex" unicode="&#xdb;" horiz-adv-x="540"
d="M440 770q0 -22 -16 -38.5t-40 -16.5q-11 0 -20 5t-17 11l-77 53l-76 -53q-8 -6 -17.5 -11t-20.5 -5q-23 0 -40 17.5t-17 39.5q0 10 5.5 20.5t15.5 18.5q-4 -2 4 3q7 5 25.5 18.5t59.5 42.5q31 22 58 22q29 0 60 -22q42 -29 61.5 -42.5t26.5 -18.5q8 -5 4 -3
q11 -8 16 -19.5t5 -21.5zM475 194q0 -41 -16 -77.5t-43 -63.5t-63.5 -43t-78.5 -16h-9q-41 0 -77.5 16t-63.5 43t-43 63.5t-16 77.5v445q0 29 18 43.5t40 14.5t40 -14.5t18 -43.5v-445q0 -35 24.5 -60t59.5 -25h9q35 0 60 25t25 60v445q0 29 18 43.5t40 14.5t40 -14.5
t18 -43.5v-445z" />
    <glyph glyph-name="Udieresis" unicode="&#xdc;" horiz-adv-x="540"
d="M424 820q0 -28 -18 -42t-40 -14t-40 14t-18 42v20q0 29 18 43t40 14t40 -14t18 -43v-20zM231 820q0 -28 -18 -42t-40 -14t-40 14t-18 42v20q0 29 18 43t40 14t40 -14t18 -43v-20zM475 194q0 -41 -16 -77.5t-43 -63.5t-63.5 -43t-78.5 -16h-9q-41 0 -77.5 16t-63.5 43
t-43 63.5t-16 77.5v445q0 29 18 43.5t40 14.5t40 -14.5t18 -43.5v-445q0 -35 24.5 -60t59.5 -25h9q35 0 60 25t25 60v445q0 29 18 43.5t40 14.5t40 -14.5t18 -43.5v-445z" />
    <glyph glyph-name="Yacute" unicode="&#xdd;" horiz-adv-x="475"
d="M364 838q0 -15 -7.5 -28t-24.5 -21l-161 -76q-14 -6 -26 -6q-24 0 -39.5 18.5t-15.5 40.5q0 14 8 27.5t25 21.5l160 75q16 7 26 7q24 0 39.5 -18.5t15.5 -40.5zM446 641q0 -11 -5 -24l-145 -350v-215q0 -29 -18.5 -43.5t-39.5 -14.5q-22 0 -40 14.5t-18 43.5v215
l-146 350q-5 13 -5 24q0 25 18.5 40.5t41.5 15.5q16 0 30 -8t22 -28l97 -231l96 231q8 20 22 28t30 8q23 0 41.5 -15.5t18.5 -40.5z" />
    <glyph glyph-name="Thorn" unicode="&#xde;" horiz-adv-x="460"
d="M421 300q0 -36 -13.5 -67.5t-37.5 -55t-55.5 -37t-67.5 -13.5h-66v-75q0 -29 -18 -43.5t-40 -14.5t-40 14.5t-18 43.5v587q0 29 18 43.5t40 14.5t40 -14.5t18 -43.5v-75h66q36 0 67.5 -13.5t55.5 -37t37.5 -55t13.5 -67.5v-91zM305 391q0 24 -17 41t-41 17h-66v-207h66
q24 0 41 17t17 41v91z" />
    <glyph glyph-name="germandbls" unicode="&#xdf;" horiz-adv-x="504"
d="M468 194q0 -38 -11 -74t-32.5 -64t-54 -45t-74.5 -17q-29 0 -43.5 18t-14.5 39q0 22 14.5 40t43.5 18q20 0 38 21.5t18 63.5v47q0 51 -14 72t-34 21q-23 0 -40 13.5t-17 39.5v6q0 28 17 42t40 14q21 0 30.5 16t9.5 42q0 36 -21 55.5t-56 19.5h-9q-34 0 -55.5 -21.5
t-21.5 -58.5v-504q0 -29 -18 -43.5t-40 -14.5t-40 14.5t-18 43.5v505q0 45 14.5 81t40 61t61 38.5t77.5 13.5h9q42 0 77.5 -15.5t61 -42.5t40 -63t14.5 -77q0 -10 -3.5 -24.5t-9.5 -30t-14 -29t-18 -22.5q29 -26 41 -61t12 -85v-53v0z" />
    <glyph glyph-name="agrave" unicode="&#xe0;" horiz-adv-x="468"
d="M375 561q0 -22 -15.5 -40.5t-39.5 -18.5q-13 0 -26 6l-170 81q-17 8 -25 21.5t-8 27.5q0 22 15.5 40.5t39.5 18.5q12 0 26 -6l170 -81q17 -8 25 -21.5t8 -27.5zM402 104q22 -6 32 -24t8.5 -37t-15 -34t-38.5 -15q-8 0 -16.5 1t-14.5 3q-16 5 -27.5 12.5t-19.5 15.5
q-20 -14 -45.5 -23t-51.5 -9h-9q-32 0 -62 9t-54 28.5t-38.5 49.5t-14.5 72v5q0 44 23.5 73t55.5 42q35 14 69 21.5t65 15.5q14 3 16.5 10t2.5 11q0 21 -14.5 31.5t-35.5 10.5h-6q-20 0 -32.5 -4.5t-20.5 -18.5q-13 -25 -35 -31.5t-41 1t-29.5 26t0.5 44.5q12 28 30 47
t39 30t44 16t45 5h6q33 0 63 -13t53 -35t36.5 -51.5t13.5 -62.5v-191q0 -11 2.5 -19t15.5 -12zM268 207q-21 -5 -42 -9t-37.5 -9.5t-26.5 -13.5t-10 -21v-6q0 -39 53 -39h9q23 0 38.5 15.5t15.5 38.5v44z" />
    <glyph glyph-name="aacute" unicode="&#xe1;" horiz-adv-x="468"
d="M358 638q0 -14 -7.5 -27.5t-24.5 -21.5l-160 -75q-16 -7 -26 -7q-24 0 -39.5 18.5t-15.5 40.5q0 14 7.5 27.5t24.5 21.5l160 76q8 4 14 5t12 1q24 0 39.5 -18.5t15.5 -40.5zM402 104q22 -6 32 -24t8.5 -37t-15 -34t-38.5 -15q-8 0 -16.5 1t-14.5 3q-16 5 -27.5 12.5
t-19.5 15.5q-20 -14 -45.5 -23t-51.5 -9h-9q-32 0 -62 9t-54 28.5t-38.5 49.5t-14.5 72v5q0 44 23.5 73t55.5 42q35 14 69 21.5t65 15.5q14 3 16.5 10t2.5 11q0 21 -14.5 31.5t-35.5 10.5h-6q-20 0 -32.5 -4.5t-20.5 -18.5q-13 -25 -35 -31.5t-41 1t-29.5 26t0.5 44.5
q12 28 30 47t39 30t44 16t45 5h6q33 0 63 -13t53 -35t36.5 -51.5t13.5 -62.5v-191q0 -11 2.5 -19t15.5 -12zM268 207q-21 -5 -42 -9t-37.5 -9.5t-26.5 -13.5t-10 -21v-6q0 -39 53 -39h9q23 0 38.5 15.5t15.5 38.5v44z" />
    <glyph glyph-name="acircumflex" unicode="&#xe2;" horiz-adv-x="468"
d="M385 570q0 -22 -16 -38.5t-40 -16.5q-11 0 -20 5t-17 11l-77 53l-76 -53q-8 -6 -17.5 -11t-20.5 -5q-23 0 -40 17.5t-17 39.5q0 10 5.5 20.5t15.5 18.5q-4 -2 4 3q7 5 25.5 18.5t59.5 42.5q31 22 58 22q29 0 60 -22q42 -29 61.5 -42.5t26.5 -18.5q8 -5 4 -3
q11 -8 16 -19.5t5 -21.5zM402 104q22 -6 32 -24t8.5 -37t-15 -34t-38.5 -15q-8 0 -16.5 1t-14.5 3q-16 5 -27.5 12.5t-19.5 15.5q-20 -14 -45.5 -23t-51.5 -9h-9q-32 0 -62 9t-54 28.5t-38.5 49.5t-14.5 72v5q0 44 23.5 73t55.5 42q35 14 69 21.5t65 15.5q14 3 16.5 10
t2.5 11q0 21 -14.5 31.5t-35.5 10.5h-6q-20 0 -32.5 -4.5t-20.5 -18.5q-13 -25 -35 -31.5t-41 1t-29.5 26t0.5 44.5q12 28 30 47t39 30t44 16t45 5h6q33 0 63 -13t53 -35t36.5 -51.5t13.5 -62.5v-191q0 -11 2.5 -19t15.5 -12zM268 207q-21 -5 -42 -9t-37.5 -9.5t-26.5 -13.5
t-10 -21v-6q0 -39 53 -39h9q23 0 38.5 15.5t15.5 38.5v44z" />
    <glyph glyph-name="atilde" unicode="&#xe3;" horiz-adv-x="468"
d="M392 650q0 -21 -13 -34.5t-31.5 -22t-39.5 -11.5t-36 -3t-29.5 4t-28.5 9t-27.5 9t-28.5 4q-10 0 -17 -4t-13 -9t-13 -9t-18 -4q-22 0 -35.5 15t-13.5 34t13 32q18 19 39 28.5t56 9.5q17 0 32.5 -4t30 -9t28 -9t27.5 -4q10 0 18 4t16 8.5t16 8.5t19 4q21 0 35 -14t14 -33
zM402 104q22 -6 32 -24t8.5 -37t-15 -34t-38.5 -15q-8 0 -16.5 1t-14.5 3q-16 5 -27.5 12.5t-19.5 15.5q-20 -14 -45.5 -23t-51.5 -9h-9q-32 0 -62 9t-54 28.5t-38.5 49.5t-14.5 72v5q0 44 23.5 73t55.5 42q35 14 69 21.5t65 15.5q14 3 16.5 10t2.5 11q0 21 -14.5 31.5
t-35.5 10.5h-6q-20 0 -32.5 -4.5t-20.5 -18.5q-13 -25 -35 -31.5t-41 1t-29.5 26t0.5 44.5q12 28 30 47t39 30t44 16t45 5h6q33 0 63 -13t53 -35t36.5 -51.5t13.5 -62.5v-191q0 -11 2.5 -19t15.5 -12zM268 207q-21 -5 -42 -9t-37.5 -9.5t-26.5 -13.5t-10 -21v-6
q0 -39 53 -39h9q23 0 38.5 15.5t15.5 38.5v44z" />
    <glyph glyph-name="adieresis" unicode="&#xe4;" horiz-adv-x="468"
d="M373 621q0 -29 -18 -43t-40 -14t-40 14t-18 43v20q0 28 18 42t40 14t40 -14t18 -42v-20zM180 621q0 -29 -18 -43t-40 -14t-40 14t-18 43v20q0 28 18 42t40 14t40 -14t18 -42v-20zM402 104q22 -6 32 -24t8.5 -37t-15 -34t-38.5 -15q-8 0 -16.5 1t-14.5 3q-16 5 -27.5 12.5
t-19.5 15.5q-20 -14 -45.5 -23t-51.5 -9h-9q-32 0 -62 9t-54 28.5t-38.5 49.5t-14.5 72v5q0 44 23.5 73t55.5 42q35 14 69 21.5t65 15.5q14 3 16.5 10t2.5 11q0 21 -14.5 31.5t-35.5 10.5h-6q-20 0 -32.5 -4.5t-20.5 -18.5q-13 -25 -35 -31.5t-41 1t-29.5 26t0.5 44.5
q12 28 30 47t39 30t44 16t45 5h6q33 0 63 -13t53 -35t36.5 -51.5t13.5 -62.5v-191q0 -11 2.5 -19t15.5 -12zM268 207q-21 -5 -42 -9t-37.5 -9.5t-26.5 -13.5t-10 -21v-6q0 -39 53 -39h9q23 0 38.5 15.5t15.5 38.5v44z" />
    <glyph glyph-name="aring" unicode="&#xe5;" horiz-adv-x="468"
d="M307 604q0 -19 -7 -36t-19.5 -29.5t-29.5 -20t-36 -7.5q-20 0 -36.5 7.5t-29.5 20t-20 29.5t-7 36t7 36t20 29.5t29.5 20t36.5 7.5q19 0 36 -7.5t29.5 -20t19.5 -29.5t7 -36zM402 104q22 -6 32 -24t8.5 -37t-15 -34t-38.5 -15q-8 0 -16.5 1t-14.5 3q-16 5 -27.5 12.5
t-19.5 15.5q-20 -14 -45.5 -23t-51.5 -9h-9q-32 0 -62 9t-54 28.5t-38.5 49.5t-14.5 72v5q0 44 23.5 73t55.5 42q35 14 69 21.5t65 15.5q14 3 16.5 10t2.5 11q0 21 -14.5 31.5t-35.5 10.5h-6q-20 0 -32.5 -4.5t-20.5 -18.5q-13 -25 -35 -31.5t-41 1t-29.5 26t0.5 44.5
q12 28 30 47t39 30t44 16t45 5h6q33 0 63 -13t53 -35t36.5 -51.5t13.5 -62.5v-191q0 -11 2.5 -19t15.5 -12zM237 604q0 9 -6.5 15.5t-14.5 6.5q-11 0 -17 -6.5t-6 -15.5q0 -10 6 -16.5t16 -6.5q9 0 15.5 6.5t6.5 16.5zM268 207q-21 -5 -42 -9t-37.5 -9.5t-26.5 -13.5
t-10 -21v-6q0 -39 53 -39h9q23 0 38.5 15.5t15.5 38.5v44z" />
    <glyph glyph-name="ae" unicode="&#xe6;" horiz-adv-x="641"
d="M607 247q0 -23 -16.5 -39.5t-39.5 -16.5h-174v-28q0 -23 14.5 -38.5t38.5 -15.5h8q15 0 28 6.5t21 18.5q10 15 21.5 21.5t23.5 6.5q23 0 41 -17.5t18 -40.5q0 -9 -5 -21q-21 -42 -59.5 -65.5t-88.5 -23.5h-8q-32 0 -61 11t-51 31q-20 -19 -52 -30.5t-59 -11.5h-9
q-32 0 -62 9t-54 28.5t-38.5 49.5t-14.5 72v5q0 44 23.5 73t55.5 42q35 14 69 21.5t65 15.5q14 3 16.5 10t2.5 11q0 21 -14.5 31.5t-35.5 10.5h-6q-20 0 -33 -4.5t-20 -18.5q-13 -25 -35 -31.5t-41.5 1t-29.5 26t1 44.5q12 28 30 47t39 30t44 16t45 5h6q30 0 58 -10.5
t50 -30.5q22 20 50 30.5t59 10.5h8q36 0 67 -13t54 -35.5t36.5 -53.5t13.5 -67v-72zM491 319q0 26 -15 40t-35 14h-10q-23 0 -38.5 -15.5t-15.5 -38.5v-30h114v30zM261 207q-21 -5 -42 -9t-37.5 -9.5t-26.5 -13.5t-10 -21v-6q0 -39 53 -39h9q23 0 38.5 15.5t15.5 38.5v44z
" />
    <glyph glyph-name="ccedilla" unicode="&#xe7;" horiz-adv-x="429"
d="M393 145q0 -23 -10.5 -47t-29.5 -44.5t-44.5 -36t-55.5 -20.5v-9q25 -10 41 -32.5t16 -51.5v-10q0 -38 -26 -64t-64 -26h-10q-31 0 -55 18.5t-32 46.5q-2 8 -2 12q0 17 12.5 27t27.5 10q11 0 20.5 -6.5t14.5 -21.5q3 -10 14 -10h10q14 0 14 14v10q0 14 -14 14h-5
q-15 0 -26.5 11.5t-11.5 26.5v42q-28 7 -51.5 22t-41 37t-27.5 49t-10 57v156q0 35 13.5 66t36.5 54t53.5 36t65.5 13h8q35 0 66 -14t54 -36t36 -49t13 -52q0 -28 -16.5 -42.5t-37 -15t-38.5 13t-20 41.5q-2 17 -18 28t-39 11h-8q-23 0 -38 -15.5t-15 -38.5v-156
q0 -23 15 -38.5t38 -15.5h8q23 0 39 11t18 28q2 28 20 41.5t38.5 13t37 -15t16.5 -42.5z" />
    <glyph glyph-name="egrave" unicode="&#xe8;" horiz-adv-x="433"
d="M378 561q0 -22 -15.5 -40.5t-39.5 -18.5q-13 0 -26 6l-170 81q-17 8 -25 21.5t-8 27.5q0 22 15.5 40.5t39.5 18.5q12 0 26 -6l170 -81q17 -8 25 -21.5t8 -27.5zM394 247q0 -23 -17 -39.5t-40 -16.5h-174v-28q0 -23 15 -38.5t38 -15.5h8q33 0 49 25q9 15 21.5 21.5
t24.5 6.5q23 0 40.5 -17.5t17.5 -40.5q0 -9 -5 -21q-22 -42 -60 -65.5t-88 -23.5h-8q-35 0 -65.5 13t-53.5 36t-36.5 54t-13.5 66v156q0 35 13 66t36 54t53.5 36t65.5 13h8q36 0 67 -13t54 -35.5t36.5 -53.5t13.5 -67v-72zM278 319q0 26 -15.5 40t-35.5 14h-10
q-23 0 -38.5 -15.5t-15.5 -38.5v-30h115v30z" />
    <glyph glyph-name="eacute" unicode="&#xe9;" horiz-adv-x="433"
d="M349 638q0 -14 -7.5 -27.5t-24.5 -21.5l-160 -75q-8 -3 -14 -5t-12 -2q-24 0 -39.5 18.5t-15.5 40.5q0 14 7.5 27.5t24.5 21.5l160 76q8 4 14 5t12 1q24 0 39.5 -18.5t15.5 -40.5zM394 247q0 -23 -17 -39.5t-40 -16.5h-174v-28q0 -23 15 -38.5t38 -15.5h8q33 0 49 25
q9 15 21.5 21.5t24.5 6.5q23 0 40.5 -17.5t17.5 -40.5q0 -9 -5 -21q-22 -42 -60 -65.5t-88 -23.5h-8q-35 0 -65.5 13t-53.5 36t-36.5 54t-13.5 66v156q0 35 13 66t36 54t53.5 36t65.5 13h8q36 0 67 -13t54 -35.5t36.5 -53.5t13.5 -67v-72zM278 319q0 26 -15.5 40t-35.5 14
h-10q-23 0 -38.5 -15.5t-15.5 -38.5v-30h115v30z" />
    <glyph glyph-name="ecircumflex" unicode="&#xea;" horiz-adv-x="433"
d="M389 570q0 -22 -16 -38.5t-40 -16.5q-11 0 -20 5t-17 11l-77 53l-76 -53q-8 -6 -17.5 -11t-20.5 -5q-23 0 -40 17.5t-17 39.5q0 10 5.5 20.5t15.5 18.5q-4 -2 4 3q7 5 25.5 18.5t59.5 42.5q31 22 58 22q29 0 60 -22q42 -29 61.5 -42.5t26.5 -18.5q8 -5 4 -3
q11 -8 16 -19.5t5 -21.5zM394 247q0 -23 -17 -39.5t-40 -16.5h-174v-28q0 -23 15 -38.5t38 -15.5h8q33 0 49 25q9 15 21.5 21.5t24.5 6.5q23 0 40.5 -17.5t17.5 -40.5q0 -9 -5 -21q-22 -42 -60 -65.5t-88 -23.5h-8q-35 0 -65.5 13t-53.5 36t-36.5 54t-13.5 66v156
q0 35 13 66t36 54t53.5 36t65.5 13h8q36 0 67 -13t54 -35.5t36.5 -53.5t13.5 -67v-72zM278 319q0 26 -15.5 40t-35.5 14h-10q-23 0 -38.5 -15.5t-15.5 -38.5v-30h115v30z" />
    <glyph glyph-name="edieresis" unicode="&#xeb;" horiz-adv-x="433"
d="M374 621q0 -29 -18 -43t-40 -14t-40 14t-18 43v20q0 28 18 42t40 14t40 -14t18 -42v-20zM181 621q0 -29 -18 -43t-40 -14t-40 14t-18 43v20q0 28 18 42t40 14t40 -14t18 -42v-20zM394 247q0 -23 -17 -39.5t-40 -16.5h-174v-28q0 -23 15 -38.5t38 -15.5h8q33 0 49 25
q9 15 21.5 21.5t24.5 6.5q23 0 40.5 -17.5t17.5 -40.5q0 -9 -5 -21q-22 -42 -60 -65.5t-88 -23.5h-8q-35 0 -65.5 13t-53.5 36t-36.5 54t-13.5 66v156q0 35 13 66t36 54t53.5 36t65.5 13h8q36 0 67 -13t54 -35.5t36.5 -53.5t13.5 -67v-72zM278 319q0 26 -15.5 40t-35.5 14
h-10q-23 0 -38.5 -15.5t-15.5 -38.5v-30h115v30z" />
    <glyph glyph-name="igrave" unicode="&#xec;" horiz-adv-x="285"
d="M285 561q0 -22 -15.5 -40.5t-39.5 -18.5q-13 0 -26 6l-170 81q-17 8 -25 21.5t-8 27.5q0 22 15.5 40.5t39.5 18.5q12 0 26 -6l170 -81q17 -8 25 -21.5t8 -27.5zM201 50q0 -28 -18 -42t-40 -14t-40 14t-18 42v382q0 28 18 42t40 14t40 -14t18 -42v-382z" />
    <glyph glyph-name="iacute" unicode="&#xed;" horiz-adv-x="283"
d="M278 638q0 -14 -8 -27.5t-25 -21.5l-160 -75q-16 -7 -26 -7q-24 0 -39.5 18.5t-15.5 40.5q0 14 8 27.5t25 21.5l160 76q13 6 26 6q24 0 39.5 -18.5t15.5 -40.5zM199 50q0 -28 -18 -42t-40 -14t-40 14t-18 42v382q0 28 18 42t40 14t40 -14t18 -42v-382z" />
    <glyph glyph-name="icircumflex" unicode="&#xee;" horiz-adv-x="301"
d="M321 570q0 -22 -16 -38.5t-40 -16.5q-11 0 -20 5t-17 11l-77 53l-76 -53q-8 -6 -17.5 -11t-20.5 -5q-23 0 -40 17.5t-17 39.5q0 10 5.5 20.5t15.5 18.5q-4 -2 4 3q7 5 25.5 18.5t59.5 42.5q31 22 58 22q29 0 60 -22q42 -29 61.5 -42.5t26.5 -18.5q8 -5 4 -3
q11 -8 16 -19.5t5 -21.5zM209 50q0 -28 -18 -42t-40 -14t-40 14t-18 42v382q0 28 18 42t40 14t40 -14t18 -42v-382z" />
    <glyph glyph-name="idieresis" unicode="&#xef;" horiz-adv-x="292"
d="M301 621q0 -29 -18 -43t-40 -14t-40 14t-18 43v20q0 28 18 42t40 14t40 -14t18 -42v-20zM108 621q0 -29 -18 -43t-40 -14t-40 14t-18 43v20q0 28 18 42t40 14t40 -14t18 -42v-20zM204 50q0 -28 -18 -42t-40 -14t-40 14t-18 42v382q0 28 18 42t40 14t40 -14t18 -42v-382z
" />
    <glyph glyph-name="eth" unicode="&#xf0;" horiz-adv-x="476"
d="M385 579q11 -21 17 -46t6 -55v-309q0 -36 -13.5 -68t-37.5 -55.5t-55.5 -37.5t-67.5 -14h-10q-36 0 -67.5 12.5t-55.5 35t-37.5 55t-13.5 72.5v99q0 40 13.5 72.5t37.5 54.5t55.5 34t67.5 12h10q31 0 58 -9v54q0 10 -3 22l-33 -24q-21 -15 -40.5 -9.5t-31 21t-11 36
t21.5 35.5l12 9l-53 14q-26 7 -37 24.5t-8.5 36t16.5 32.5t38 14q4 0 7.5 -0.5t8.5 -1.5l61 -13q20 -5 38 -11.5t35 -16.5l44 32q10 7 18.5 9t16.5 2q16 0 28 -10.5t17 -25t1 -30.5t-20 -28zM292 268q0 24 -17 41t-41 17h-10q-24 0 -41 -17t-17 -41v-99q0 -24 17 -42t41 -18
h10q24 0 41 18t17 42v99z" />
    <glyph glyph-name="ntilde" unicode="&#xf1;" horiz-adv-x="453"
d="M398 650q0 -21 -13 -34.5t-31.5 -22t-39.5 -11.5t-36 -3t-29.5 4t-28.5 9t-27.5 9t-28.5 4q-10 0 -17 -4t-13 -9t-13 -9t-18 -4q-22 0 -35.5 15t-13.5 34t13 32q18 19 39 28.5t56 9.5q17 0 32.5 -4t30 -9t28 -9t27.5 -4q10 0 18 4t16 8.5t16 8.5t19 4q21 0 35 -14t14 -33
zM406 50q0 -28 -18 -42t-40 -14t-40 14t-18 42v269q0 23 -15.5 38.5t-38.5 15.5h-8q-24 0 -39 -15.5t-15 -38.5v-269q0 -28 -18 -42t-40 -14t-40 14t-18 42v382q0 28 17.5 42t40.5 14q22 0 34.5 -5t23.5 -16q11 11 29.5 16t29.5 5h3q35 0 66 -12.5t54 -34.5t36.5 -52.5
t13.5 -65.5v-273z" />
    <glyph glyph-name="ograve" unicode="&#xf2;" horiz-adv-x="440"
d="M372 561q0 -22 -15.5 -40.5t-39.5 -18.5q-13 0 -26 6l-170 81q-17 8 -25 21.5t-8 27.5q0 22 15.5 40.5t39.5 18.5q12 0 26 -6l170 -81q17 -8 25 -21.5t8 -27.5zM394 163q0 -35 -13.5 -66t-36.5 -54t-54 -36t-66 -13h-8q-35 0 -66 13t-54 36t-36.5 54t-13.5 66v156
q0 35 13.5 66t36.5 54t54 36t66 13h8q35 0 66 -13t54 -36t36.5 -54t13.5 -66v-156zM278 319q0 23 -15.5 38.5t-38.5 15.5h-8q-23 0 -38.5 -15.5t-15.5 -38.5v-156q0 -23 15.5 -38.5t38.5 -15.5h8q23 0 38.5 15.5t15.5 38.5v156z" />
    <glyph glyph-name="oacute" unicode="&#xf3;" horiz-adv-x="440"
d="M343 638q0 -14 -7.5 -27.5t-24.5 -21.5l-160 -75q-16 -7 -26 -7q-24 0 -39.5 18.5t-15.5 40.5q0 14 7.5 27.5t24.5 21.5l160 76q8 4 14 5t12 1q24 0 39.5 -18.5t15.5 -40.5zM394 163q0 -35 -13.5 -66t-36.5 -54t-54 -36t-66 -13h-8q-35 0 -66 13t-54 36t-36.5 54
t-13.5 66v156q0 35 13.5 66t36.5 54t54 36t66 13h8q35 0 66 -13t54 -36t36.5 -54t13.5 -66v-156zM278 319q0 23 -15.5 38.5t-38.5 15.5h-8q-23 0 -38.5 -15.5t-15.5 -38.5v-156q0 -23 15.5 -38.5t38.5 -15.5h8q23 0 38.5 15.5t15.5 38.5v156z" />
    <glyph glyph-name="ocircumflex" unicode="&#xf4;" horiz-adv-x="440"
d="M391 570q0 -22 -16 -38.5t-40 -16.5q-11 0 -20 5t-17 11l-77 53l-76 -53q-9 -6 -18 -11t-20 -5q-23 0 -40 17.5t-17 39.5q0 10 5.5 20.5t15.5 18.5q-4 -2 4 3q7 5 25.5 18.5t59.5 42.5q31 22 58 22q28 0 60 -22q42 -29 61.5 -42.5t26.5 -18.5q8 -5 4 -3q11 -8 16 -19.5
t5 -21.5zM394 163q0 -35 -13.5 -66t-36.5 -54t-54 -36t-66 -13h-8q-35 0 -66 13t-54 36t-36.5 54t-13.5 66v156q0 35 13.5 66t36.5 54t54 36t66 13h8q35 0 66 -13t54 -36t36.5 -54t13.5 -66v-156zM278 319q0 23 -15.5 38.5t-38.5 15.5h-8q-23 0 -38.5 -15.5t-15.5 -38.5
v-156q0 -23 15.5 -38.5t38.5 -15.5h8q23 0 38.5 15.5t15.5 38.5v156z" />
    <glyph glyph-name="otilde" unicode="&#xf5;" horiz-adv-x="440"
d="M391 650q0 -21 -13 -34.5t-31.5 -22t-39.5 -11.5t-36 -3t-29.5 4t-28.5 9t-27.5 9t-28.5 4q-10 0 -17 -4t-13 -9t-13 -9t-18 -4q-22 0 -35.5 15t-13.5 34t13 32q18 19 39 28.5t56 9.5q17 0 32.5 -4t30 -9t28 -9t27.5 -4q10 0 18 4t16 8.5t16 8.5t19 4q21 0 35 -14t14 -33
zM394 163q0 -35 -13.5 -66t-36.5 -54t-54 -36t-66 -13h-8q-35 0 -66 13t-54 36t-36.5 54t-13.5 66v156q0 35 13.5 66t36.5 54t54 36t66 13h8q35 0 66 -13t54 -36t36.5 -54t13.5 -66v-156zM278 319q0 23 -15.5 38.5t-38.5 15.5h-8q-23 0 -38.5 -15.5t-15.5 -38.5v-156
q0 -23 15.5 -38.5t38.5 -15.5h8q23 0 38.5 15.5t15.5 38.5v156z" />
    <glyph glyph-name="odieresis" unicode="&#xf6;" horiz-adv-x="440"
d="M375 621q0 -29 -18 -43t-40 -14t-40 14t-18 43v20q0 28 18 42t40 14t40 -14t18 -42v-20zM182 621q0 -29 -18 -43t-40 -14t-40 14t-18 43v20q0 28 18 42t40 14t40 -14t18 -42v-20zM394 163q0 -35 -13.5 -66t-36.5 -54t-54 -36t-66 -13h-8q-35 0 -66 13t-54 36t-36.5 54
t-13.5 66v156q0 35 13.5 66t36.5 54t54 36t66 13h8q35 0 66 -13t54 -36t36.5 -54t13.5 -66v-156zM278 319q0 23 -15.5 38.5t-38.5 15.5h-8q-23 0 -38.5 -15.5t-15.5 -38.5v-156q0 -23 15.5 -38.5t38.5 -15.5h8q23 0 38.5 15.5t15.5 38.5v156z" />
    <glyph glyph-name="divide" unicode="&#xf7;" horiz-adv-x="462"
d="M293 500q0 -26 -18 -39.5t-40 -13.5t-40 13.5t-18 39.5v24q0 26 18 39.5t40 13.5t40 -13.5t18 -39.5v-24zM426 330q0 -22 -14.5 -40t-43.5 -18h-274q-29 0 -43.5 18t-14.5 40q0 21 14.5 39t43.5 18h274q29 0 43.5 -18t14.5 -39zM293 136q0 -26 -18 -39.5t-40 -13.5
t-40 13.5t-18 39.5v24q0 26 18 39.5t40 13.5t40 -13.5t18 -39.5v-24z" />
    <glyph glyph-name="oslash" unicode="&#xf8;" horiz-adv-x="457"
d="M411 460q0 -14 -8 -26l-21 -33q21 -36 21 -82v-156q0 -35 -13.5 -66t-36.5 -54t-53.5 -36t-65.5 -13h-8q-44 0 -81 20l-9 -15q-8 -13 -18.5 -18.5t-21.5 -5.5q-15 0 -26 7q-11 6 -17.5 17t-6.5 24q0 12 8 26l21 35q-19 38 -19 79v156q0 35 13.5 66t36.5 54t54 36t66 13h8
q41 0 77 -19l10 15q16 23 39 23q16 0 27 -7q11 -6 17.5 -16.5t6.5 -23.5zM251 371q-5 1 -8.5 1.5t-8.5 0.5h-8q-24 0 -39 -15.5t-15 -38.5v-77zM288 247l-83 -134q9 -4 21 -4h8q23 0 38.5 15.5t15.5 38.5v84z" />
    <glyph glyph-name="ugrave" unicode="&#xf9;" horiz-adv-x="449"
d="M374 561q0 -22 -15.5 -40.5t-39.5 -18.5q-13 0 -26 6l-170 81q-17 8 -25 21.5t-8 27.5q0 22 15.5 40.5t39.5 18.5q12 0 26 -6l170 -81q17 -8 25 -21.5t8 -27.5zM395 50q0 -28 -18 -42t-40 -14q-23 0 -35 5t-23 16q-12 -11 -30 -16t-29 -5h-3q-82 0 -126 43t-44 122v273
q0 28 18 42t40 14t40 -14t18 -42v-269q0 -23 15 -38.5t39 -15.5h8q23 0 38.5 15.5t15.5 38.5v269q0 28 18 42t40 14t40 -14t18 -42v-382z" />
    <glyph glyph-name="uacute" unicode="&#xfa;" horiz-adv-x="449"
d="M353 638q0 -14 -7.5 -27.5t-24.5 -21.5l-160 -75q-8 -3 -14 -5t-12 -2q-24 0 -39.5 18.5t-15.5 40.5q0 14 7.5 27.5t24.5 21.5l160 76q8 4 14 5t12 1q24 0 39.5 -18.5t15.5 -40.5zM395 50q0 -28 -18 -42t-40 -14q-23 0 -35 5t-23 16q-12 -11 -30 -16t-29 -5h-3
q-82 0 -126 43t-44 122v273q0 28 18 42t40 14t40 -14t18 -42v-269q0 -23 15 -38.5t39 -15.5h8q23 0 38.5 15.5t15.5 38.5v269q0 28 18 42t40 14t40 -14t18 -42v-382z" />
    <glyph glyph-name="ucircumflex" unicode="&#xfb;" horiz-adv-x="449"
d="M391 570q0 -22 -16 -38.5t-40 -16.5q-11 0 -20 5t-17 11l-77 53l-76 -53q-8 -6 -17.5 -11t-20.5 -5q-23 0 -40 17.5t-17 39.5q0 10 5.5 20.5t15.5 18.5q-4 -2 4 3q7 5 25.5 18.5t59.5 42.5q31 22 58 22q29 0 60 -22q42 -29 61.5 -42.5t26.5 -18.5q8 -5 4 -3
q11 -8 16 -19.5t5 -21.5zM395 50q0 -28 -18 -42t-40 -14q-23 0 -35 5t-23 16q-12 -11 -30 -16t-29 -5h-3q-82 0 -126 43t-44 122v273q0 28 18 42t40 14t40 -14t18 -42v-269q0 -23 15 -38.5t39 -15.5h8q23 0 38.5 15.5t15.5 38.5v269q0 28 18 42t40 14t40 -14t18 -42v-382z
" />
    <glyph glyph-name="udieresis" unicode="&#xfc;" horiz-adv-x="449"
d="M376 621q0 -29 -18 -43t-40 -14t-40 14t-18 43v20q0 28 18 42t40 14t40 -14t18 -42v-20zM183 621q0 -29 -18 -43t-40 -14t-40 14t-18 43v20q0 28 18 42t40 14t40 -14t18 -42v-20zM395 50q0 -28 -18 -42t-40 -14q-23 0 -35 5t-23 16q-12 -11 -30 -16t-29 -5h-3
q-82 0 -126 43t-44 122v273q0 28 18 42t40 14t40 -14t18 -42v-269q0 -23 15 -38.5t39 -15.5h8q23 0 38.5 15.5t15.5 38.5v269q0 28 18 42t40 14t40 -14t18 -42v-382z" />
    <glyph glyph-name="yacute" unicode="&#xfd;" horiz-adv-x="424"
d="M356 638q0 -14 -7.5 -27.5t-24.5 -21.5l-160 -75q-16 -7 -26 -7q-24 0 -39.5 18.5t-15.5 40.5q0 14 7.5 27.5t24.5 21.5l160 76q8 4 14 5t12 1q24 0 39.5 -18.5t15.5 -40.5zM399 434q0 -10 -3 -20l-174 -543q-10 -31 -26.5 -48.5t-36 -26t-39.5 -10.5t-36 -2
q-32 0 -45.5 19t-13.5 39q0 21 13.5 39t45.5 18q10 0 21.5 5t19.5 28l43 132l-125 349q-3 10 -3 21q0 24 18 39t40 15q16 0 30.5 -9t21.5 -29l73 -208l66 206q7 21 21 30.5t30 9.5q23 0 41 -14.5t18 -39.5z" />
    <glyph glyph-name="thorn" unicode="&#xfe;" horiz-adv-x="467"
d="M428 168q0 -36 -14.5 -67.5t-38.5 -55.5t-56 -37.5t-68 -13.5h-3q-16 0 -35 5.5t-32 16.5v-174q0 -29 -18 -43.5t-40 -14.5t-40 14.5t-18 43.5v797q0 29 18 43.5t40 14.5t40 -14.5t18 -43.5v-173q13 9 28.5 15.5t38.5 6.5h3q36 0 68 -13.5t56 -37t38.5 -55t14.5 -67.5
v-147zM313 315q0 24 -19 41t-43 17h-8q-24 0 -43 -17t-19 -41v-147q0 -24 19 -41.5t43 -17.5h8q24 0 43 17.5t19 41.5v147z" />
    <glyph glyph-name="ydieresis" unicode="&#xff;" horiz-adv-x="424"
d="M375 621q0 -29 -18 -43t-40 -14t-40 14t-18 43v20q0 28 18 42t40 14t40 -14t18 -42v-20zM182 621q0 -29 -18 -43t-40 -14t-40 14t-18 43v20q0 28 18 42t40 14t40 -14t18 -42v-20zM399 434q0 -10 -3 -20l-174 -543q-10 -31 -26.5 -48.5t-36 -26t-39.5 -10.5t-36 -2
q-32 0 -45.5 19t-13.5 39q0 21 13.5 39t45.5 18q10 0 21.5 5t19.5 28l43 132l-125 349q-3 10 -3 21q0 24 18 39t40 15q16 0 30.5 -9t21.5 -29l73 -208l66 206q7 21 21 30.5t30 9.5q23 0 41 -14.5t18 -39.5z" />
    <glyph glyph-name="dotlessi" unicode="&#x131;" horiz-adv-x="238"
d="M177 50q0 -28 -18 -42t-40 -14t-40 14t-18 42v382q0 28 18 42t40 14t40 -14t18 -42v-382v0z" />
    <glyph glyph-name="Lslash" unicode="&#x141;" horiz-adv-x="497"
d="M497 58q0 -22 -14.5 -40t-43.5 -18h-256q-23 0 -40 17.5t-17 40.5v161l-6 -4q-18 -10 -33 -10q-24 0 -39.5 17t-15.5 39q0 28 30 48l64 39v291q0 29 18 43.5t40 14.5q21 0 39 -14.5t18 -43.5v-223l106 63q16 9 31 9q24 0 39.5 -17.5t15.5 -39.5q0 -13 -7 -26t-23 -22
l-162 -96v-172h198q29 0 43.5 -18t14.5 -39z" />
    <glyph glyph-name="lslash" unicode="&#x142;" horiz-adv-x="431"
d="M402 457q0 -13 -6.5 -25.5t-20.5 -21.5l-105 -65v-293q0 -29 -18 -43.5t-40 -14.5t-40 14.5t-18 43.5v221l-37 -24q-16 -10 -31 -10q-23 0 -40 19t-17 42q0 13 6.5 25.5t22.5 22.5l96 60v231q0 29 18 43.5t40 14.5t40 -14.5t18 -43.5v-159l43 26q16 10 33 10q24 0 40 -18
t16 -41z" />
    <glyph glyph-name="OE" unicode="&#x152;" horiz-adv-x="779"
d="M757 57q0 -21 -14.5 -39t-43.5 -18h-294q-14 0 -27 5.5t-19 18.5q-13 -14 -41.5 -22t-54.5 -8h-9q-41 0 -77.5 15t-63.5 41.5t-43 62.5t-16 77v311q0 42 16 77.5t43 62t63.5 41.5t77.5 15h9q26 0 52 -7t45 -23q7 14 19 19t26 5h294q29 0 43.5 -18t14.5 -39
q0 -22 -14.5 -40t-43.5 -18h-236v-163h157q29 0 43.5 -18t14.5 -40q0 -21 -14.5 -39t-43.5 -18h-157v-183h236q29 0 43.5 -18t14.5 -40zM347 501q0 35 -24.5 58t-59.5 23h-9q-35 0 -59.5 -23t-24.5 -58v-310q0 -35 24.5 -58.5t59.5 -23.5h9q35 0 59.5 23t24.5 58v311z" />
    <glyph glyph-name="oe" unicode="&#x153;" horiz-adv-x="654"
d="M619 247q0 -23 -16.5 -40t-39.5 -17h-174v-27q0 -23 14.5 -38.5t38.5 -15.5h8q15 0 28 6.5t21 18.5q10 15 21.5 21.5t23.5 6.5q23 0 41 -17.5t18 -40.5q0 -9 -5 -21q-21 -42 -59.5 -65.5t-88.5 -23.5h-8q-32 0 -60.5 11t-51.5 31q-23 -20 -51 -31t-60 -11h-8
q-35 0 -66 13t-54 36t-36.5 54t-13.5 66v156q0 35 13.5 66t36.5 54t54 36t66 13h8q32 0 60.5 -11t50.5 -30q23 19 50.5 30t59.5 11h8q36 0 67 -13t54 -35.5t36.5 -53.5t13.5 -67v-72zM503 318q0 26 -15 40t-35 14h-10q-23 0 -38.5 -15.5t-15.5 -38.5v-31h114v31zM273 319
q0 23 -15.5 38.5t-38.5 15.5h-8q-23 0 -38.5 -15.5t-15.5 -38.5v-156q0 -23 15.5 -38.5t38.5 -15.5h8q23 0 38.5 15.5t15.5 38.5v156z" />
    <glyph glyph-name="Scaron" unicode="&#x160;" horiz-adv-x="486"
d="M414 839q0 -10 -6 -20.5t-16 -18.5l-4 -3q-7 -5 -25 -18.5t-59 -42.5q-31 -22 -58 -22q-29 0 -60 22q-43 29 -62 42.5t-26 18.5q-8 5 -4 3q-11 8 -16.5 19.5t-5.5 21.5q0 22 16 38.5t40 16.5q11 0 20 -5t17 -11l77 -53l76 53q9 6 18 11t20 5q23 0 40.5 -17.5t17.5 -39.5z
M450 185q0 -43 -15.5 -78t-43 -60t-65 -39t-80.5 -14h-9q-41 0 -77 13.5t-64 39.5t-44 63t-16 84q0 29 18 43.5t40 14.5t40 -14.5t18 -43.5q0 -41 23.5 -63t61.5 -22h9q38 0 63 19t25 57q0 31 -21.5 54.5t-54 43.5t-70 40t-70 45.5t-54 58t-21.5 78.5v21q0 40 18 72t46.5 54
t62.5 33.5t67 11.5h9q39 0 74 -11.5t62 -32.5t43 -50.5t16 -65.5q0 -28 -18 -42t-39.5 -14.5t-39.5 13t-18 40.5q0 20 -22 34t-58 14h-9q-33 0 -55.5 -16.5t-22.5 -45.5v-15q0 -20 21.5 -37t54 -35.5t70 -40t70 -50.5t54 -67.5t21.5 -89.5z" />
    <glyph glyph-name="scaron" unicode="&#x161;" horiz-adv-x="427"
d="M384 640q0 -10 -5.5 -20.5t-15.5 -18.5q4 2 -4 -3q-7 -5 -25.5 -18.5t-59.5 -42.5q-31 -22 -58 -22q-29 0 -60 22q-43 29 -62 42.5t-26 18.5q-8 5 -4 3q-11 8 -16 19.5t-5 21.5q0 22 16 38.5t40 16.5q11 0 20 -5t17 -11l77 -53l76 53q8 6 17.5 11t20.5 5q23 0 40 -17.5
t17 -39.5zM395 151q0 -44 -17.5 -74t-43.5 -48.5t-57.5 -26.5t-58.5 -8h-16q-49 0 -95 27.5t-68 75.5q-12 25 -3 45t28 28.5t41 3.5t37 -29q8 -14 25.5 -25t34.5 -11h16q35 0 48 13t13 29q0 20 -9.5 27t-24.5 11q-23 5 -47.5 11.5t-45.5 11.5q-46 12 -78 43.5t-32 91.5
q0 11 3 23q7 33 26 55.5t43.5 36.5t52 20t52.5 6h3q48 0 79.5 -14.5t53.5 -33.5q21 -19 20 -41.5t-15.5 -38t-36.5 -19.5t-43 14q-12 11 -26 14.5t-31 3.5h-4q-29 0 -45.5 -7t-16.5 -18v-7q0 -16 17.5 -23t44 -12.5t57.5 -12.5t57.5 -23t44 -44t17.5 -75z" />
    <glyph glyph-name="Ydieresis" unicode="&#x178;" horiz-adv-x="475"
d="M392 820q0 -28 -18 -42t-40 -14t-40 14t-18 42v20q0 29 18 43t40 14t40 -14t18 -43v-20zM199 820q0 -28 -18 -42t-40 -14t-40 14t-18 42v20q0 29 18 43t40 14t40 -14t18 -43v-20zM446 641q0 -11 -5 -24l-145 -350v-215q0 -29 -18.5 -43.5t-39.5 -14.5q-22 0 -40 14.5
t-18 43.5v215l-146 350q-5 13 -5 24q0 25 18.5 40.5t41.5 15.5q16 0 30 -8t22 -28l97 -231l96 231q8 20 22 28t30 8q23 0 41.5 -15.5t18.5 -40.5z" />
    <glyph glyph-name="Zcaron" unicode="&#x17d;" horiz-adv-x="459"
d="M400 839q0 -10 -5.5 -20.5t-15.5 -18.5q4 2 -4 -3q-7 -5 -25.5 -18.5t-59.5 -42.5q-31 -22 -58 -22q-29 0 -60 22q-43 29 -62 42.5t-26 18.5q-8 5 -4 3q-11 8 -16 19.5t-5 21.5q0 22 16 38.5t40 16.5q11 0 20 -5t17 -11l77 -53l76 53q8 6 17.5 11t20.5 5q23 0 40 -17.5
t17 -39.5zM430 58q0 -22 -14.5 -40t-43.5 -18h-284q-28 0 -43.5 19.5t-15.5 50.5q0 8 1.5 16.5t6.5 16.5l258 473h-196q-29 0 -43.5 18t-14.5 40q0 21 14.5 39t43.5 18h272q28 0 43.5 -20t15.5 -46q0 -20 -8 -36l-246 -474h197q29 0 43 -18t14 -39z" />
    <glyph glyph-name="zcaron" unicode="&#x17e;" horiz-adv-x="411"
d="M376 640q0 -10 -5.5 -20.5t-15.5 -18.5q4 2 -4 -3q-7 -5 -25.5 -18.5t-59.5 -42.5q-31 -22 -58 -22q-29 0 -60 22q-43 29 -62 42.5t-26 18.5q-8 5 -4 3q-11 8 -16 19.5t-5 21.5q0 22 16 38.5t40 16.5q11 0 20 -5t17 -11l77 -53l76 53q8 6 17.5 11t20.5 5q23 0 40 -17.5
t17 -39.5zM382 58q0 -22 -14 -40t-42 -18h-238q-23 0 -41 17t-18 40t4.5 34.5t14.5 24.5l187 251h-141q-28 0 -42 18t-14 40q0 21 14 39t42 18h229q23 0 40 -17t17 -41q0 -20 -3 -29t-9 -18l-185 -262h143q28 0 42 -18t14 -39z" />
    <glyph glyph-name="florin" unicode="&#x192;" horiz-adv-x="403"
d="M392 640q0 -22 -14.5 -40t-43.5 -18q-23 0 -32.5 -10.5t-14.5 -33.5l-9 -50h13q29 0 43.5 -18t14.5 -39q0 -22 -14.5 -40t-43.5 -18h-34l-59 -336q-12 -72 -54 -105.5t-108 -33.5q-29 0 -43.5 18.5t-14.5 39.5t14.5 39.5t43.5 18.5q21 0 32 11t15 32l56 316h-2
q-26 0 -38 19.5t-12 38.5q0 21 15 39t44 18h13l13 70q12 65 49 102t113 37q29 0 43.5 -18t14.5 -39z" />
    <glyph glyph-name="circumflex" unicode="&#x2c6;" horiz-adv-x="427"
d="M384 570q0 -22 -16 -38.5t-40 -16.5q-11 0 -20 5t-17 11l-77 53l-76 -53q-8 -6 -17.5 -11t-20.5 -5q-23 0 -40 17.5t-17 39.5q0 10 5.5 20.5t15.5 18.5q-4 -2 4 3q7 5 25.5 18.5t59.5 42.5q31 22 58 22q29 0 60 -22q42 -29 61.5 -42.5t26.5 -18.5q8 -5 4 -3
q11 -8 16 -19.5t5 -21.5z" />
    <glyph glyph-name="caron" unicode="&#x2c7;" horiz-adv-x="417"
d="M361 645q0 -21 -20 -35l-84 -59q-20 -14 -46 -14t-46 14l-88 59q-11 8 -16 17.5t-5 18.5q0 20 15 35.5t36 15.5q13 0 28 -10l76 -51l68 51q14 10 29 10q21 0 37 -16t16 -36z" />
    <glyph glyph-name="breve" unicode="&#x2d8;" horiz-adv-x="407"
d="M338 639q0 -31 -10.5 -55t-28.5 -41t-42 -26t-51 -9h-5q-27 0 -51 9t-42 26t-28.5 41.5t-10.5 54.5q0 29 18.5 43.5t39.5 14.5q20 0 39 -14.5t19 -43.5q0 -16 16 -16h5q8 0 13 5t5 11q0 29 18 43.5t38 14.5q21 0 39.5 -14.5t18.5 -43.5z" />
    <glyph glyph-name="dotaccent" unicode="&#x2d9;" horiz-adv-x="364"
d="M240 677q0 -26 -18 -39.5t-40 -13.5q-21 0 -39 13.5t-18 39.5v24q0 26 18 39.5t39 13.5q22 0 40 -13.5t18 -39.5v-24v0z" />
    <glyph glyph-name="ring" unicode="&#x2da;" horiz-adv-x="365"
d="M275 595q0 -19 -7 -36t-19.5 -29.5t-29.5 -20t-36 -7.5q-20 0 -36.5 7.5t-29.5 20t-20 29.5t-7 36t7 36t20 29.5t29.5 20t36.5 7.5q19 0 36 -7.5t29.5 -20t19.5 -29.5t7 -36zM205 595q0 9 -6.5 15t-15.5 6q-10 0 -16.5 -6t-6.5 -15q0 -10 6.5 -16.5t16.5 -6.5
q9 0 15.5 6.5t6.5 16.5z" />
    <glyph glyph-name="ogonek" unicode="&#x2db;" horiz-adv-x="388"
d="M291 -124q-11 -27 -37.5 -43.5t-56.5 -16.5h-8q-40 0 -67.5 27.5t-27.5 67.5v10q0 27 14 47t34.5 34t44.5 22.5t45 11.5t34 -8t15.5 -26.5t-6 -30.5t-29.5 -18q-5 -1 -15.5 -4t-21 -7.5t-19.5 -10t-11 -11.5t2.5 -14t15.5 -6q6 1 15.5 9t11.5 10q9 14 23.5 16.5t27 -4
t18.5 -21t-2 -34.5z" />
    <glyph glyph-name="tilde" unicode="&#x2dc;" horiz-adv-x="428"
d="M386 650q0 -21 -13 -34.5t-31.5 -22t-39.5 -11.5t-36 -3t-29.5 4t-28.5 9t-27.5 9t-28.5 4q-10 0 -17 -4t-13 -9t-13 -9t-18 -4q-22 0 -35.5 15t-13.5 34t13 32q18 19 39 28.5t56 9.5q17 0 32.5 -4t30 -9t28 -9t27.5 -4q10 0 18 4t16 8.5t16 8.5t19 4q21 0 35 -14t14 -33
z" />
    <glyph glyph-name="hungarumlaut" unicode="&#x2dd;" horiz-adv-x="435"
d="M402 639q0 -30 -4 -52t-12.5 -37.5t-22.5 -27.5t-35 -23q-10 -5 -23 -8t-27 -3q-20 0 -36 8t-21 28q-2 5 -2 9.5v9.5q0 20 9.5 31t28.5 19q5 2 17 12.5t12 33.5q0 29 18.5 43.5t39.5 14.5q22 0 40 -14.5t18 -43.5zM216 639q0 -30 -4 -52t-12.5 -37.5t-22.5 -27.5t-34 -23
q-22 -11 -51 -11q-20 0 -36 8t-21 28q-1 5 -1.5 9.5t-0.5 9.5q0 20 9.5 31t28.5 19q5 2 17 12.5t12 33.5q0 29 18.5 43.5t40.5 14.5q21 0 39 -14.5t18 -43.5z" />
    <glyph glyph-name="Delta" unicode="&#x394;" horiz-adv-x="674"
d="M659 63q0 -23 -13 -43t-39 -20h-540q-26 0 -39.5 20t-13.5 43q0 16 7 29l260 531q7 14 22.5 22.5t32.5 8.5q20 0 35 -8.5t22 -22.5l260 -531q6 -14 6 -29zM337 504l-197 -403h394z" />
    <glyph glyph-name="Delta" unicode="&#x2206;" horiz-adv-x="674"
d="M659 63q0 -23 -13 -43t-39 -20h-540q-26 0 -39.5 20t-13.5 43q0 16 7 29l260 531q7 14 22.5 22.5t32.5 8.5q20 0 35 -8.5t22 -22.5l260 -531q6 -14 6 -29zM337 504l-197 -403h394z" />
    <glyph glyph-name="Omega" unicode="&#x3a9;" horiz-adv-x="700"
d="M667 57q0 -21 -14.5 -39t-43.5 -18h-177q-23 0 -40.5 17.5t-17.5 40.5v92q0 15 3.5 24.5t9.5 16t13 11.5t15 10q28 18 52.5 33.5t42 35t27.5 45.5t10 64q0 43 -15 78t-41 60.5t-62 39.5t-79 14t-79 -14t-62.5 -39.5t-41 -60.5t-14.5 -78q0 -38 10 -64t28 -45.5t42 -35
t52 -33.5q16 -10 28.5 -21.5t12.5 -40.5v-92q0 -23 -18 -40.5t-41 -17.5h-176q-29 0 -44 18t-15 39q0 22 15 40t44 18h118v16q-77 40 -124.5 103t-47.5 156q0 67 24 123.5t66 97t99 63.5t124 23t124 -23t99 -63.5t65.5 -97t23.5 -123.5q0 -93 -47.5 -156t-124.5 -103v-16
h119q29 0 43.5 -18t14.5 -40z" />
    <glyph glyph-name="Omega" unicode="&#x2126;" horiz-adv-x="700"
d="M667 57q0 -21 -14.5 -39t-43.5 -18h-177q-23 0 -40.5 17.5t-17.5 40.5v92q0 15 3.5 24.5t9.5 16t13 11.5t15 10q28 18 52.5 33.5t42 35t27.5 45.5t10 64q0 43 -15 78t-41 60.5t-62 39.5t-79 14t-79 -14t-62.5 -39.5t-41 -60.5t-14.5 -78q0 -38 10 -64t28 -45.5t42 -35
t52 -33.5q16 -10 28.5 -21.5t12.5 -40.5v-92q0 -23 -18 -40.5t-41 -17.5h-176q-29 0 -44 18t-15 39q0 22 15 40t44 18h118v16q-77 40 -124.5 103t-47.5 156q0 67 24 123.5t66 97t99 63.5t124 23t124 -23t99 -63.5t65.5 -97t23.5 -123.5q0 -93 -47.5 -156t-124.5 -103v-16
h119q29 0 43.5 -18t14.5 -40z" />
    <glyph glyph-name="pi" unicode="&#x3c0;" horiz-adv-x="553"
d="M532 425q0 -22 -15.5 -40t-44.5 -18h-44v-219q0 -15 3.5 -23t9 -12t11 -4.5t8.5 -1.5q48 -9 48 -56q0 -25 -17.5 -41t-58.5 -16q-34 0 -57 11.5t-37 30.5t-20 43t-6 49v239h-70v-313q0 -30 -18.5 -45t-39.5 -15q-22 0 -40 15t-18 45v313h-44q-29 0 -44.5 18t-15.5 40
q0 21 15 39t45 18h390q30 0 45 -18t15 -39z" />
    <glyph glyph-name="endash" unicode="&#x2013;" horiz-adv-x="485"
d="M452 329q0 -21 -15.5 -39t-46.5 -18h-296q-31 0 -46.5 18t-15.5 40q0 21 15.5 39t46.5 18h296q31 0 46.5 -18t15.5 -40z" />
    <glyph glyph-name="emdash" unicode="&#x2014;" horiz-adv-x="598"
d="M583 329q0 -21 -15 -39t-47 -18h-445q-31 0 -46.5 18t-15.5 40q0 21 15.5 39t46.5 18h445q32 0 47 -18t15 -40z" />
    <glyph glyph-name="quoteleft" unicode="&#x2018;" horiz-adv-x="174"
d="M159 644q0 -15 -11 -32q-6 -11 -10 -17t-6.5 -11.5t-3 -13t-0.5 -21.5v-33q0 -29 -19.5 -42.5t-39.5 -13.5t-37.5 14t-17.5 42v29q0 22 2 36.5t5.5 26.5t10 24t15.5 30q10 18 24.5 26.5t30.5 8.5q21 0 39 -14t18 -39z" />
    <glyph glyph-name="quoteright" unicode="&#x2019;" horiz-adv-x="174"
d="M159 612q0 -22 -2 -36t-6 -26t-10.5 -24.5t-15.5 -30.5t-23.5 -26.5t-30.5 -8.5q-21 0 -39 14.5t-18 38.5q0 16 10 33q7 11 11 16.5t6 11t3 13t1 21.5v34q0 28 19 41.5t39 13.5q21 0 38.5 -14t17.5 -42v-29v0z" />
    <glyph glyph-name="quotesinglbase" unicode="&#x201a;" horiz-adv-x="231"
d="M188 19q0 -22 -2 -36.5t-6 -26.5t-10.5 -24t-15.5 -30t-23.5 -26.5t-30.5 -8.5q-21 0 -39 14t-18 39q0 13 10 33q6 11 10.5 17t6.5 11t3 12.5t1 21.5v34q0 28 19 41.5t39 13.5q21 0 38.5 -14t17.5 -42v-29v0z" />
    <glyph glyph-name="quotedblleft" unicode="&#x201c;" horiz-adv-x="326"
d="M308 644q0 -16 -10 -32q-7 -11 -11 -17t-6.5 -11.5t-3 -13t-0.5 -21.5v-33q0 -29 -19 -42.5t-39 -13.5q-21 0 -38.5 14t-17.5 42v29q0 22 2 36.5t6 26.5t10.5 24t15.5 30t23.5 26.5t30.5 8.5q21 0 39 -14t18 -39zM163 644q0 -15 -11 -32q-6 -11 -10 -17t-6.5 -11.5
t-3 -13t-0.5 -21.5v-33q0 -29 -19.5 -42.5t-39.5 -13.5t-37.5 14t-17.5 42v29q0 22 2 36.5t5.5 26.5t10 24t15.5 30q10 18 24.5 26.5t30.5 8.5q21 0 39 -14t18 -39z" />
    <glyph glyph-name="quotedblright" unicode="&#x201d;" horiz-adv-x="331"
d="M313 612q0 -22 -1.5 -36t-5.5 -26t-10.5 -24.5t-15.5 -30.5t-24 -26.5t-31 -8.5q-21 0 -39 14.5t-18 38.5q0 16 10 33q7 11 11 16.5t6 11t3 13t1 21.5v34q0 28 19 41.5t39 13.5q21 0 38.5 -14t17.5 -42v-29zM163 612q0 -22 -2 -36t-6 -26t-10.5 -24.5t-15.5 -30.5
t-23.5 -26.5t-30.5 -8.5q-21 0 -39 14.5t-18 38.5q0 16 10 33q7 11 11 16.5t6 11t3 13t1 21.5v34q0 28 19 41.5t39 13.5q21 0 38.5 -14t17.5 -42v-29z" />
    <glyph glyph-name="quotedblbase" unicode="&#x201e;" horiz-adv-x="392"
d="M349 19q0 -22 -2 -36t-5.5 -26t-10 -24.5t-15.5 -30.5t-24 -26.5t-30 -8.5q-22 0 -40 14.5t-18 38.5q0 14 11 33q6 11 10 16.5t6.5 11t3 13t0.5 21.5v34q0 28 19.5 41.5t39.5 13.5t37.5 -14t17.5 -42v-29zM188 19q0 -22 -2 -36t-6 -26t-10.5 -24.5t-15.5 -30.5
t-23.5 -26.5t-30.5 -8.5q-21 0 -39 14.5t-18 38.5q0 16 10 33q7 11 11 16.5t6 11t3 13t1 21.5v34q0 28 19 41.5t39 13.5q21 0 38.5 -14t17.5 -42v-29z" />
    <glyph glyph-name="dagger" unicode="&#x2020;" horiz-adv-x="485"
d="M449 456q0 -21 -14 -39t-43 -18h-92v-347q0 -29 -18 -43.5t-40 -14.5t-40 14.5t-18 43.5v347h-92q-28 0 -42 18t-14 39q0 22 14 39.5t42 17.5h92v126q0 29 18 43.5t40 14.5t40 -14.5t18 -43.5v-126h92q29 0 43 -17.5t14 -39.5z" />
    <glyph glyph-name="daggerdbl" unicode="&#x2021;" horiz-adv-x="465"
d="M429 219q0 -22 -14 -39.5t-43 -17.5h-82v-110q0 -29 -18 -43.5t-40 -14.5t-40 14.5t-18 43.5v110h-82q-28 0 -42 17.5t-14 39.5q0 21 14 39t42 18h82v148h-82q-28 0 -42 18t-14 39q0 22 14 39.5t42 17.5h82v101q0 29 18 43.5t40 14.5t40 -14.5t18 -43.5v-101h82
q29 0 43 -17.5t14 -39.5q0 -21 -14 -39t-43 -18h-82v-148h82q29 0 43 -18t14 -39z" />
    <glyph glyph-name="bullet" unicode="&#x2022;" horiz-adv-x="302"
d="M255 331q0 -22 -8 -41t-22 -33.5t-33 -22.5t-41 -8q-21 0 -40 8t-33.5 22.5t-22.5 33.5t-8 41q0 21 8 40t22.5 33.5t33.5 22.5t40 8q22 0 41 -8t33 -22.5t22 -33.5t8 -40z" />
    <glyph glyph-name="ellipsis" unicode="&#x2026;" horiz-adv-x="523"
d="M501 47q0 -26 -18 -39.5t-40 -13.5t-40 13.5t-18 39.5v24q0 26 18 39.5t40 13.5t40 -13.5t18 -39.5v-24zM317 47q0 -26 -18 -39.5t-40 -13.5t-40 13.5t-18 39.5v24q0 26 18 39.5t40 13.5t40 -13.5t18 -39.5v-24zM134 47q0 -26 -18 -39.5t-40 -13.5t-40 13.5t-18 39.5v24
q0 26 18 39.5t40 13.5t40 -13.5t18 -39.5v-24z" />
    <glyph glyph-name="perthousand" unicode="&#x2030;" horiz-adv-x="1034"
d="M997 116q0 -25 -10 -47.5t-27 -39t-40.5 -26t-51.5 -9.5q-27 0 -50.5 9.5t-41 26t-27 39t-9.5 47.5v132q0 25 9.5 47.5t27 39t41 26t50.5 9.5q28 0 51.5 -9.5t40.5 -26t27 -39t10 -47.5v-132zM708 116q0 -25 -10 -47.5t-27 -39t-40.5 -26t-51.5 -9.5q-27 0 -50.5 9.5
t-41 26t-27 39t-9.5 47.5v132q0 25 9.5 47.5t27 39t41 26t50.5 9.5q28 0 51.5 -9.5t40.5 -26t27 -39t10 -47.5v-132zM552 641q0 -11 -5 -24l-243 -587q-8 -20 -22 -28.5t-29 -8.5q-23 0 -42 15.5t-19 41.5q0 13 5 24l243 587q8 20 22 28t30 8q23 0 41.5 -15.5t18.5 -40.5z
M293 443q0 -25 -9.5 -47.5t-27 -39t-41 -26t-50.5 -9.5q-28 0 -51.5 9.5t-41 26t-27 39t-9.5 47.5v130q0 26 9.5 48.5t27 39.5t41 26.5t51.5 9.5q27 0 50.5 -9.5t41 -26.5t27 -39.5t9.5 -48.5v-130zM897 243q0 15 -9.5 23t-19.5 8t-19 -8.5t-9 -22.5v-122q0 -14 9 -22.5
t19 -8.5t19.5 8t9.5 23v122zM608 243q0 15 -9.5 23t-19.5 8t-19 -8.5t-9 -22.5v-122q0 -14 9 -22.5t19 -8.5t19.5 8t9.5 23v122zM193 570q0 14 -8.5 22.5t-19.5 8.5q-10 0 -19.5 -8t-9.5 -23v-122q0 -16 9.5 -23.5t19.5 -7.5q11 0 19.5 8t8.5 23v122z" />
    <glyph glyph-name="guilsinglleft" unicode="&#x2039;" horiz-adv-x="331"
d="M277 107q0 -11 -3 -22t-13 -22q-17 -18 -40 -18q-13 0 -23.5 6.5t-18.5 14.5l-125 138q-11 12 -15.5 26t-4.5 24t4.5 24t15.5 26l125 138q8 8 18.5 14.5t23.5 6.5q26 0 41 -18t15 -44q0 -14 -6 -25.5t-14 -19.5l-93 -102l93 -102q7 -8 13.5 -19.5t6.5 -25.5z" />
    <glyph glyph-name="guilsinglright" unicode="&#x203a;" horiz-adv-x="331"
d="M297 254q0 -10 -4.5 -24.5t-15.5 -25.5l-126 -138q-7 -8 -17 -14.5t-24 -6.5q-11 0 -21.5 3.5t-19.5 14.5q-10 11 -12.5 22t-2.5 22q0 14 5.5 25.5t13.5 19.5l93 102l-93 102q-8 8 -13.5 19.5t-5.5 25.5q0 26 15 44t41 18q14 0 24 -6.5t17 -14.5l126 -138
q11 -11 15.5 -25.5t4.5 -24.5z" />
    <glyph glyph-name="fraction" unicode="&#x2044;" horiz-adv-x="384"
d="M366 642q0 -11 -5 -24l-238 -588q-8 -20 -22 -28t-30 -8q-23 0 -41.5 15t-18.5 40q0 11 5 24l238 588q8 20 22 28t30 8q23 0 41.5 -15t18.5 -40z" />
    <glyph glyph-name="Euro" unicode="&#x20ac;" horiz-adv-x="570"
d="M532 136q-9 -32 -28 -58t-44.5 -44.5t-56 -29t-63.5 -10.5h-10q-42 0 -78.5 15t-63.5 41.5t-43 62t-16 77.5v23h-37q-28 0 -42 18t-14 39q0 22 14 39.5t42 17.5h37v33h-37q-28 0 -42 18t-14 39q0 22 14 39.5t42 17.5h37v28q0 42 16 77.5t43.5 61.5t64 41t77.5 15h9
q34 0 65 -10.5t56.5 -29t44 -45t27.5 -57.5q7 -24 -5.5 -41.5t-32 -24t-40 0t-29.5 29.5q-13 32 -35.5 47.5t-50.5 15.5h-9q-35 0 -60.5 -22.5t-25.5 -57.5v-28h112q29 0 42.5 -17.5t13.5 -39.5q0 -21 -13.5 -39t-42.5 -18h-112v-33h112q29 0 42.5 -17.5t13.5 -39.5
q0 -21 -13.5 -39t-42.5 -18h-112v-23q0 -35 25.5 -58t60.5 -23h9q26 0 49.5 15.5t36.5 47.5q9 23 29.5 29.5t40 0t32 -24t5.5 -41.5z" />
    <glyph glyph-name="trademark" unicode="&#x2122;" horiz-adv-x="644"
d="M619 421q0 -22 -13.5 -33.5t-29.5 -11.5t-29.5 11t-13.5 34v97q-8 -9 -15 -19t-12 -18q-6 -10 -12 -19q-10 -14 -28 -14.5t-27 14.5l-38 62v-103q0 -23 -13.5 -34t-29.5 -11t-29.5 11.5t-13.5 33.5v236q0 17 10.5 28.5t27.5 11.5h13q10 0 21 -3.5t22 -20.5q13 -22 24 -41
q10 -17 19.5 -34t15.5 -27q5 10 14 27t19 34q11 19 24 41q10 17 21.5 20.5t21.5 3.5h12q17 0 28 -11.5t11 -28.5v-236zM190 609v-189q0 -22 -13.5 -33t-30 -10.5t-30 11.5t-13.5 32v189h-42q-22 0 -33 13.5t-11 30t11 30.5t33 14h170q21 0 32 -14t11 -30.5t-11 -30
t-32 -13.5h-41z" />
    <glyph glyph-name="partialdiff" unicode="&#x2202;" horiz-adv-x="470"
d="M405 169q0 -36 -13.5 -68t-37.5 -55.5t-55.5 -37.5t-67.5 -14h-10q-36 0 -67.5 12.5t-55.5 35t-37.5 55t-13.5 72.5v99q0 40 13.5 72.5t37.5 54.5t55.5 34t67.5 12h10q31 0 58 -9v54q0 30 -14.5 48.5t-35.5 29.5t-44.5 16.5t-41.5 8.5q-27 5 -39 23.5t-10 38t16.5 34
t39.5 12.5q4 0 7.5 -0.5t8.5 -1.5l61 -13q76 -17 122 -70t46 -134v-309zM289 268q0 24 -17 41t-41 17h-10q-24 0 -41 -17t-17 -41v-99q0 -24 17 -42t41 -18h10q24 0 41 18t17 42v99z" />
    <glyph glyph-name="product" unicode="&#x220f;" horiz-adv-x="644"
d="M590 -154q0 -31 -18 -46.5t-40 -15.5q-21 0 -39 15.5t-18 46.5v730h-305v-730q0 -31 -18 -46.5t-40 -15.5t-40 15.5t-18 46.5v783q0 25 18.5 43.5t43.5 18.5h413q25 0 43 -18.5t18 -43.5v-783v0z" />
    <glyph glyph-name="summation" unicode="&#x2211;" horiz-adv-x="569"
d="M562 -152q0 -22 -15.5 -40t-46.5 -18h-415q-31 0 -47 24t-16 51q0 11 2.5 20.5t7.5 17.5l224 337l-224 338q-6 8 -8 18t-2 20q0 28 17 51.5t46 23.5h415q31 0 46.5 -18t15.5 -39q0 -22 -15.5 -40t-46.5 -18h-322l196 -299q5 -8 8 -17t3 -20q0 -19 -11 -36l-196 -299h322
q31 0 46.5 -18t15.5 -39z" />
    <glyph glyph-name="minus" unicode="&#x2212;" horiz-adv-x="557"
d="M518 240q0 -21 -15.5 -39t-46.5 -18h-354q-31 0 -46.5 18t-15.5 40q0 21 15.5 39t46.5 18h354q31 0 46.5 -18t15.5 -40z" />
    <glyph glyph-name="radical" unicode="&#x221a;" horiz-adv-x="462"
d="M448 639q0 -11 -3 -20l-205 -585q-6 -16 -20 -28t-36 -12h-5q-21 0 -35 11.5t-20 25.5l-97 217q-3 6 -4 12.5t-1 12.5q0 26 19 41.5t42 15.5q16 0 30 -9t22 -28l41 -99l158 462q7 20 22 30.5t32 10.5q26 0 43 -17t17 -41z" />
    <glyph glyph-name="infinity" unicode="&#x221e;" horiz-adv-x="683"
d="M654 232q0 -30 -10 -59t-29 -51.5t-47 -36t-64 -13.5q-43 0 -85.5 22.5t-77.5 52.5q-33 -29 -73.5 -52t-88.5 -23q-36 0 -64 13.5t-47 36t-29 51.5t-10 59t10 58.5t29 51t47 36.5t64 14q43 0 85.5 -22t77.5 -53q33 29 73.5 52t88.5 23q36 0 64 -14t47 -36.5t29 -51
t10 -58.5zM541 232q0 26 -11.5 36.5t-25.5 10.5q-21 0 -44.5 -15t-42.5 -32q19 -17 42.5 -32t44.5 -15q14 0 25.5 10.5t11.5 36.5zM266 232q-19 17 -43 32t-44 15q-14 0 -25.5 -10.5t-11.5 -36.5t11.5 -36.5t25.5 -10.5q20 0 44 15t43 32z" />
    <glyph glyph-name="integral" unicode="&#x222b;" horiz-adv-x="352"
d="M327 640q0 -22 -15.5 -40t-44.5 -18q-20 0 -27.5 -10t-7.5 -29v-605q0 -31 -5.5 -59t-21.5 -49t-45 -33.5t-75 -12.5q-30 0 -45 18t-15 40q0 21 15 39t45 18q16 0 23.5 11t7.5 28v605q0 71 35 112.5t116 41.5q29 0 44.5 -18t15.5 -39z" />
    <glyph glyph-name="approxequal" unicode="&#x2248;" horiz-adv-x="490"
d="M447 312q0 -25 -15.5 -41t-37 -25.5t-46 -13t-42.5 -3.5t-35 4t-33 9.5t-32.5 9.5t-33.5 4q-12 0 -19.5 -4t-15 -9.5t-16 -9.5t-21.5 -4q-26 0 -41.5 17.5t-15.5 40.5q0 22 14 37q22 23 47 33.5t66 10.5q20 0 38.5 -4t35 -9.5t32.5 -9.5t32 -4q12 0 21.5 4t18.5 9t19 9
t23 4q24 0 40.5 -16t16.5 -39zM447 144q0 -24 -15.5 -40t-37 -25.5t-46 -13.5t-42.5 -4t-35 4.5t-33 9.5t-32.5 9.5t-33.5 4.5q-12 0 -19.5 -4.5t-15 -9.5t-16 -9.5t-21.5 -4.5q-26 0 -41.5 18t-15.5 40t14 37q22 23 47 34t66 11q20 0 38.5 -4.5t35 -9.5t32.5 -9.5t32 -4.5
q12 0 21.5 4t18.5 9.5t19 9.5t23 4q24 0 40.5 -16.5t16.5 -39.5z" />
    <glyph glyph-name="notequal" unicode="&#x2260;" horiz-adv-x="516"
d="M477 251q0 -21 -14 -39t-42 -18h-183l-44 -67q-10 -14 -21.5 -20t-24.5 -6q-19 0 -32 10q-12 8 -20 20t-8 27t10 31l4 5h-6q-28 0 -42 18t-14 39q0 22 14 39.5t42 17.5h80l30 47h-110q-28 0 -42 17.5t-14 39.5q0 21 14 39t42 18h184l43 67q9 14 21 20t25 6q16 0 33 -10
q12 -8 19.5 -20.5t7.5 -26.5q0 -8 -2.5 -16t-7.5 -16l-3 -4h5q28 0 42 -18t14 -39q0 -22 -14 -39.5t-42 -17.5h-79l-30 -47h109q28 0 42 -17.5t14 -39.5z" />
    <glyph glyph-name="lessequal" unicode="&#x2264;" horiz-adv-x="426"
d="M347 205q0 -23 -16.5 -42t-41.5 -19q-17 0 -33 10l-171 112q-13 8 -19.5 23.5t-6.5 29.5t6.5 29.5t19.5 23.5l171 112q16 10 33 10q25 0 41.5 -19t16.5 -42q0 -13 -7 -25.5t-21 -21.5l-109 -66l109 -69q28 -18 28 -46zM383 57q0 -21 -14.5 -39t-43.5 -18h-224
q-29 0 -43.5 18t-14.5 39q0 22 14.5 40t43.5 18h224q29 0 43.5 -18t14.5 -40z" />
    <glyph glyph-name="greaterequal" unicode="&#x2265;" horiz-adv-x="426"
d="M367 319q0 -14 -6.5 -29.5t-19.5 -23.5l-171 -112q-16 -10 -32 -10q-26 0 -42.5 19t-16.5 42q0 27 28 46l109 69l-109 66q-14 9 -21 21.5t-7 25.5q0 23 16.5 42t42.5 19q16 0 32 -10l171 -112q13 -8 19.5 -23.5t6.5 -29.5zM383 57q0 -21 -14.5 -39t-43.5 -18h-224
q-29 0 -43.5 18t-14.5 39q0 22 14.5 40t43.5 18h224q29 0 43.5 -18t14.5 -40z" />
    <glyph glyph-name="lozenge" unicode="&#x25ca;" horiz-adv-x="556"
d="M527 362q0 -26 -16 -44l-189 -190q-8 -8 -19.5 -11.5t-24.5 -3.5q-12 0 -23.5 3.5t-19.5 11.5l-192 190q-8 8 -11 19.5t-3 24.5t3.5 24.5t10.5 18.5l192 191q7 7 19 11t24 4q27 0 44 -15l189 -191q16 -16 16 -43zM278 503l-141 -141l141 -141l141 141z" />
    <glyph glyph-name="fi" unicode="&#xfb01;" horiz-adv-x="548"
d="M486 621q0 -29 -18 -43t-40 -14t-40 14t-18 43v20q0 28 18 42t40 14t40 -14t18 -42v-20zM486 50q0 -28 -18 -42t-40 -14t-40 14t-18 42v320h-155v-320q0 -28 -18 -42t-40 -14t-40 14t-18 42v320h-12q-27 0 -41 18t-14 40q0 21 13.5 39t41.5 18h12v70q0 36 10.5 63
t29.5 44.5t44 26t55 8.5q29 0 42.5 -18t13.5 -39q0 -22 -13.5 -40t-42.5 -18q-13 0 -18 -8.5t-5 -21.5v-67h213q22 0 40 -14t18 -42v-379z" />
    <glyph glyph-name="fl" unicode="&#xfb02;" horiz-adv-x="597"
d="M568 51q0 -21 -13.5 -39t-42.5 -18t-55 6.5t-45 23t-30 43.5t-11 68v447h-133q-13 0 -18 -8.5t-5 -21.5v-67h18q29 0 43 -18t14 -40q0 -21 -14 -39t-43 -18h-18v-320q0 -28 -18 -42t-40 -14t-40 14t-18 42v320h-12q-27 0 -41 18t-14 40q0 21 13.5 39t41.5 18h12v70
q0 36 10.5 63t29.5 44.5t44 26t55 8.5h191q22 0 40 -14t18 -42v-505q0 -12 6.5 -19.5t18.5 -7.5q29 0 42.5 -18t13.5 -40z" />
    <glyph glyph-name="DC4" horiz-adv-x="16191"
 />
    <glyph glyph-name="RS" horiz-adv-x="588"
d="M541 241q0 -28 -22 -50l-174 -180q-17 -17 -40 -17t-40.5 17.5t-17.5 40.5t18 40l92 91h-253q-23 0 -40 17.5t-17 40.5v190q0 29 18 43t39 14t40 -14t19 -43v-133h194l-92 92q-18 18 -18 40q0 23 17.5 40.5t40.5 17.5t40 -17l174 -180q22 -22 22 -50z" />
    <glyph glyph-name="US" horiz-adv-x="588"
d="M541 241q0 -28 -22 -50l-174 -180q-17 -17 -40 -17t-40.5 17.5t-17.5 40.5t18 40l92 91h-253q-23 0 -40 17.5t-17 40.5t17 40t40 17h253l-92 92q-18 18 -18 40q0 23 17.5 40.5t40.5 17.5t40 -17l174 -180q22 -22 22 -50z" />
    <glyph glyph-name="apple" horiz-adv-x="448"
d="M406 168q0 -36 -13.5 -67.5t-37.5 -55.5t-55.5 -37.5t-67.5 -13.5h-17q-36 0 -67.5 12.5t-55.5 35.5t-37.5 55t-13.5 71q0 29 18 43.5t40 14.5t40 -14.5t18 -43.5q0 -24 17 -41.5t41 -17.5h17q24 0 41.5 17.5t17.5 41.5v66q0 26 -6 41t-15 22.5t-21 9t-24 1.5h-25
q-13 0 -25.5 6.5t-20.5 18t-9 27.5t10 35l104 181h-101v-16q0 -29 -18 -43.5t-39 -14.5q-22 0 -40.5 14.5t-18.5 43.5v73q0 23 18 40.5t41 17.5h247q22 0 36.5 -12t19.5 -31q4 -12 2.5 -26.5t-8.5 -25.5l-107 -182q66 -14 90.5 -57t24.5 -106v-83v0z" />
  </font>
</defs>
</svg>
