<?xml version="1.0" encoding="UTF-8" standalone="no"?>
<svg width="341px" height="69px" viewBox="0 0 341 69" version="1.1" xmlns="http://www.w3.org/2000/svg" xmlns:xlink="http://www.w3.org/1999/xlink" xmlns:sketch="http://www.bohemiancoding.com/sketch/ns">
    <title>vc-logo</title>
    <description>Created with Sketch (http://www.bohemiancoding.com/sketch)</description>
    <defs></defs>
    <g id="Page-1" stroke="none" stroke-width="1" fill="none" fill-rule="evenodd" sketch:type="MSPage">
        <g id="Group" sketch:type="MSLayerGroup" transform="translate(0.000000, 1.000000)">
            <path d="M99.024,23.5 L103.606,23.5 L103.673,42.54 L98.517,42.54 L79.259,23.5 L84.96,23.5 L99.079,37.53 L99.024,23.5" id="Fill-77" fill="#8A8B8A" sketch:type="MSShapeGroup"></path>
            <path d="M111.952,16.38 L116.601,16.38 L116.601,20.37 L111.952,20.37 L111.952,16.38 Z M111.952,23.5 L116.601,23.5 L116.601,42.54 L111.952,42.54 L111.952,23.5 Z" id="Fill-78" fill="#8A8B8A" sketch:type="MSShapeGroup"></path>
            <path d="M126.325,36.54 C126.325,38.25 127.71,40.35 132.333,40.35 C137.03,40.35 138.159,38.72 138.159,37.38 C138.159,36.03 137.466,35.23 134.556,34.83 L128.548,34.03 C125.813,33.67 123.374,31.93 123.374,28.98 C123.374,25.13 126.726,22.84 132.077,22.84 C138.341,22.84 141.071,25.53 141.399,29.24 L137.759,29.24 C137.651,27.31 135.829,25.68 132.04,25.68 C129.712,25.68 127.017,26.33 127.017,28.58 C127.017,29.86 127.601,30.59 130.185,30.94 L135.356,31.63 C140.159,32.29 142.021,34 142.021,36.69 C142.021,41.12 138.269,43.19 132.442,43.19 C128.073,43.19 123.085,42.06 122.685,36.54 L126.325,36.54" id="Fill-79" fill="#8A8B8A" sketch:type="MSShapeGroup"></path>
            <path d="M148.604,16.38 L153.255,16.38 L153.255,20.37 L148.604,20.37 L148.604,16.38 Z M148.604,23.5 L153.255,23.5 L153.255,42.54 L148.604,42.54 L148.604,23.5 Z" id="Fill-80" fill="#8A8B8A" sketch:type="MSShapeGroup"></path>
            <path d="M169.653,22.84 C177.079,22.84 180.72,27.53 180.72,33.02 C180.72,38.51 177.079,43.19 169.653,43.19 C162.224,43.19 158.583,38.51 158.583,33.02 C158.583,27.53 162.224,22.84 169.653,22.84 M169.653,25.89 C164.372,25.89 162.44,29.57 162.44,33.02 C162.44,36.47 164.372,40.14 169.653,40.14 C174.929,40.14 176.862,36.47 176.862,33.02 C176.862,29.57 174.929,25.89 169.653,25.89" id="Fill-81" fill="#8A8B8A" sketch:type="MSShapeGroup"></path>
            <path d="M206.538,35.56 C205.011,41.26 201.548,43.19 196.599,43.19 C189.026,43.19 186.22,38.07 186.22,33.13 C186.22,27.49 189.679,22.84 196.56,22.84 C201.657,22.84 205.7,25.13 206.466,29.86 L202.606,29.86 C202.171,27.38 200.2,25.89 196.815,25.89 C192.155,25.89 190.081,28.95 190.081,33.01 C190.081,37.09 192.155,40.14 196.815,40.14 C200.091,40.14 201.878,38.72 202.679,35.56 L206.538,35.56" id="Fill-82" fill="#FFFFFF" sketch:type="MSShapeGroup"></path>
            <path d="M222.964,22.84 C230.388,22.84 234.034,27.53 234.034,33.02 C234.034,38.51 230.388,43.19 222.964,43.19 C215.53,43.19 211.892,38.51 211.892,33.02 C211.892,27.53 215.53,22.84 222.964,22.84 M222.964,25.89 C217.681,25.89 215.753,29.57 215.753,33.02 C215.753,36.47 217.681,40.14 222.964,40.14 C228.241,40.14 230.171,36.47 230.171,33.02 C230.171,29.57 228.241,25.89 222.964,25.89" id="Fill-83" fill="#FFFFFF" sketch:type="MSShapeGroup"></path>
            <path d="M239.987,16.5 L244.136,16.5 L244.136,42.67 L239.987,42.67 L239.987,16.5 Z" id="Fill-84" fill="#FFFFFF" sketch:type="MSShapeGroup"></path>
            <path d="M251.183,16.38 L255.327,16.38 L255.327,42.54 L251.183,42.54 L251.183,16.38 Z" id="Fill-85" fill="#FFFFFF" sketch:type="MSShapeGroup"></path>
            <path d="M265.021,34.1 C265.31,38.03 268.81,40.14 272.048,40.14 C274.124,40.14 276.964,39.45 278.2,36.76 L282.06,36.76 C280.239,41.34 275.978,43.19 272.231,43.19 C264.802,43.19 261.159,38.51 261.159,33.02 C261.159,27.53 264.802,22.84 272.231,22.84 C277.253,22.84 282.57,25.75 282.57,33.63 L282.57,34.1 L265.021,34.1 L265.021,34.1 Z M278.712,31.27 C278.167,27.82 275.474,25.89 272.048,25.89 C268.698,25.89 265.671,27.86 265.13,31.27 L278.712,31.27 L278.712,31.27 Z" id="Fill-86" fill="#FFFFFF" sketch:type="MSShapeGroup"></path>
            <path d="M308.5,35.56 C306.97,41.26 303.51,43.19 298.56,43.19 C290.99,43.19 288.18,38.07 288.18,33.13 C288.18,27.49 291.64,22.84 298.52,22.84 C303.62,22.84 307.66,25.13 308.43,29.86 L304.56,29.86 C304.13,27.38 302.17,25.89 298.77,25.89 C294.11,25.89 292.04,28.95 292.04,33.01 C292.04,37.09 294.11,40.14 298.77,40.14 C302.05,40.14 303.84,38.72 304.64,35.56 L308.5,35.56" id="Fill-87" fill="#FFFFFF" sketch:type="MSShapeGroup"></path>
            <path d="M317,16.49 L321.14,16.49 L321.14,24.36 L340.22,24.36 L336.69,27.69 L321.14,27.69 L321.14,42.6 L317,42.6 L317,27.69 L313.07,27.69 L313.07,24.36 L317,24.36 L317,16.49" id="Fill-88" fill="#FFFFFF" sketch:type="MSShapeGroup"></path>
            <path d="M33.495,-0.13 C33.245,-0.13 32.997,-0.12 32.751,-0.12 L40.681,7.79 C51.837,10.93 60.038,21.17 60.038,33.29 C60.038,45.95 51.09,56.56 39.173,59.16 L22.59,42.63 L41.703,23.55 L31.339,23.55 L12.853,42 L12.227,42.63 L12.228,42.63 L12.204,42.65 L12.837,43.24 L36.245,66.59 C53.413,65.17 66.988,50.78 66.988,33.29 C66.988,14.86 51.962,-0.13 33.495,-0.13" id="Fill-89" fill="#FFFFFF" sketch:type="MSShapeGroup"></path>
            <path d="M6.951,33.29 C6.951,20.66 15.862,10.06 27.74,7.43 L44.087,23.74 L24.973,42.81 L30.153,47.99 L53.825,24.37 L54.445,23.74 L54.362,23.66 L54.364,23.66 L30.649,0 C13.526,1.46 0,15.83 0,33.29 C0,51.72 15.026,66.71 33.495,66.71 C33.71,66.71 33.925,66.7 34.139,66.7 L26.167,58.75 C15.083,55.57 6.951,45.36 6.951,33.29" id="Fill-90" fill="#FFFFFF" sketch:type="MSShapeGroup"></path>
        </g>
    </g>
</svg>